<svg id="Layer_1" data-name="Layer 1" xmlns="http://www.w3.org/2000/svg" viewBox="0 0 1453.19 669.71"><defs><style>.cls-1{fill:green;}</style></defs>
<path class="cls-1" d="M1464.25,758.77c1.67-.14,3.92-1.63,5.32-.28a11.12,11.12,0,0,1-5.32,5.88c-1.16.52-2.69.32-3.91.84-2.33.95-3.55,3.38-5.59,5s-4.47,2.89-6.45,4.2-4.66,3.77-7,1.95c.18-3.28,3.67-3.24,4.49-5.88,0-2-1.75-2.18-1.68-4.2,3.87-3.4,10-5.84,10.9-12.87.42-3.11-2.11-9.79,1.68-10.08,4.46-.33,1.94,4.49,2.25,7,.11,1,1.16,1.71,1.66,3.08C1461.54,755.9,1461.46,758.14,1464.25,758.77Z" transform="translate(-16.38 -178.32)"/><path class="cls-1" d="M1437.11,775.55c-1.55,4.68-8.36,7.12-12.87,10.08-1.38.91-2.51,3-4.2,3.63-2.18.87-4.66.59-7,1.68-3.7,1.74-6.47,5.14-9.79,7.28s-8,5-11.76,5.32c-4.14.31-11.79-2.35-6.71-6.16,2.19-1.64,6.86-3.57,9.23-4.75,8-4,19.15-6.68,25.74-11.48,3.73-2.71,7.1-5.58,10.64-7.83C1432.16,772.19,1435.15,775.22,1437.11,775.55Z" transform="translate(-16.38 -178.32)"/><path class="cls-1" d="M1388.7,588.35c.9-.24.87.44,1.4.55-.33,4-2.73,6.62-7.84,6.17-2.28-.21-6.27-1.92-6.43-3.08C1375.26,588,1386.14,590.45,1388.7,588.35Z" transform="translate(-16.38 -178.32)"/><path class="cls-1" d="M1375,607.38c2,.57,11,6.93,8.11,9.79-1.57,1.57-3.59-.84-6.14-1.4-3.43-.75-6.06.16-8.4-1.68-2.66-2.08-3.31-6.63-6.16-9.23-1.44-1.32-5.26-3.08-7.83-2.8-4.45.48-4.4,5.57-8.4,7.83-3.82-.41-6.08.7-9-.28s-4.54-5-7.28-5.31-9.57,4.58-10.62.28c-.86-3.48,4.69-4.63,5-7s-2.18-6.21-3.36-7.27-2.82-1.15-4.2-2-2.53-2.5-4.2-3.36c-5.85-3.06-14.81-1.81-17.06-6.72-.4-.87.22-1.82-.28-3.07-.61-1.54-2.86-2-3.64-3.36-2-3.41-.6-8.45,2.8-9,3.06-.45,9.09,3.32,9.79,5.6.38,1.2-.25,2.54,0,3.92.32,1.65,2.79,5.69,5,5.87,2.9.24,4.61-4.23,7.27-5.87,1.84-1.13,4.86-2.43,7.28-2.24s4,2.05,6.71,3.07c2,.74,4.4,1,6.72,1.68,2,.58,3.79,1.77,5.87,2.52,6.67,2.42,14.6,3.83,18.19,8.12,1,1.17,1,2.9,2.25,4.2s7.65,2.36,7.83,5c.14,2-2.66,2.15-2.79,4.19C1368.3,603.06,1374,602.82,1375,607.38Z" transform="translate(-16.38 -178.32)"/><path class="cls-1" d="M1315.94,775a17.8,17.8,0,0,1-7,9.79c-2.53,1.76-10.55,5.31-11.47.28-.26-1.4,1.56-7.89,2.23-9.23,2-3.92,4.09-1.36,7.28-.84S1313.33,773,1315.94,775Z" transform="translate(-16.38 -178.32)"/><path class="cls-1" d="M1294.11,368.12c1.14,3.36,1.92,6.66,2.81,9.79-3.09,3.84-9.19,2.42-13.71,4.48-2.13,1-2.71,4.5-4.76,5-1.65.44-2.92-1.42-4.48-1.39-4,.07-6,6.72-10.91,5-2.82,1.69.11,8.13-3.36,8.67-2.47.39-3.82-2.79-5.32-4.75-1.81-2.37-4.4-3.68-4.47-5.6s4-5.33,5.31-6.71c1.59-1.7,4.71-4.88,6.71-5.32,3.73-.82,7.52.36,10.36-.84,2.45-1,2.6-4.9,3.92-5.88,1.12-.82,2.4-.6,3.36-1.11,2.6-1.41,5.4-6.25,3.92-11.2-.94-3.12-6.12-6.54-2.8-10.36,5,.54,11.49,5.42,12.31,10.36.32,1.93-.75,3.86-.56,5.88C1292.54,365.36,1293.61,366.6,1294.11,368.12Z" transform="translate(-16.38 -178.32)"/><path class="cls-1" d="M1295.24,337.61c-.63,1.43-1.9,1.13-3.08,2s-2.5,3.37-3.91,3.64c-2.25.42-4.77-2.21-7-1.68-2.62.63-1.08,2.64-2,5-2.3-.49-6.07-3.05-6.16-5.6-.06-1.6,2-2.59,2.53-4.47.82-3.2-1.33-4.82-2.53-7.84-.08-.45.27-.48.28-.84,2.73-.57,8.1,4.58,14.27,5.59C1291.67,334.07,1295,333.72,1295.24,337.61Z" transform="translate(-16.38 -178.32)"/><path class="cls-1" d="M1284.89,621.65c.29,2.33-3.77,2.06-4.2.55C1280.77,620.4,1284.39,619.84,1284.89,621.65Z" transform="translate(-16.38 -178.32)"/><path class="cls-1" d="M1265.3,314.11c2.77,1.46,9.48,4.78,4.75,7.84C1267.19,320.89,1264.21,317.27,1265.3,314.11Z" transform="translate(-16.38 -178.32)"/><path class="cls-1" d="M1252.43,609.34c3.2-1.74,6.7-5.57,12.31-3.64-1.23,3.48-5.45,3.41-8.11,5s-5,4.43-8.4,4.75a2.58,2.58,0,0,0-1.12-1.12C1247.09,611.24,1250.21,610.53,1252.43,609.34Z" transform="translate(-16.38 -178.32)"/><path class="cls-1" d="M1244.87,556.73c3.29,0,6.38-1,8.67.28-.43,7-11.28,1.67-18.46,2.8-1.53.23-2,1.42-3.65.83.1-2.37,2.65-4.76,5.32-5C1238.8,555.4,1241.87,556.72,1244.87,556.73Z" transform="translate(-16.38 -178.32)"/><path class="cls-1" d="M1247.67,565.4c.31,3.87-5,4.3-6.44,7.28,2.32,3.56,3.23,8.52,5.88,11.75-.12,2.13.43,4.92-.85,5.88-5.63,1.08-8.66-9-10.91-12.59-4.31.8-.38,14.58-6.15,12.87-2.83-.84,0-4.78-.57-7.83-.52-2.69-3.15-3.24-3.35-5.33-.16-1.72,1.9-3.55,2.51-5.31.89-2.54.33-7.42,3.36-7.55,1.5-.07,3.51,3.14,4.48,3.35C1239,568.64,1243,564.51,1247.67,565.4Z" transform="translate(-16.38 -178.32)"/><path class="cls-1" d="M1237.31,607.1c-1,2.12-6.78,1.1-7.27-.85C1231,604.05,1236.83,604.71,1237.31,607.1Z" transform="translate(-16.38 -178.32)"/><path class="cls-1" d="M1232,613.81a6.92,6.92,0,0,1-1.11,1.12c-2.13-.68-4.39-1.19-5-3.35C1227.41,609.27,1231.92,611.18,1232,613.81Z" transform="translate(-16.38 -178.32)"/><path class="cls-1" d="M1224.44,606.81c-1.42,2-6.35-.16-8.11,2-2.92-.07-5.85-.11-6.44-2.52.84-2,3.49-.64,5.59-.84C1218.86,605.11,1223.54,602.74,1224.44,606.81Z" transform="translate(-16.38 -178.32)"/><path class="cls-1" d="M1185,714c0-2.47-1.57-4.65-2-7.27-.14-1,.14-2.17,0-3.36-.18-1.74-1-3.18-.84-4.2.39-1.85,2.55-2,3.09-3.64.87-2.61-1.08-3-1.13-6.16,0-2.21,1.68-3.28,2.81-6.15.52-1.33.54-3.81,1.11-4.76.73-1.19,3.82-2.2,5-2.79,4.29-2.1,7.73-6,12-6.72,1.09-.18,2.57.14,3.35,0,2.54-.44,5.73-2.57,9.24-3.36s6.4-.48,9-2c2.81-1.62,6.78-5.86,7.83-8.39,1.28-3.08.91-5.67,3.36-6.72,1.21-.51,2.39,0,3.64-.27a17.39,17.39,0,0,0,5-2.52c2-1.75,2.27-4.61,4.47-6.44a38.54,38.54,0,0,1,6.45-4.19,11,11,0,0,1,4.46-1.13c4,.34,5.79,5.85,10.08,4.76,1.53-.39,3.1-3.65,4.49-5.6,2-2.85,3.48-6.7,7-7.55,2.83-.7,6,1.09,7.55-1.4.35-1.77-1.32-2.82,0-3.92,3.27.2,8.78,4.6,13.71,4.75,2.66.09,7.59-2.89,8.12,1.13.23,1.78-2,3.21-2.52,5-.37,1.29.55,2-.28,3.36-2.28.9-4.69,1.37-4.76,3.92-.08,3.19,4.52,4.69,7.27,6.44,1.9,1.2,3.47,3,4.49,3.63.86.51,2.22.75,2.79,1.12,1.82,1.18,3.11,3.85,5.61,3.92,2.84.07,5.68-3.55,7.27-7,1.86-4,2-8.92,2.79-13.15.28-1.42,1.29-2.79,1.68-4.2,1.08-3.83,2.55-9,5.87-10.35,3.35,3.54,4.49,10.42,3.93,16.24,2.24,1.69,6.17,1.13,6.71,5,.19,1.35-.67,3.08-.56,4.47.19,2.36,1.95,4.42,2.25,6.44.56,3.73-.62,6.8,1.11,9.52,2.18,3.42,6.46,3.3,9.23,7,0,2.29.87,3.22,1.4,5,.26.86,0,2.25.29,2.81.89,1.87,3.32,2.06,4.19,3.63.44.78.31,2.24.84,3.64.77,2.06,2.61,3.59,3.92,5.6s3.33,4,3.64,5.6c.56,2.79-1.46,4.7-2,7-.6,2.78,0,6.37-1.1,9.24-1.3,3.36-4.51,6.67-7,10.91-2,3.48-4.84,7.4-7.83,9.79-1.77,1.42-3.87,2.23-5.6,3.65-2.68,2.18-4.88,5-7.27,7.55s-5.58,4.7-7.57,7c-2.87,3.33-4.3,8.7-9.22,9.24-2.89.31-5.47.07-8.12,1.12-4.14,1.65-6.89,4.68-8.95,4.76s-4.16-2.54-6.16-2.8c-2.24-.29-4,1.69-7.27,1.67-1.34,0-2-.79-3.92-1.4-4-1.26-8.39-1.21-9-5.59-.32-2.39,1.52-3.46,1.39-5.6s-2.21-2.67-3.08-4.47c.55-1.93.64-4.36-1.4-5.61a5.59,5.59,0,0,1,1.12-3.91c-1.62.69-3.76,1.12-5.6,2.25-2,1.22-3.5,4-5.86,3.63-2.22-.78-.52-3-.85-4.76-.24-1.36-3.34-7.14-4.76-8.11a39.81,39.81,0,0,0-9.51-3.65c-8.65-1.35-14.16,3.27-21,3.93-1.76.16-3.66-.29-5.31,0-5.63,1-11.89,5.45-15.4,8.39-5.79.57-11.65-1.19-17.63.57s-9.33,6.67-18.46,5.3c-1.81-1.55-5-2.32-5-5,0-2.13,3.16-3.51,4.2-5s3-5.48,3.08-7.83c0-1.86-1.26-4.09-1.13-6.43C1184,717.76,1185,715.81,1185,714Z" transform="translate(-16.38 -178.32)"/><path class="cls-1" d="M1180.23,597.3c1.53-.21,2.66-1.34,4.2-1.39,3.26-.13,6.48,2.41,10.34,2,.84.9.27,1.65.29,3.09,3.27,1.74,8.64,1.42,10.35,4.75-2.46,2.6-6.1.73-9.24.27-2.84-.4-5.86-.2-9-.56-3.92-.45-7.46-2.61-11.19-3.07-2.27-.28-4.58.32-6.72,0-2.52-.39-11.9-3.93-12-6.43s4.22-3.31,8.11-2.81C1170.42,593.76,1173.78,598.2,1180.23,597.3Z" transform="translate(-16.38 -178.32)"/><path class="cls-1" d="M1187.78,578c-2.12-.6-4.1-.27-5-.85-1.91-1.17-1.63-4.53-2.25-6.43s-2.93-3-4.18-5.6c-1.83-3.81-2.61-12.36,2.23-13.15,2-.33,4,1.17,5.31.84,2.7-.66,2.23-4.16,4.48-5.6,1.25-.81,3.54-.47,5.32-1.12s3.21-2.42,4.48-3.92,2.09-3.74,3.63-4.75c1.74-1.15,3.35-1.17,4.76-2.24,3.67-2.8,3.79-6.7,6.71-10.08,2.49-2.85,6.42,2.75,6.72,5,1.4,1.78,4.13,2.22,5.32,4.2-1.65,4.92-6.3,5.35-5.32,12.31a20.22,20.22,0,0,0,1.69,4.76c.8,1.64,3.16,3.41,3.07,4.47-.18,2.1-4.4,2-5.32,4.2-.85,2,.06,2.17-.28,5.32-1.18,2.28-4.34,2.83-5.32,5.6-1.18,3.33.18,7.63-2.51,10.08-1.86-.1-3.9,1.61-6.15,1.39-2.45-.23-4.79-3.59-8.69-3.64-1.48,0-3.23.95-4.75.84C1190.5,579.58,1189.54,578.48,1187.78,578Z" transform="translate(-16.38 -178.32)"/><path class="cls-1" d="M1169.67,571.77c7.12,0,7.12,11.05,0,11.05S1162.55,571.77,1169.67,571.77Z" transform="translate(-16.38 -178.32)"/><path class="cls-1" d="M1159.23,570.43c.88.12,4,4.43,3.92,5.61-.09,2-3.05,1.86-3.92,4.47-1.31,4,.6,8.58-1.67,10.64-1.27.77-3.57.54-5.6.56-5.07-3.58-9.09-7.83-13.43-12.6-1.58-1.73-3.5-3.23-4.48-5-1.46-2.67-2-5.61-3.63-8.11-1.47-2.2-4.16-3.77-5.61-6.15-1.16-2-1.28-4.55-2.51-6.44s-3.1-2.52-4.48-3.92c-.89-.92-1.4-2.36-2.24-3.36-3.51-4.21-10.28-6.41-10.62-12.59,1.43-1.64,2.91.61,5.59,1.12,1.73.33,3.78-.14,5,.28,2.55.85,4.3,4.82,7,7,1.51,1.22,3.48,2.06,5,3.36s2.88,3.38,4.2,4.2c1.82,1.11,4.35,1.85,6.72,3.36,3.24,2.06,9,4.2,9.79,8.4.2,1-.48,2.81-.28,3.63.39,1.47,2.25,2.1,3.36,3.36,1.37,1.56,1.66,3.89,3.64,4.2C1157,573,1157.1,570.16,1159.23,570.43Z" transform="translate(-16.38 -178.32)"/><path class="cls-1" d="M1027.15,511.67c2.41.79,10.45,10.56,8.12,16a6.36,6.36,0,0,1-6.16,3.07c-5.54-.88-4.48-13.21-2.8-18.19A1.45,1.45,0,0,1,1027.15,511.67Z" transform="translate(-16.38 -178.32)"/><path class="cls-1" d="M841.06,653.28c.25-2.26,1.86-5.95,3.64-7.29,2.58-1.92,6.07-1.72,8.68-3.08a21.91,21.91,0,0,0,6.71-5c1.35-1.75,1.42-3.74,2.53-5,.75-.9,2.44-1.14,3.34-2.23s.64-2.83,2-3.92c3.89-1.66,5,5.46,5.6,10.35.18,1.52,1,3.16.83,3.91-.4,2.23-2.86,2.69-3.63,4.21-.19,6.14-2.6,11.46-4.77,16.5-1.85,4.36-2.93,9.13-4.47,12.88-.55,1.36-1.73,2.43-2.23,3.63-2,4.76-2.76,12.24-6.44,14.28A29.73,29.73,0,0,1,845,694.4a8,8,0,0,1-7.27-5.59c-.48-1.59,0-3.25-.28-5-.35-2.24-1.68-4.16-1.4-6.72.62-5.69,6.16-8.46,6.43-13.15C842.67,660.37,840.67,656.86,841.06,653.28Z" transform="translate(-16.38 -178.32)"/><path class="cls-1" d="M706.19,255.06c.32,4.69-7.18,4.11-8.12,8.12-.43,1.82.87,4.24.56,5.87-.57,2.94-3.41,2.09-7,3.64-1.83.79-3.61,3.7-5.6,3.92-1.84.2-3-1.08-4.2-.84-1.84.35-1.22,2.6-3.92,3.08-2.15.37-5.91-1.92-6.16.84-.16,1.77,3.38,2.73,5.6,2.51,1.76-.17,3-1.37,4.76-1.4,3.31,0,5.47,2.46,7.55,2.53,4.81.13,9.52-4.44,14.56-3.92,2.27.23,3.62,1.84,5.31,1.68,2.7-.26,5-3.37,7-4.48-.85-4.72.08-10.93,4.48-11.2,3-.17,7.56,5.18,8.11,0,.24-2.24-2.39-4.23-4.2-4.19-1.61,0-3.72,3.18-5,.56,0-2.56,2.89-1.89,4.49-2.52,1.18-.48,2-1.77,3.35-2.24,6.66-2.34,15.89,2.3,18.47-3.36-5.9-5-16,1.84-22.67,1.4-2.86-.18-6.63-2.31-7.55-5-.29-.86-.05-2-.28-3.63-.26-1.79-1.18-3.66-1.12-4.76.28-5.06,12.87-6,12.87-12.31-2.4-2.31-9.45-1.92-11.75.56-.83.89-.79,2.69-2,4.48-2.51,3.82-10.61,4.27-13.15,8.95-.57,1-1.55,3.88-1.12,5.6C700.13,251.56,706,252.28,706.19,255.06ZM639.58,528.74c-8.06-1.18-16.31,2.07-21.83,4.47-3.18,1.4-6.43,3.52-9.23,3.64s-5.27-1.41-7.83-1.67a42.56,42.56,0,0,0-10.92.56c-3.21.57-6.12,2.87-8.95,3.07-5.43.41-10.59-4.89-14-7.55-2.09-1.63-4.21-3-6.16-4.48s-4.8-2.63-6.44-4.19c-2.2-2.14-2.2-5.85-3.35-8.68-1.37-3.34-5.52-5.79-8.68-8.95-2.37-2.37-7.8-5.91-8.4-9-.29-1.55.67-3.35.56-5-.15-2.45-2-3.84-2-5.59.05-2.46,3-4.36,3.63-6.44.36-1.06.19-2.56.56-3.92.79-2.84,2.67-4.52,2.24-8.67-.17-1.66-1.59-3.17-1.68-5.32-.06-1.47,1-2.29.84-3.64-.21-2.38-3.31-2.85-3.64-5.59s2.71-5.18,4.48-8.4c.8-1.44,1.24-3.65,2-4.75,1.57-2.39,4.13-3.54,5.32-5.88.88-1.73,1.16-4.3,2-5.6,1-1.67,3.08-2.57,5-4.76,1.59-1.78,2.24-3.95,3.35-4.75,1.41-1,3.51-1.27,5-2,5.18-2.36,9-5.4,11.47-10.36-.76-4.5.39-6.4,2.24-9.51,1.71-2.88,3-5.62,5.88-7.28,3.5-2,6.78-2.16,9.23-5.87,1.22-1.86,3.06-5.07,3.08-7,0-2.77-2.84-6.31-5.31-6.72s-6.42,1.92-7.84-.83c-.45-.88.17-2.95,0-3.92-.32-1.83-1.89-3.13-2-4.48-.13-2.62,2.59-5.36,3.36-8.39,1.05-4.13,0-7.29-.28-12,3.91-6.18,12.6-3.12,21.27-2.53,1.3.09,2.79-.31,4.19-.27,5.14.12,9.18,1.66,10.91-2.8.66-1.68,1.24-7.94.85-9.52-.46-1.87-4.14-6.73-5.88-7.83-2.78-1.77-6.81-1-8.4-4.2,1.29-5.52,7.48-.92,11.19-2.24,1.9-.67,1.69-4,3.37-4.48,1.14-.36,2.61,1.15,4.2,1.13,1.35,0,6.26-2.5,7.55-3.37,1.79-1.21,2.34-3.72,3.92-4.75,1.06-.7,2.47-.62,3.63-1.12a21,21,0,0,0,7-5c2.31-2.77,3.35-6.2,6.15-6.71,3.76-.69,12.24.74,12.88-3.37.6-3.9-3.44-7-2-11.19,1.18-3.33,4.16-2.74,8.4-4.76,2,1.45,1.45,5.59,1.67,8.12,2.6,0,7.9-.77,8.4-3.08.63-2.88-3.79-5.81-4.76-7.55s-1.27-5.2-3.36-5.6c-4.26-.82-8.4,5.88-13.71,5.88-3.49,0-7.19-2.7-8.11-5.32-.53-1.5,0-2.91-.29-4.48-.33-2.29-1.71-4.66-1.11-7.83,2.14-3.67,7.08-4.27,10.63-6.16,1.35-.72,2.43-2.24,3.92-2.8,2.51-.93,6.22,0,8.67-1.4,1.56-.88,1.12-2.41,2.25-4.2.69-1.12,2.4-1.78,3.35-3.07.66-.9.74-2.26,1.4-3.08,2.43-3,6.87-4.14,8.67-7.27.8-1.39-1.38-1.9-.83-3.92.9-2,4.39-.52,6.43-.85,2.78-.43,5.36-3.81,8.39-4.47,3.18-.68,6.58-.27,9.52-1.4,1.76-.68,3.38-2.27,5-2.52.59-.09,2.24.32,3.07.28,1.07,0,2.22-.7,3.64-.84,2.06-.2,4.61.5,7.28.56,4.43.1,8.63-1.33,12.31.28,1.93.84,1.71,3,4.2,3.92,1.25.45,2.9-.18,4.76,0,2.74.26,5.6,2.15,9.23,2.52,1.29.13,2.63-.16,3.91,0,4,.49,8.4,2.59,12.32,3.91,3.28,1.11,10.23,2.49,10.35,5.6.16,3.68-6,4.76-8.67,4.76-4.41,0-10.23-2.58-14.83-1.12.07,6.33,6.9,11.12,13.15,10.35.55-3-3.53-1.32-3.08-4.19,2.79-2.11,6.13,1.41,10.08.84,1.54-.42,1.28-2.65,1.67-4.2,3.33-2,7.5-5,12.6-2.8a2.48,2.48,0,0,1,1.12-1.12c.33-3.07-3.36-4.67-1.4-7.56,1-2,6.19-1.3,7,.28.4,1.9-1.3,1.69-1.13,3.36a4.5,4.5,0,0,0,4.48,2.52c2.75-.14,3.29-2.6,5.88-3.92,1-.53,2.58-.58,3.92-1.11,1.58-.63,2.92-1.9,4.19-2.24.94-.25,2.34,0,3.64-.29,1.66-.35,3.4-1.68,4.76-1.67,1.69,0,2.89,1.95,5,2.24,1.16.15,2.49-.67,4.19-.84,1.38-.15,2.79.16,3.92,0,2.67-.39,4.51-1.8,6.72-1.68,1.56.08,4.24,2.19,5.31,1.12,1.81-1.8-2.41-3.13-1.11-4.76,4.29.32,8.85.22,13.16.84,6.39.91,12.41,4.08,18.18,4.2-.55-3.89-5-2.77-7-4.48-.61-.52-3.11-4.62-3.07-5.88,0-.63,3.16-6,3.91-6.71,2.47-2.32,10.56-2.3,12.87.83,1.58,2.15,1.06,5.39,3.36,5.32,2,0,3-4.91,5.32-5,1.89-.1,2.85,3.11,4.75,3.08,2.32-.05,3.93-4.37,7-4.48,1.65-.07,2.21.84,4.76,1.11,1.75-1.12-.59-2.6.28-4.19,3.13-2.28,10.27-.55,14.27-2,1.11-1.33-1.43-2.27-.28-3.64,3.45-2.41,9.24-2.63,15.12-3.63,3.59-.62,7-3.11,9.78-3.37s5.75,1.73,8.4,1.68a15.49,15.49,0,0,0,5-1.11c1.57-.62,2.65-2.14,4.2-2.52,2.45-.61,5.55.29,8.4,0,3-.31,5.65-1.47,7.83-1.12s3.66,2.49,5.59,2.8c5.9.92,12-.89,17.35.56,1,.26,1.93,1.25,3.08,1.68,3.6,1.31,6.05.9,6.72,5.31,2.83,1,4.49,3.6,7.83,4.48,2.24.59,4.48-.28,7-.28a78.56,78.56,0,0,1,10.35.56c1.6.25,2.93,1.43,4.48,1.68,1.13.18,2.63-.12,3.91,0,1.76.16,3.33.88,4.76.84,2.93-.09,5.16-2.71,7.55-3.08,1.29-.2,3,.46,4.2.56,4.72.39,10.15-.62,14,.28,2,.48,5.56,2.74,7.83,4.47,1.65,1.26,2.65,3.26,4.2,4.2s5.2,2.49,6.72,2.24c1.79-.28,1.86-2.27,3.63-3.07,5.56-1.24,15.41,1.76,19.87-.29,1.73-.79,1.39-2.62,2.8-3.63,8.4-.41,16.76.34,24.63.55,2.76.08,5.62-.7,8.12-.27,2.77.48,4.79,3.26,7.55,4.19,1.83.63,5.07.3,7.83.85,1.86.36,3.38,1.47,4.76,1.67,3,.42,5.84-.33,8.68-.56,6.42-.51,14.67-.85,21,1.68,3.36,1.35,4.78,4.08,8.39,4.48,5.17.57,13.18-.43,18.47,0,1.26.1,2.44.63,3.35.56,1.78-.13,2.86-1.64,5-1.68,2.77-.06,7.18,4.32,11.21,3.64,1.73-1.17-1.4-2.8.26-3.92,1.58-1.31,3.73,0,6.17,0,1.32,0,2.94-.67,4.19-.56,3.08.27,6,3,9.8,3.91a34.82,34.82,0,0,0,10.91.57c2.69-.3,5-1.2,7.56-.84,1.24.17,2.34,1.07,3.63,1.4s2.36,0,3.36.27,1.86,1.14,2.8,1.4c5.2,1.49,12.13,2.23,17.63,3.93,3.24,1,6.55,3,9.24,3.07,1.32,0,2.5-.57,4.2-.56,8.45.06,18.39,3.58,17.62,11.48-9.9,2.17-18.17-6.81-28.55-4.2-1.65.42-3.49,2.23-3.35,3.91.39,4.88,12.67,4.47,13.7,9.24-2,1.51-4.21.08-5.87.28-2.52.3-6.77,3-8.39,4.48-1.9,1.77-3.56,6.31-5.6,6.72-2.5.48-6.32-2.47-10.08-1.69-1.37.29-2.7,2-3.91,2.24-3.09.59-7-1.68-8.95,2,1,2.56.4,6.12,2.52,7.56,1.36.93,3.07.21,4.75.84,2,.73,3.06,3.13,4.75,4.48,1.4,1.09,2.88,1.12,3.65,2.51.18,2.07-.82,2.29-.57,3.64.44,2.35,4.11,2.88,4.2,4.48.13,2-2.31,1.59-2.79,3.63-.17,1.31,1.51,1.65,1.68,3.36.11,1.15-.93,2.34-.84,3.64.12,1.87,1.59,3.11,1.39,4.76a4.36,4.36,0,0,1-2.52,3.08c-5.36-3.44-10.18-8.19-15.95-12.59s-15.26-10.08-16.22-19.59c0-1.46,3.08-2.6,3.63-4.76.23-.88-.35-2.14-.28-3.36.2-3.28,2.92-6.44,2.81-8.39-.13-2.14-4.13-6.12-6.16-6.72-1.63.85,0,2.55-.29,3.92a5.54,5.54,0,0,1-4.19,3.92c-5.3.45-5.89-6.82-14.28-4.76-2.17.54-5.22,3.81-4.47,7.84.23,1.22,3.6,2.53,3.36,4.19s-7.63,2.09-9.24,2c-4.52-.36-6.84-3.74-10.91-3.64-2,0-3.75,1.68-5.32,2-8.81,1.61-21.89-4.34-24.9,3.36-.43,1.08-.19,2.51-.56,3.64-.55,1.61-1.83,2.89-2.24,3.92-.34.86-.29,2.56-.84,3.91s-5.8,6-1.12,7.28c1.12.3,1.64-.48,3.08-.28,2.4.32,6.4,4.18,9.23,4.2,1.69,0,4-1.9,5.32-2,2.59-.13,4.46,1.55,6.43,2.51s4.76,2.87,6.16,2.8c2.65-.13,1.38-2,3.92-2.8,4.84,1.44,7.11,6.57,11.75,10.64,1.68,1.47,4.17,2.73,6.44,4.76,1.26,1.13,5.15,4.16,5.32,5.59s-1.09,1.91-1.41,3.08c-.45,1.7.61,3-.56,4.2-4.46-1.65-5.46-6.06-8.67-9.79-1.19-1.4-2.39-3.05-4.19-5-.82-.9-3.79-4.05-5.61-3.36-3.52,1.34,1.93,6.67,2.8,7.84,1.86,2.46,4.33,5.78,4.49,8.39.1,1.67-1.09,4.7-1.13,7.56,0,1.93.49,3.68.29,5.31s-1.38,3.51-2,5.32c-.66,2.05-.8,4.5-1.39,5.87-1.09,2.53-4.75,5.5-7.29,5.6-2.32.1-3.32-1.79-5.59-1.67-3.44.16-4.08,3.33-6.15,5.87.18,2.75,1,3.7.56,5.6-.76,3-4.88,3.48-4.76,6.43.12,2.74,3.78,3.27,5.59,4.48a47,47,0,0,1,9.24,8.4c1.56,2,3.81,5.71,3.64,7.83-.21,2.77-8.18,6.62-11.48,5.59-3.13-1-2.06-3.95-2.79-6.71-.57-2.12-2.23-3-3.07-4.75-.45-.91-.25-2.34-.85-3.36-1.69-2.85-4.64-1.29-8.12-3.08-2.28-1.18-1.62-3.64-2.52-5.88-1.2-3-6.27-4.43-10.34-3.63-3,.58-3.93,3.09-6.72,3.63-4.11-2.43.84-8.43-4.2-9-3.86-.41-6.42,5.54-8.68,7.27-1.53,1.17-4.29,1.41-4.47,3.08-.33,3.09,3.26,2.46,6.15,3.64,2.62,1.07,2.92,4,5.32,4.19,2,.14,3.33-2.06,5.31-2.24,3.44-.3,6.24,1.25,8.4,2.53-1.4,3.39-8.94,5.88-9,10.35,0,2.59,3,3,5.32,4.76,2,1.44,4.53,5.54,7.28,8.39,1.18,1.23,3.11,2,3.64,2.8,1.3,1.85,1.09,4.1,2.51,5.32.24,1.53-.7,1.91-.56,3.36.7,2,3.79,1.63,4.48,3.64-.57,4.82,1.44,9.37-2.51,11.19-1.83,8.66-3.88,15.43-9.8,20.15-5.32,4.23-12.34,5.48-18.75,7.55-1.66.54-3,2.29-4.47,2.8-3.73,1.26-10.36.49-10.63,5-.16,2.24,2.84,3.59,3.07,5.87.35,3.5-2.78,7-5,7.28-1.62.17-5.13-1-5.32-3.92-.22-3.34,4.14-4.7,4.48-6.72.6-3.56-3.07-7-7.27-6.71-3.7.27-12.1,7.69-12.31,11.75-.16,3,6,9.34,8.11,11.19,7.86,6.93,16.21,11.08,14.83,28-2,4.28-7,5.19-10.91,7.55-3,1.8-4.48,7.37-9.52,7.84-2-.69-.84-3.85-1.4-5.32-.76-2-4.77-3-7.27-5-2.05-1.69-2.91-4.34-4.48-5.88-2-1.93-4.89-2.33-7.28-3.64-1.51-.82-2.68-3.7-4.2-3.63-2.46.09-1.61,2.47-2.23,6.43s-3.46,6.88-2.52,11.47c.39,1.88,2.74,3.4,3.91,5.32,1.94,3.17,2.21,6.87,4.2,8.67,1.31,1.2,3.55,1.46,5,2.52,3,2.12,8.19,6.71,9.23,9.24,1.22,2.94.05,6.41.84,9.51.94,3.59,5.62,6.15,2.81,9.8-2.68-.5-5-2.25-7.28-3.64-3.85-2.38-5.62-4.43-8.12-8.4a26.05,26.05,0,0,1-2.24-3.35c-1-2.51-.76-5.35-1.67-8.4-.79-2.62-3.83-6.76-6.17-9-2-1.85-5.44-2.93-5.59-5.59-.21-3.76,1.27-8.17,1.12-12.6,0-.95-.68-1.91-.83-3.07-.3-2.15.21-4.78-.29-6.72s-1.76-3.4-2.52-5a51.9,51.9,0,0,1-2.23-5.32c-1.14-3.24-2.41-9.48-5-9.8-2.8-.34-5.58,5.26-9.23,5.32-1.88,0-4.39-1.47-4.76-3.36-.35-1.72.88-3.45.84-5.31-.11-3.76-2.77-5.21-4.76-7.84-.81-1.07-1-2.57-1.69-3.36-1.27-1.52-3.7-2.37-5.31-3.91a22.51,22.51,0,0,1-3.92-5c-1.08-2.19-1.43-5-3.07-5.32s-3.4,2-5,2.52a46.6,46.6,0,0,1-7.56,1.4c-5.61.39-10.17-1.11-9.51,5.6-.87,3-4,3-6.16,4.47-2.68,1.82-4.63,5.48-7.55,8.39-1.43,1.43-3.48,2.32-4.76,3.64-1.07,1.11-1.4,2.87-2.52,3.92-3,2.83-7.47,3.06-9.51,7-.12,4.65,2.2,8.17,1.68,12.59-.24,2-1.75,3.8-2,5.88-.17,1.78.74,3.69.29,5.59-.25,1-1.38,1.56-2.24,2.8s-1.09,2.6-1.67,3.36c-1,1.21-2.5,2-3.37,3.08-1.42,1.68-1.72,2.88-3.08,3.08-6.13.88-7.64-10.78-10.35-15.67-1.25-2.25-3.79-4.28-5-7-1.43-3.14-1.87-7.07-3.92-10.63-1.74-3-4.14-6.09-5.31-9.24-1-2.66-1.86-6-2.8-8.95a47.92,47.92,0,0,1-2.24-9.52c-.24-3.63.7-5.87-2.24-7.27-2.7.63-3.9,3.35-7,3.35s-11-5.17-8.66-9.79c-2-2.77-6.88-4.29-10.64-7.56-2.15-1.87-4.1-6.33-7.83-6.71-1-.1-2.38.47-3.37.56-2.36.2-6.56-.21-9.23,0-3.36.27-7.51,1-11.76.56-2.73-.3-6.13-.83-9-1.12-3.58-.37-8.34-1.21-10.35-3.08-1.24-1.14-1.74-4.81-3.92-5.31-2.6-.6-4,1.4-6.43,1.95-5.13,1.18-9.42-1.05-12.88-3.35-2.46-1.64-4.7-2.48-6.44-3.64-4.25-2.85-5-11.41-11.47-11.48-2.25,0-5.82,1.39-6.16,3.92-.22,1.78,2.13,5.09,3.08,6.44,3.14,4.42,8.91,6.09,10.64,12,1.16.45,3.52-1,4.75.28,1.09,2.55,0,7.29,2.52,8.4,11.63,1.92,15-4.46,20.15-9,3,2,2,3.7,3.08,5.87a9.24,9.24,0,0,0,4.75,4.77c1.41.53,3.21,0,5.33.83,1.32.5,6.83,5.73,7,7.56.14,1.65-3.63,7.25-4.77,8.67s-2.83,2.11-3.36,3.36c-.39,1-.27,3-.56,3.64-.51,1.12-3,2.57-4.48,3.91a56,56,0,0,1-4.75,3.64c-1.77,1.36-2.87,3.23-4.76,3.93-3.72,1.37-7.26.78-10.35,2.79-2,1.32-2,4.29-4.47,5.88s-6.94,1.67-10.65,3.36c-2.38,1.08-3.81,3.18-5.86,3.91-.84.3-1.9.05-2.81.29-1.86.47-3.57,1.79-5.32,2.23-1.38.35-2.84.18-4.2.57-4.31,1.24-8.26,5.62-12.59,3.07-2-4.71-2.37-10.65-4.75-14.83-1.22-2.14-3.61-2.79-4.48-5-.12-1.8,2.05-1.3,2.24-2.79-.72-3-3.57-4.44-5.32-7-.85-1.25-1.25-3-2.24-4.47-3.33-4.85-9.91-7.38-11.19-13.43-.35-1.65.05-2.94-.28-4.2a15.9,15.9,0,0,0-3.36-5.87c-1.07-1.25-3.25-2.09-4.47-3.92-.82-1.21-1-2.92-1.69-4.2a46.27,46.27,0,0,0-11.19-13.43c-2.28.33-4.73.48-5.87,2a43.12,43.12,0,0,0,4.75,9.79c1.71,2.8,4.14,5.81,5.32,9,.44,1.16.36,2.69.84,3.91,1.76,4.44,7.29,5.8,8.39,10.92.75,3.43-.16,5.8.84,9.23s5.83,5.24,7.84,8.39c1.64,2.58,1.66,6.23,2.8,8.68,1.67,3.59,6.36,5.15,9.79,7.56,3.08,2.17,5.29,5.51,7.83,7.83,1.5,1.36,3.56,1.61,3.92,3.08.48,1.9-.79,2.53-1.12,4.19,2.15,2.24,4.24,6.38,7.84,6.72,1.48.14,3.34-1.35,5.6-1.68,1.13-.16,2.4.18,3.35,0,1.49-.27,2.79-1.6,4.49-2,2.86-.61,6.17-.36,9.79-.84,3.42-.44,5.77-3.33,8.39-2.51,2.88,3.16.82,6.74,0,9.79-.28,1.08-.28,2.19-.55,3.08-1.51,5-5.47,8.67-7.29,13.15-.55,1.37-.46,3.06-1.1,4.48-2.09,4.48-6.43,8.91-9.81,12.59a55.76,55.76,0,0,1-5.59,5.6c-2,1.65-4.46,2.55-6.72,4.19A60.39,60.39,0,0,0,834.07,566c-1.23,1.68-1.81,3.62-3.08,5-1.83,2-4.65,3-6.16,5-1.19,1.57-2,4.43-3.36,7.27-1.53,3.2-4.75,5.36-4.19,9.79.21,1.7,1.73,2.75,2.24,4.48.87,3,.2,5.49-.29,8.67,1.59,3.84,2.73,8.11,5.6,10.64.35,5.66-.47,11.16,0,16,.3,3,1.49,5.3.28,8.11-1.06,2.48-5.12,6.84-7.55,8.4-2.64,1.7-6.69,2.14-9.52,4.2-2,1.43-3.6,3.93-5.6,5.6-3.29,2.76-7.82,5.33-8.11,8.12-.17,1.6,1.27,4,1.68,5.59,1.09,4.13,2.15,10.07.28,14.55-2,4.84-12.29,3.83-13.43,9-.35,1.55.68,2.8.56,4.48a38.15,38.15,0,0,1-2.8,8.11c-1.24,2.32-4,3.36-5.88,5.32-2.29,2.48-3.45,6.07-5.88,8.67a83.36,83.36,0,0,1-12,10.36,35.22,35.22,0,0,1-16.22,5.88c-3.4.24-7.05-.8-10.64-.28-1.31.18-2.74,1.39-4.48,1.68-1,.16-2-.18-3.07,0-1.76.29-3.41,1.69-5,1.68-3.63,0-8.28-4.37-8.4-8.67,0-1.66,1.42-3.24,1.4-4.77,0-1.78-2.22-4-3.92-7.27s-2.27-6.67-3.91-9.23c-1.74-2.72-4-4-5.32-6.16-2.58-4.3-2.77-9.4-3.64-14.56-.28-1.68-1.43-3.5-1.68-5.59-.3-2.57.31-5.43-.27-7.56-.46-1.64-2.27-3.3-3.37-5.32-2-3.62-3.35-8.37-5-11.18-1.58-2.65-4.75-5.4-5-8.4a41.94,41.94,0,0,1,.56-7.83c.3-2,1.76-3.53,2.24-5.6.32-1.37-.06-3,.28-4.47,1.42-6.41,8.48-8.74,7.56-16.52-.4-3.3-2.73-4.93-3.08-8.68-.17-1.75.87-3.29.84-5-.05-2.36-2.05-5.87-3.08-8.11-2.84-6.17-4.58-11.82-8.67-16.51-2.24-2.55-5.16-4.36-7-6.72-1.51-1.92-3.34-5.52-3.36-7s1.23-2.6,1.68-4.2c.58-2.06.63-6,1.4-9.24.35-1.49,2-5.12,1.68-7.55s-3.77-6.83-6.72-7.55c-3.91-1-7.93,1.25-12.87.84C645.41,536.68,645.72,529.64,639.58,528.74ZM794.33,628.92c1.3-2,2.92-7.83,0-9.23h-.56C792.52,622,791.2,627.62,794.33,628.92Zm-3.92-58.49c1-1.93,3.17-4,2.8-6.43-.81-5.39-10.89-2.73-12,1.12-.77,2.59.46,4.65-.56,7.28,1.1,2.07,3.86,2.48,7.27,2.23C789.78,573.81,789.55,572.21,790.41,570.43Zm-17.06,28.84c1.1-2.06-1.77-3.4-2.24-5.61-.56-2.58.62-5.61-1.69-7h-.83C766.56,591.25,769.43,598.82,773.35,599.27ZM964.19,321.38c-1.05-2.11-4.08.62-2.79,2.52C963.29,324,964,322.93,964.19,321.38ZM899,332.86c4.54-.88,0-8.13-3.36-7.28C891.17,326.69,895.9,333.45,899,332.86ZM878.28,369c1.4-9.7-6.16-10.43-7.55-17.35.64.09.31-.8.84-.84,1.84-.88,4.62,1.42,5.59-.83,0-3.31-4.18-5.79-8.4-4.2-1.21-.83-1.37-2.72-1.67-4.48-3.17-1.88-11-6-10.92-9.79.09-3.11,4.11-4.86,8.68-4.76,1.93-1.46.69-5.95-1.12-7-7.23-1.59-11.09-.52-15.67,2.79-2.2,1.59-4.65,2.69-5.88,3.64s-2.64,3.28-2.52,4.48c.18,1.73,2.66,2.75,3.64,5,.51,1.18.4,2.65.84,3.64,1.23,2.69,4.36,4.44,6.72,6.71,1.67,1.6,6.34,5.08,6.44,7,.08,1.6-1.44,1.95-2,3.64s-1.13,5.56-.84,7c.62,3.07,3.8,3.18,6.71,4.48s5.68,3.56,8.68,3.63C873.09,371.84,876.5,370.81,878.28,369Zm-65.76-20.14c7.59-1.37,4.12-7.78.28-10.07-2.92-1.74-6.4-3.25-9.8-5.33-2-1.2-9.46-3.46-9.51-5.87,0-2.63,5.58-3.49,3.36-8.12-3.83-.93-12.94.54-12.31,4.76.36,2.44,3.25,1.09,3.91,3.64-2.74,1-6.07,3.53-9,3.08-3.43-.54-4.31-4.75-6.15-7.28-2.67.09-4.42-2.58-7.56-2.24s-5,5.14-6.72,7.56c-.89,1.27-2.31,1.93-2.8,3.08-.29.69,0,1.79-.27,2.79-1,3.11-3.66,4.25-3.37,7,.26,2.42,2.9,3.51,3.09,5.6-.19,2.15-3.64,1-3.36,3.64,5,4.13,5.28-1.95,7.83-2.8,2-.69,6.07.56,8.67,0,2.1-.46,3.76-2.46,6.16-3.36a17.17,17.17,0,0,1,5.32-1.12c8.9-.37,14.65,5.42,22.39,5.59A60.16,60.16,0,0,0,812.52,348.81Zm-17.91,33c.15-3-1.15-5.27-1.4-9.51-5.17-3.12-9,2.89-14.27,2.23-3.22-.4-5.53-4.16-9-3.63-1.89.28-2.82,2.72-4.77,3.07-4,.74-5.82-3.2-10.07-1.67-6-4.57-8.67-12-10.07-20.43-3.27-4.29-8.25-.8-10.63,1.95-1.48,0-3.31-.81-3.64.84-1.1,5.18,7.32,5.73,7.27,9.24,0,2.28-3.28,2.07-4.75,3.63s-.52,3.14-2.52,4.2c-5.52.67-7.35-2.35-7.28-7.27-2.38-3.62-5.39-6.25-7.55-9.24a11.39,11.39,0,0,1-2.24-4.48c-.2-1.3.62-3,.28-4.47-.61-2.67-5.58-4.68-8.68-6.15-3.3-1.58-7.44-3.07-9.79-5-1.66-1.4-2.44-3.83-3.91-4.76-1.26-.78-2.81-.62-3.93-1.4-1.53-1.07-1.28-2.86-3.35-3.36-1.06-.39-2.68,1-3.36,2-1.36,6.11,3.6,6.53,5.87,9.23,1.56,1.86,2.34,4.66,3.92,5.88s4,1.07,6.16,2c1.5.61,2.47,2.48,3.91,3.35,2.68,1.63,7,1.91,7.28,5-1.66,1.13-5.42-1.64-6.71,1.13-.33,1.81,1.44,2.75,1.4,4.47-.07,2.76-3.13,5.77-5.88,5.32-.28-1.64,1.46-3,1.4-4.76-.12-3.56-7.28-9-10.91-10.63-1.71-.77-3.78-.81-5.32-1.68-2.75-1.55-7.56-5.35-9.24-7.55-2-2.66-3.71-7.56-8.11-7.28-1.8.11-3.28,1.75-4.76,2.52a40.89,40.89,0,0,0-4.2,2.23c-1.63,1.08-3,2.18-4.48,2.24-3.51.15-6.49-2.61-9.51-2-1,.22-1.86,1.13-3.08,2.25,0,1.63.49,2.67.29,4.47-.92,1.57-3.62,1.47-5.6,2.52-2.9,1.53-5.48,4.66-7.84,7-1.52,1.49-2.89,2.73-3.08,3.91-.15.93.78,2.68.57,3.92s-2.79,4.15-4.48,5.32c-1,.68-2.31.77-3.36,1.4-2.21,1.3-3.19,3-5,3.35-4.89.91-13.78-1-13.71,4.2,0,3.46,4.72,3.48,7.56,3.36,4-.16,7.32.84,9.51.28,1.51-.38,3.16-2.08,4.75-2.8,1-.45,2.05-.46,2.8-.84,1.68-.84,2.62-2.2,3.92-2.8a35.06,35.06,0,0,1,10.07-2.24c3.78-.22,7.72.39,12.6,0,1.73-.13,3.45-1.25,5.32-1.4,3-.24,7.05,1.2,9.51,1.13,1.7-.06,3.6-1.71,5.59-1.69,2.26,0,4.63,1.64,5,3.09.24.82-.47,2.12-.28,3.35.33,2,2.07,2.88,2,4.2-.15,1.75-4.52,4.09-3.93,6.16.39,1.32,3.52,2.71,5,3.63a18.31,18.31,0,0,0,6.16,2.52c1.58.18,3-.44,4.48-.28a22,22,0,0,1,7.83,2.8c2.63,1.85,2.27,4.82,5.32,5.87,1.3.46,3.64.2,5.31.57,4.08.88,7.1,4.26,10.08,3.91,4.68-.54,2.55-5,3.08-8.11,1.19-7.14,15.15-6.82,17.91-2,2,.54,3.83.08,6.15.84,1.34.44,2.35,1.91,3.64,2.24,1,.25,2.39-.14,3.64,0,5.36.61,10.22,4.6,14.83,3.91,2.93-.43,5.05-3.18,7.83-3.35,5.36-.33,8.78,4,14.56,2,4.25-1.49,3.3-5.89,4.75-10.35C792.55,386.28,794.49,384.17,794.61,381.83Zm301.66-95.43c1.11-3.56-.61-7.16-2.8-9.51-3.23.56-.89,3.91-1.11,5.88-.32,2.78-3.27,4.71-3.09,7.55-1.07,1.26-2.91,1.76-3.07,3.92,1.78,1.23,2.56-1,3.92-2.24C1092.26,290,1095.53,288.8,1096.27,286.4ZM1023,189.3c-3.08,0-4.25,1.22-6.16,2.24-1,.56-3.19.87-2.51,2.52C1017,193.73,1022.31,192.52,1023,189.3ZM904.87,223.72c6.58,1.53,9.66-5.89,5.31-10.08-1-1-4.45-1.35-5.87-3.63-1.71-2.73-1.47-6.39-5.6-5.59,0,.32,0,.79-.28.83-.39,6.12,8.52,7.66,8.39,12.59C906.76,220.43,904,220.7,904.87,223.72Z" transform="translate(-16.38 -178.32)"/><path class="cls-1" d="M812.8,213.09c-.82-3,4.92-2.54,3.92.28C815.82,214.21,813.37,214.14,812.8,213.09Z" transform="translate(-16.38 -178.32)"/><path class="cls-1" d="M778.38,380.43c.13-2.31,5.4-3.16,6.43-1.12C784.47,381.56,779.47,383.11,778.38,380.43Z" transform="translate(-16.38 -178.32)"/><path class="cls-1" d="M682.4,365.32c2.92-2.36,9.41-.76,13.43-.84-.75,2.14-.87,4.92-2.52,6.15C688.72,369.81,684.45,368.68,682.4,365.32Z" transform="translate(-16.38 -178.32)"/><path class="cls-1" d="M662,350.49c3.84-4,7.88-1.9,6.44,5.87-.92,2.32-4.92,5.41-6.72,2C662.3,355.61,662,353.61,662,350.49Z" transform="translate(-16.38 -178.32)"/><path class="cls-1" d="M667.57,341.53a3.72,3.72,0,0,1-2,4.2C661.92,345.08,664.73,338.46,667.57,341.53Z" transform="translate(-16.38 -178.32)"/><path class="cls-1" d="M613.28,284.73c.33-1.6-.92-3.59-2.52-4.48-.92-.52-2.33-.28-3.36-.84-2.73-1.5-3.72-4.63-5.31-5.32.2-3.07-.84-5.28,0-7.28.51-1.21,4.18-4.62,6.15-5.31,2.45-.86,5-.09,6.44-2a1.8,1.8,0,0,1,1.4.28c0,1.76-1.5,2.05-1.68,3.64.34,2.54,4.82,1,5.31,3.35-.42,2.62-2.78,3.13-2.8,5,0,1.66,3.4,4.81,5,7,1.23,1.62,3.38,2.82,4.48,4.48,1,1.45,1.18,3.17,2,3.91,1.47,1.39,4.79,1.63,5,3.64.32,2.67-3.32,3.73-2.8,6.71-3.84,3-10.25,1.46-16.51,2.25-2.84.36-6,3.17-9,.84-.69-1.88,2.49-2.14,2.8-3.92-.22-1.65-2.31-1.42-2.8-2.8.82-2.17,3.35-2.62,3.08-5.88C609.8,286.38,612.81,287,613.28,284.73Z" transform="translate(-16.38 -178.32)"/><path class="cls-1" d="M592.29,278c3.74-2.29,10.27-.54,10.63,2.24.28,2.1-2,2.4-2.8,4.75-.72,2.14.15,4.69-.83,6.16-.85,1.28-3.18,1.21-4.76,1.68-3.52,1.05-10.32,5.19-13.15.56.41-2.48,2.81-3,3.64-5,0-1.62-1.68-2.48-1.4-4.2.34-2.11,1.93-1.39,4.19-2.24C589.46,281.3,590.17,279.31,592.29,278Z" transform="translate(-16.38 -178.32)"/><path class="cls-1" d="M401.17,217.28c.58,2.49-7.37,5.74-8.12,2.53C392.44,217.23,399.14,214,401.17,217.28Z" transform="translate(-16.38 -178.32)"/><path class="cls-1" d="M391.93,848h-4.2A6.56,6.56,0,0,1,391.93,848Z" transform="translate(-16.38 -178.32)"/><path class="cls-1" d="M379.34,197.42a1.35,1.35,0,0,1,1.68,0c-.28.66-.5,1.37-1.68,1.12Z" transform="translate(-16.38 -178.32)"/><path class="cls-1" d="M354.43,241.91c.06,1.54-5.56,4.09-6.16,1.12a2.2,2.2,0,0,1,1.13-2.24C350.89,239.88,354.38,240.4,354.43,241.91Z" transform="translate(-16.38 -178.32)"/><path class="cls-1" d="M238,501.87c-.15.42-.42.71-.56,1.13C234.49,502.89,237.17,499.09,238,501.87Z" transform="translate(-16.38 -178.32)"/><path class="cls-1" d="M124.4,306.27c2-1.14,3.85,1.73,2.53,3.08C124.76,309.77,124.21,307.3,124.4,306.27Z" transform="translate(-16.38 -178.32)"/><path class="cls-1" d="M429.42,316.63c-1.3-.33-3.08-.27-4.75-.56-1.43-.26-3.13-.68-4.47-.84-3.46-.41-7.2.59-9.24-1.4a90.91,90.91,0,0,1,12-12.6c1.28-1.13,4-1.91,3.36-4.19-2.38-2.1-5.31.12-7.55,1.4s-5.18,3.24-7.84,3.63c-4.63.69-10.77-1.35-14.55,1.12-.52,2.11,4.3,1.3,3.63,4.48-1.85.31-3.6.45-5-.84s-.56-2.93-1.4-3.64c-1.43-1.19-6.83-1.51-9.24-1.12-2.93.49-5.53,2.24-5.87,4.76,3.53,1.65,9.35-1.7,10.63,2.52-1.93,3.49-6.49,5.4-5.88,10.07.24,1.8,2.38,4.21,3.92,4.48s2.42-1.26,3.92-1.12,1.22,2,3.08,1.68c2.69-1.15,4.18-4.93,7.27-4.75,3.7,4.49-3.34,6.68-7.27,8.11-4.48,1.62-10.3,2.49-13.72,3.92-1.78.75-8.55,7.29-9.51,2.23-.68-3.64,3.35-2.59,4.2-5.59-4.33-.84-8.37,1.86-12.31,3.36-5.63,2.13-15.16,3.48-16.51,9.79-.27,1.27.55,3.64-.28,4.48-.67.68-4.69.8-6.44,1.4-2.7.92-5.05,2.9-6.72,3.35-1.26.35-3.12.25-3.91.57-2.23.86-3.05,3.87-5.6,5.87-1.05.82-3.36,1.41-4.2,2.24-1.45,1.44-1.64,5.05-4.19,5.6-1.63.14-3-1.23-4.49-.28-.18,3.56,1.26,8.42-.27,12-3.31,2.7-7,4.61-11.19,7-2.35,1.32-4.45,1.66-7.28,3.08-2,1-3.85,3.39-6.16,4.75-5.34,3.15-11.79,6.87-11.75,14.84,0,1.72.9,3.58,1.12,5.59.13,1.19-.14,2.35,0,3.64.33,2.93,2.45,6.65,0,8.67-3.77-1.55-8.56-2.07-11.2-4.75-.72-2.77,1.46-5,1.13-7.56-.27-2-3.11-5.62-4.77-5.88s-3.27,1.54-5,1.4c-2.09-.16-4-3-6.72-3.36-3.93-.45-6.83.9-11.19.29-4.22,2.25-5.46,6.27-10.63,5.87-1.82-.13-3.49-1.53-5.6-2-2.28-.47-5.74-1.28-8.12-1.11-4.76.31-8.21,3.74-12.3,5.87-3.62,1.88-8.73,4.22-9.8,8.12-.59,2.1-.09,5-.84,7a34.58,34.58,0,0,1-2.24,3.64c-3.14,5.73-5.74,13.3-3.36,21.55.36,1.22,3.47,8.12,4.76,9.51,1.44,1.55,5.69,3.87,8.11,3.92,2.05,0,4.45-1,6.44-1.4,2.3-.41,5.19-.45,7.28-1.12,6.05-1.94,4.85-10.12,10.91-12.88,2.64-1.19,5.7-1.43,10.35-1.67a6.24,6.24,0,0,1,2,5.31c-.15,1.43-1.51,2.72-2.24,4.76-.63,1.79-.77,3.88-1.39,5.32-.84,1.89-2.7,3.27-3.36,5-.44,1.15-.2,2.58-.56,3.63-.64,1.85-3.11,3.15-2,5,6,2.38,13.24-.68,18.47.28,2.2.4,6.75,3,6.71,6.44,0,2.54-2,4.21-2.24,7-.34,3.5-1.8,7.79-2,10.62-.24,4.65,6.82,12.66,11.76,12.6,5.32-.07,8.42-5.3,14.83-2.52,2.13.92,4.37,4.37,6.72,4.2,1.94-.14,4.86-3.53,6.15-5.88,1.58-2.86,1.69-5.27,4.48-6.71,3-1.56,5.39-.81,9.23-2.24a22.76,22.76,0,0,0,4.76-2.8c1.36-.94,2.78-3.38,4.48-1.68,2.23,2.23-2.74,3.49-.84,5.87,3.88,2.06,5.86-3.82,8.68-3.91.89,0,4,1.75,5.59,2.8,2.19,1.43,2.93,3.45,5.32,3.91,1.53.31,4-.58,6.15-.28,2.86.41,4.56,2.86,6.72,2.8,2.64-.07,3.9-2.94,6.16-3.36,4.94-.9,6.77.55,8.95,3.64,2.44.43,2.52-2.82,4.76-1.67-1.23,2.43.41,3.56,1.39,5.59.64,1.31.53,2.24,1.13,2.8,1.33,1.27,3.91,1.27,5.87,2.52s3.23,3.71,5.6,6.44,6.53,5.66,9.79,5.87c3.08.2,5.58-.87,8.12-.56,5.79.71,9.39,3.6,13.43,6.72,2.27,1.74,4.31,3,5,5,.5,1.46.26,3.41.84,5,1.23,3.48,6.31,5.16,4.48,11.19.84,1.77,2.73,2.41,4.75,3.64,1.63,1,3,3.08,4.76,3.36,1.14.18,2.37-.34,3.36-.28,3.18.22,5.36,1.45,8.12,2.52,1.71.66,3.9.92,5,1.69,1.42.95,1.61,4.17,3.36,5,1.14.56,3.69-.21,5.6,0,3,.36,7.08,2.19,9.79,2.25,1.65,0,3-.68,4.47-.57,6.86.53,10.74,8.73,17.36,11.2,2.05.77,5.3.23,6.71.84,2.48,1.07,4.57,8.66,4.76,12,.56,10.17-7.25,13.44-11.75,20.16-.94,1.41-1.47,3.63-2.8,5.6-2.69,4-5.68,4.77-5.32,12,.1,2,1.12,3.94,1.12,6.15a40.08,40.08,0,0,1-.84,8.68c-.46,1.86-2,3.36-2.24,5s.5,3,.28,4.48c-.24,1.61-1.85,3.89-3.08,6.15-2.59,4.78-3.15,10.39-8.39,12.31-3.08,1.13-7.26.5-10.63,1.68-1.37.48-3.09,1.74-4.76,2.52-4.87,2.26-11.81,5.32-13.16,10.35-1.19,4.48,1.67,8.05.85,13.16a45.15,45.15,0,0,1-3.36,4.75c-1.21,1.59-1.81,3.46-3.08,5-1.68,2.11-4.3,3-5.32,5.88-.34,1-.12,2.11-.55,3.63-.17.57-1.2,1.44-1.69,2.52s-.43,2.27-.84,3.09c-1.28,2.58-5.08,8.45-7.83,9.23-5.81,1.63-11.94-2.47-15.95-1.69.58,2.81,2.61,2.52,3.92,4.48.76,1.16,1.18,2.7,2.23,3.92,1.26,1.45,2.37,2,2.52,3.64.32,3.45-2.36,6.92-4.19,8.12s-5.16,1.73-8.12,2.23c-2.07.35-7.42.37-8.4,1.69-1.44,1.94.77,6.74-.27,8.67-2.09,4.09-7.72-.11-10.64,1.12a5.35,5.35,0,0,0,2.24,5.31c1.76,1,4.43-.31,5.6,1.68-.57,2.79-3.57,3.15-4.2,5.88.08,2.67.9,3.37.56,5-.73,3.6-6.32,3.45-6.16,7.28.24,5.73,11,3.39,11.2,9,.11,3.38-3.08,3.42-4.2,6.71-.6,1.76.35,2.17,0,3.64-.47,2-2.8,2.56-2.8,4.75,0,2.68,3.92,5.63,5.87,7.84s4.38,5.26,7,6.72c3.93,2.17,9.78,1.68,11.48,5.6-.54,2.35-2.81,3-5,3.63h-.56a6.56,6.56,0,0,0-4.2,0h-3.91c-3.75-1.73-8.29-2.84-12.88-4.47-1.65-.59-3.52-2-5.31-2.79-1.35-.62-2.87-.86-3.92-1.41-2.41-1.26-5.13-5.36-7.56-7-1.48-1-3.79-1.52-4.75-2.53s-1.43-3-2.24-4.19-2.57-2.23-3.64-3.64c-2.33-3.09-5.3-7.24-5.32-9.52s2.14-3.76,1.4-5.86-5-1.56-5.6-3.93c-.37-1.43,1.24-3.84,1.12-5.87-.06-1.18-2.27-2.78-1.4-4.49,1-2,2.9.17,4.48-.83-1.18-4,.09-10.54-3.92-11.76-2.06,1.74,2.11,5.65-1.4,6.72-3.38-1.5-2.6-6-3.36-9.23-.49-2.17-1.56-4.11-1.67-6.44-.06-1.22.48-2.64.28-3.91-.6-3.77-4.8-6.86-5-10.64-.12-1.82,1.11-3.36,1.4-5.32.19-1.32-.19-2.8,0-4.19.24-1.78,1.23-3.42,1.4-5a44.19,44.19,0,0,0-.56-10.92c-.7-3.23-3.26-6-3.64-9.5-.14-1.28.42-3.41.28-5s-1-3-1.12-4.77.4-3.11.56-5c.3-3.51-.68-7.43-.56-10.92,0-1,.58-1.79.56-2.79,0-2.89-1-5.8-1.12-8.68-.22-5.31.59-9.08-.28-14-.65-3.72-1.45-9.41-2.8-11.75-1.49-2.6-7.38-7-10.35-8.68-2-1.09-4.3-1.46-6.43-2.52-4.56-2.23-13.4-7-15.4-11.46-.58-1.31-.5-3-1.12-4.49-1.22-2.87-3.78-5.35-5.6-8.12-3.45-5.28-6.24-11.89-9.79-17.34-1.8-2.77-3.35-5.91-5.32-8.12-1.15-1.3-4.84-2.51-5.31-4.48-.63-2.58-2.54-6.14-2.24-8.11.4-2.68,5.6-4.84,5.6-7.27,0-2.08-2.78-3.29-3.36-5-1.41-4.28.83-6.79,2.52-10.36.56-1.17,1.1-3.05,1.68-3.91,1-1.54,3.11-2,4.47-3.64.76-.93,1.25-2.88,2.24-4.2,2.13-2.83,5.56-3.89,6.44-6.44.71-2.07,1.13-12.47.28-16-.49-2-2.36-3.68-3.08-5.59-1.26-3.38-1.56-7.07-5-7-2.15,0-3.66,2.42-5,3.92-.33,2-.15,4.14-2.24,4.75-3.18.94-4.4-3.35-8.11-4.47-1.47-.45-3.83-.43-4.75-.84-2.71-1.22-3.59-5.18-6.44-6.72-2.39-1.28-4.43-.84-5.88-2.8-.6-1.35-.13-3.79-.28-5.6-3.06-1.79-5.66-8.48-9.23-10.07-2.37-1.05-6-.95-9-2a33.13,33.13,0,0,0-3.92-1.39c-1.79-.41-3.64-.43-5-1.13-5.54-2.75-8.53-11.66-15.39-11.47-2.93.08-5.74,2.82-8.4,2.8s-7-2.1-10.35-3.64-7.24-2.46-10.08-3.91c-2.28-1.18-3.87-3.32-5.87-4.21-1.54-.68-3.78-.8-5-1.39-1.78-.85-3.65-2.66-5.87-4.2s-4.4-3.7-4.49-5.59c-.09-2.19,2-4.06,2.25-6.17.72-6.66-4.2-11.45-7.28-15.39-2.29-2.92-5-5.4-7.27-8.11a21.28,21.28,0,0,0,0-3.91c-1.74-1.69-3.21-4.19-5-6.72-1.66-2.29-4.9-4.72-5.32-7.28-.51-3.14,1.2-5.9,0-9-2-5.06-9-2.77-8.12,3.93.26,1.84,2.86,4.32,3.64,6.15s.65,4.19,1.4,6.44,2.89,4,3.64,6.44c1.19,3.83,1.15,8,2.24,10.35,1,2.13,4.5,4.14,2.52,6.71-2.65.55-3.67-2.1-5.32-3.64-.92-.85-4.24-2.48-4.75-4.47-.43-1.65,1-3.87.56-5.88-1-4-8.94-4.05-9-8.11,0-2.55,3.34-2.86,3.37-5.32,0-2.7-3.68-5-4.48-7.27-.73-2.1-.85-5.45-1.12-8.4-.26-2.77.08-6-.56-8.12-.58-1.92-3.47-4.57-5.32-5.6-2.45-1.36-4.39-.79-5.59-2.79-1.05-1.75-1.74-5.4-2-7.28-.4-3.36-.09-7-.28-10.63s-.56-7.05,0-10.91c1.38-2.71,3.9-4,5.32-6.72,1-1.87,1.12-4.17,2.23-6.16,2.05-3.65,6.51-7,9.52-10.63,3.23-3.88,6.22-7.6,8.11-12,.68-1.57,2.5-5.06,2.24-7-.37-2.69-5.44-4.91-5-8.12.26-2,3.08-1.95,3.92-3.91a19.54,19.54,0,0,0,.84-5c0-2.7-1.38-5.51-.84-8.39.46-2.46,4.12-3.46,2.24-6.16s-5.21,1.44-7.27-.28c-1.9-1.59.38-3.51.55-6.44.07-1.17-.67-2.49-.55-3.35.17-1.26,2.6-3.36,1.95-4.2-1.51-1.92-3.21-6.78-6.43-8.4-4.11-2.06-8.56-.67-14.27-1.68-3.51-.61-5.17-3.89-8.4-3.63-2,.15-3.13,2.44-5.88,3.63s-6.26.78-9,1.4-4,2.46-6.72,2.24c-2.3-.18-2.32-2.25-5-2.52-1.06-.1-3.07.66-4.76.84-4.32.46-12.13.68-16.51-.28-4-.87-6.48-2.14-10.91-4.2-3.33-1.54-9.51-3.44-9.24-5.87.17-1.57,5.85-3.23,8.11-3.92,3.65-1.11,5.9-2.9,8.68-3.08,1.08-.06,2.49.66,3.92.57s3.2-1.43,5-1.69c3.9-.54,9.41.2,9-3.64-3-2.34-15.07,1.74-15.39-3.35-.19-3.08,4.59-4,8.12-4.76,3.21-.68,8.07-1.82,10.91-1.68,3.19.16,7.4,3.74,9.23-.28.89-2.85-1.08-5.25-1.68-7.56,2.38-3.28,6.75-2.87,10.08-3.35A41.08,41.08,0,0,0,83,210.29a41.07,41.07,0,0,1,10.63-2.8c3.8-.49,7.49-1.93,10.92-2.24,2.82-.26,5.41,0,8.11-.56,2.4-.46,4.93-1.79,7.56-1.67,1.76.07,3.27,1.36,5,1.67s3.57-.08,5.33.28c1.35.29,2.56,1.2,3.91,1.4,2.12.32,4.4-.29,6.44,0,1.88.27,3.48,1.44,5.31,1.68,4.31.56,9.25-.23,13.44.56,1.59.3,3,1.08,4.75,1.4s3.44,0,5,.28c2.23.44,4.09,2.55,6.44,2.8,4.33.45,9.19-1.88,13.71-2.24,3.27-.26,6.64.13,10.07-.56,3.13-.63,6.15-1.84,9-2,1.52-.06,2.8.47,4.19.28s3.19-1.93,4.76-1.68c2.08.33,1.72,3,3.92,3.64,2.44-1.26,4.87.09,7.56,0s5-1.29,7.83-.84c5.1.8,12.22,5.79,16.23,3.08,1-.68.77-1.87,1.68-3.64,1.24-2.41,3.67-5.24,3.08-8.68-5.61.1-11,2.84-17.35,3.08-6.46-4,1.72-6.55,6.43-8.39,3.89-1.53,7-4.91,11.76-5.6,3.92-.56,8.22.87,12.87,1.4,2.71.31,5.43-.19,7,.28,2.74.82,4.16,3.55,6.43,4.2,1,.28,2.6.25,3.92.56,2.51.58,4.77,1.91,7.28,0,2,.35,2.2,2.45,4.2,2.8,1.85-1,3.29-3.56,6.15-4.2,1.24-.28,2.55.21,3.91,0,2.29-.37,5.33-3.45,6.72-.56-.57,2-3.62,2.32-5.32,3.92-1.5,1.42-3.82,4.68-3.63,6.15.33,2.67,4.33,1.64,4.47,5-.59,2-2.86,1.08-4.75,2-1.73.8-2.37,2.45-4.2,2.8-5.09,1-9.31-1.28-13.71-1.12-.2,1.91,2.18,3,3.36,3.63,4,2.1,7.24,1.81,12.87,1.69,2.88-.07,6.19.86,8.68-.85,1.56-1.07,1.48-3.44,2.79-4.75,1.59-1.58,5.23-3.18,7.56-2.8,1.27.21,3.06,1.72,3.08,2.8,0,2.54-3.6,1.73-3.64,4.48,2.37,1.42,8.62-1.56,9-3.92.24-1.73-2-2.72-2-4.48.14-2.93,4.12-2.88,3.64-5.88-1.92-1.51-3.93.33-5.88,0-2.74-.46-5.22-3.75-6.43-5.88,1.21-1.5,3.76-.5,5.59-.27,2.06-2.85,5.89-4,11.2-4.48,1.88-.19,4.4-.93,5.32.84.45,2.65-3.92,4.24-3.08,7.28,3.76.94,5-4.14,8.12-6.16a30.18,30.18,0,0,1,5.31-2.24c1.72-.65,3.63-2.28,5-2.24s1.82,1.32,3.36,2c1.37.58,3.18-.4,3.64,1.4-3.25,5.62-15.34,2.39-18.48,8.11.7,3.84-1.89,7.5.29,10.08,1.55,1.84,5.06.59,5.87,2.51,1.09,2.58-3.39,2.58-2.24,5.6,3,1.77,6.49-1.69,9.23-3.07,2.94-1.49,6.66-3.25,7-6.72-1.48-2.84-7-.65-7.83-3.64-.46-1.62,1.69-5.26,2.23-5.87,2.92-3.28,13.11-7.93,20.43-7.28,1.4.12,2.8,1,4.2,1.12,4.81.49,10.49-2.08,14.27,0,3-1.77,6.69.24,10.91-.28,3.26,1.92,2.37,6,7.28,7.83,1.34.5,3,.15,4.76.56,1.3.31,2.71,1.84,4.2,2.53,2.12,1,3.74.74,4.19,2.23s-1.54,2.41-1.39,3.92c1.2,1,.19,2.5.84,3.92,1.2,2.59,4.25,2.4,7.27,3.64,2.12.86,6.64,3.53,6.44,5.59-.14,1.39-4.25,3.82-5.6,4.48-.95.47-5.68,2.75-7.27,2.52-2.65-.39-3.68-5.74-7.28-5.6a3,3,0,0,0-3.08,3.08c-.06,3.68,4.11,3.82,4.2,7,.11,3.8-2.08,4.06-5.32,6.43-2.32-.94-4.27-2.26-7.28-2.52-1.79,2.13,2.94,2.89,1.4,5.6-4.49.95-7.92-1.27-12-2.52-1.28-.39-3.13-.23-4.19-.84-1.59-.92-2.06-3.64-3.37-5-1.51-1.62-4.53-3.93-7-3.91-3.46,0-8.46,4.3-11.2.27,1.9-6.4,10.87-1.65,16.79-3.91,2.21-.84,3-3.17,4.77-4.2,3.61-2.06,9.49-2.35,8.95-6.43-.28-2.06-3.15-2-4.76-3.09-2.19-1.42-3.86-6.46-7-6.71-1.61-.13-2.77,1.24-4.48,1.4-3.62.34-7.65-1.46-10.91,0-1.52.87-.5,2.26-1.68,3.91-1,1.36-3.28,1.74-4.2,3.08-1.08,1.58-.86,3.54-2.24,4.76-2.3,2-7.16,2.36-10.07,3.36-1.3.44-2.94,2-4.2,2-2.31,0-3.3-3.11-5.88-2-.22,3,3.17,4.21,5.32,5.59,2.32,1.5,4.77,3,5.59,5.6-2.27,4.83-5.91-.25-9.51-.27-4,0-9.77,7.56-13.15,1.39.84-3.26,4.44-3.77,5.31-7-3.95.67-7.39,4-12,5-1.95.43-3.85.32-5.6.83-3.35,1-5.68,3.46-9.23,4.76-1.38.51-3,.36-4.48.84a75.34,75.34,0,0,0-10.91,5c-3.56,1.93-7.58,4-9.79,5.88-1.2,1-4.3,4.7-4.2,5.87.14,1.67,3.28,2.22,3.36,3.92-.07,1-1.82,3.26-.56,4.76s3.44.26,5.87.55c4.28.53,7.08,4.07,10.35,5.88a28.94,28.94,0,0,0,9,3.36c3.84.48,8.14-1.12,8.67,2s-3.62,4-3.92,5.88c2.07,2.73-1.41,4-1.4,6.43,0,1.95,2.39,4.86,4.47,5,2.82.24,7-2.78,8.12-5.6,1.4-3.36.8-7.91,3.36-10.35,13,.36,24.07-5.93,23.23-19.31-.09-1.32-.84-3-.56-4.48.41-2.16,4.13-4,3.63-6.71,3.66-1.13,3.5-7,7.28-7.84,3.17-.71,6.75,2.24,10.91,2,1.36-.09,3.12-1.31,4.48-1.12,2.74.38,4.38,3.75,6.44,5.32,1.82,1.39,3.73.94,4.2,2.79-.55,3.14-2.75,3.22-2.53,6.16a6,6,0,0,0,4.2,4.76c2,.38,5-.71,7-1.68,3.74-1.77,6.95-7.12,10.07-6.44,2.47.54,4.4,8.38,4.76,11.2.39,3-.41,5.33-.28,8.11.37,4.73,6.31,4.24,9.23,6.72.89.75,1.23,2.66,2,3.64,1.42,1.89,3.14,1.89,3.36,3.91.52,4.84-4.39,5.25-3.93,10.64-1,2.09-3.56,2-3.35,4.75.32,4.42,6.67,1,8.39,4.48.93,1.86-.15,3.23-.84,5.88,2.17,2.58,2.16,6.71-1.67,6.72C432.42,319.71,431.78,317.2,429.42,316.63Zm-302.49-7.28c1.32-1.35-.56-4.22-2.53-3.08C124.21,307.3,124.76,309.77,126.93,309.35Zm195.32,25.46c-1.16-1.13-5-.81-7.56-.55-1.83.18-4,.57-4.2,1.95C313.41,337.55,321.34,338.51,322.25,334.81Zm-14.55-4.75a3.44,3.44,0,0,0-1.12-5.88c-.92-.24-2.14.68-3.64.56s-3.16-1.56-4.47-1.68a6.7,6.7,0,0,0-5.32,2c-.09,1.67,1.23,1.94,1.12,3.64-2.72,1.94-1.28,8.44,1.4,8.68,2.84.25,4.31-7.19,8.11-7.84C305.16,329.26,305.87,330.28,307.7,330.06Zm-3.92,11.19c-4-1.41-7.65,1-10.91,1.4-1.94.26-5.48-.39-5,2.52.36,2.37,4,1.51,6.16.84C298.41,344.61,301.2,343.41,303.78,341.25ZM291.47,320c5.58-2.37-1.1-9.69-3.64-10.35-4.53-1.19-11,3.33-16.23,4.76-3,.8-5.77.87-6.44,3.36,2.65,4.38,7.89-1,11.75-.28,2,.34,3.11,3,5,3.35A57.6,57.6,0,0,0,291.47,320Zm-3.92,4.48c-1.16-1.36-7.44.16-9.24,1.4-1.23.86-2.07,2.94-3.35,4.48s-2.8,2.82-3.92,4.2-6.68,9.42-2.24,10.35c1.9.4,5.79-3.53,6.16-5,1.26-5.13,3.57-8.79,7.55-11.19C284.81,327.27,287.17,327.44,287.55,324.46Zm-35-31.34c3.12-.11,5.24-9.34,0-8.12C249.06,285.82,248.22,293.28,252.57,293.12ZM237.46,503c.14-.42.41-.71.56-1.13C237.17,499.09,234.49,502.89,237.46,503ZM119.09,268.78c.06-.53-.32-.62-.28-1.13-.85,0-1.84-.16-1.68.85A1.17,1.17,0,0,0,119.09,268.78ZM413.2,224.84c1.38.17,2.15-.27,2-1.68C413.91,222.29,412.1,223.44,413.2,224.84ZM381,197.42a1.35,1.35,0,0,0-1.68,0v1.12C380.52,198.79,380.74,198.08,381,197.42ZM274.68,219c.93-.61,2.36-1.42,1.68-2.8-3.09-1.45-8.31-.35-12.87-.84-2.59-3.66-6.91-4.22-7.28,1.68C261.42,221.23,269.3,215,274.68,219Zm-50.09,28.82c1.59-.55,3.79-.27,4.19-2-1.3-1.05-2.65-2.46-4.19-2.52-2-.07-3,1.72-5,2.8-2.37,1.25-5.65,1.55-5.88,3.64C218,250.6,221.91,248.71,224.59,247.79Zm-1.4-20.15c1.79-.31,3.62.5,4.76-1.12-1.34-6.16-9.86-2.4-14.83-2-1.05,1.75-2.45,3.15-2.8,5.6C214.18,231.13,218.83,228.38,223.19,227.64Zm83.95,286c2.21-.36,1.57-5.44-1.12-4.2C304,510.37,305.05,514,307.14,513.63Z" transform="translate(-16.38 -178.32)"/><path class="cls-1" d="M118.81,267.65c0,.51.34.6.28,1.13a1.17,1.17,0,0,1-2-.28C117,267.49,118,267.65,118.81,267.65Z" transform="translate(-16.38 -178.32)"/><path class="cls-1" d="M110.42,284.17c-.59,1.83-2.21,2.63-3.92,3.35a6.59,6.59,0,0,1-1.4-1.39C105.22,283.47,109,281.51,110.42,284.17Z" transform="translate(-16.38 -178.32)"/>
</svg>
