<?xml version="1.0" encoding="UTF-8" standalone="no"?>
<!DOCTYPE svg PUBLIC "-//W3C//DTD SVG 1.1//EN" "http://www.w3.org/Graphics/SVG/1.1/DTD/svg11.dtd">
<svg width="100%" height="100%" viewBox="0 0 4767 2650" version="1.1" xmlns="http://www.w3.org/2000/svg" xmlns:xlink="http://www.w3.org/1999/xlink" xml:space="preserve" xmlns:serif="http://www.serif.com/" style="fill-rule:evenodd;clip-rule:evenodd;stroke-linejoin:round;stroke-miterlimit:2;">
    <g transform="matrix(1,0,0,1,-31739.6,-29880.7)">
        <g id="Misc">
        </g>
        <g transform="matrix(1,0,0,1,55093,74132.6)">
            <g id="Interviews">
                <g id="Mjoi">
                </g>
            </g>
        </g>
        <g transform="matrix(1,0,0,1,55093,55579.4)">
            <g id="Playlists">
                <g id="_-ArtistTakeover" serif:id="#ArtistTakeover">
                    <g id="Mjoi1" serif:id="Mjoi">
                    </g>
                </g>
            </g>
        </g>
        <g id="Articles" transform="matrix(1,0,0,1,647.82,11354)">
            <g id="_-ThrowbackThursday" serif:id="#ThrowbackThursday">
                <g id="Experimental-Electronic" serif:id="Experimental Electronic">
                </g>
                <g id="Classical-Crossover" serif:id="Classical Crossover">
                </g>
            </g>
        </g>
        <g id="Reviews" transform="matrix(1,0,0,1,2795.11,21463.9)">
            <g id="Lane-8---Friends---Cross-Pollination" serif:id="Lane 8 &amp; Friends - Cross Pollination">
            </g>
            <g id="Girls-of-the-Internet---Familiar-Place" serif:id="Girls of the Internet - Familiar Place">
            </g>
            <g id="Ben-Böhmer---Phases-EP" serif:id="Ben Böhmer - Phases EP">
            </g>
            <g id="TSHA---Sister" serif:id="TSHA - Sister">
            </g>
            <g id="Budakid---Ochre-Tuesday-EP" serif:id="Budakid - Ochre Tuesday EP">
            </g>
            <g id="Glisz---Bloom" serif:id="Glisz - Bloom">
            </g>
            <g id="Mariatti---Patches" serif:id="Mariatti - Patches">
            </g>
            <g id="Dontmesswithjuan---Over-The-Edge" serif:id="Dontmesswithjuan - Over The Edge">
            </g>
            <g id="Howling---Colure" serif:id="Howling - Colure">
            </g>
            <g id="apanorama---Radio-Kodama" serif:id="apanorama - Radio Kodama">
            </g>
            <g id="pølaroit---Sør" serif:id="pølaroit - Sør">
            </g>
            <g id="Atlas-Castle---Titanomachy" serif:id="Atlas Castle - Titanomachy">
            </g>
            <g id="_59-Perlen---By-Far" serif:id="59 Perlen - By Far">
            </g>
            <g id="Shibui-Nigai---Providing-Relief" serif:id="Shibui Nigai - Providing Relief">
            </g>
        </g>
        <g id="Ads" transform="matrix(1,0,0,1,647.82,11354)">
            <g id="Ad---Avertise-on-Redistribute---Purple" serif:id="Ad - Avertise on Redistribute - Purple">
                <g id="Ad---Avertise-on-Redistribute---Purple---Story" serif:id="Ad - Avertise on Redistribute - Purple - Story">
                </g>
                <g id="Ad---Avertise-on-Redistribute---Purple---Post" serif:id="Ad - Avertise on Redistribute - Purple - Post">
                </g>
            </g>
        </g>
        <g id="Social-Media-Assets" serif:id="Social Media Assets">
        </g>
        <g id="Social-Media-Templates" serif:id="Social Media Templates" transform="matrix(1,0,0,1,2795.51,38274.9)">
            <g id="Review-Templates" serif:id="Review Templates">
            </g>
            <g id="Interview-Templates" serif:id="Interview Templates">
            </g>
            <g id="Quote-Templates" serif:id="Quote Templates">
            </g>
        </g>
        <g id="Playlist-Covers" serif:id="Playlist Covers">
        </g>
        <g id="Social-Media-Icons" serif:id="Social Media Icons">
        </g>
        <g id="Headings">
        </g>
        <g transform="matrix(-1.58893,0,0,0.883333,36506.4,29880.7)">
            <g id="Logos">
                <rect id="Plus-Logo---Purple---Black" serif:id="Plus Logo - Purple / Black" x="0" y="0" width="3000" height="3000" style="fill:none;"/>
                <clipPath id="_clip1">
                    <rect id="Plus-Logo---Purple---Black1" serif:id="Plus Logo - Purple / Black" x="0" y="0" width="3000" height="3000"/>
                </clipPath>
                <g clip-path="url(#_clip1)">
                    <g transform="matrix(0.419568,0,0,0.849057,1736.64,226.415)">
                        <g transform="matrix(1.5,0,0,1.33333,-750,-500)">
                            <path d="M500,1779.11L1252.74,2625L500,2625L500,1779.11Z" style="fill:rgb(26,26,26);"/>
                        </g>
                        <g transform="matrix(1.5,0,0,1.33333,-750,-500)">
                            <path d="M2500,2624.87L2499.85,2625L1747.15,2625L500,1223.51L500,377.354L2500,2624.87Z" style="fill:rgb(26,26,26);"/>
                        </g>
                        <g transform="matrix(1.5,0,0,1.33333,-750,-500)">
                            <path d="M992.258,375L1656.25,375C2121.93,375 2500,753.072 2500,1218.75C2500,1445.91 2410.04,1652.22 2263.79,1803.95L1886.6,1380.06C1918.67,1334.38 1937.5,1278.75 1937.5,1218.75C1937.5,1063.52 1811.48,937.5 1656.25,937.5L1492.79,937.5L992.258,375Z" style="fill:rgb(138,50,148);"/>
                        </g>
                    </g>
                    <g transform="matrix(-0.629353,0,0,1.13208,4823.5,-35834.6)">
                        <g transform="matrix(7291.67,0,0,7291.67,4699.86,34462.7)">
                            <path d="M0.372,-0.278C0.332,-0.281 0.281,-0.273 0.24,-0.269C0.24,-0.27 0.239,-0.27 0.239,-0.271C0.243,-0.31 0.243,-0.331 0.249,-0.373C0.247,-0.375 0.244,-0.376 0.244,-0.381C0.241,-0.382 0.237,-0.38 0.235,-0.383C0.234,-0.381 0.231,-0.381 0.23,-0.379C0.228,-0.38 0.227,-0.382 0.224,-0.382C0.214,-0.382 0.214,-0.377 0.204,-0.379C0.199,-0.377 0.197,-0.371 0.19,-0.371C0.18,-0.36 0.185,-0.34 0.18,-0.331C0.181,-0.31 0.176,-0.279 0.176,-0.262C0.122,-0.255 0.074,-0.248 0.015,-0.239C0.013,-0.237 0.011,-0.235 0.009,-0.234C0.009,-0.232 0.01,-0.231 0.01,-0.23C0.008,-0.23 0.007,-0.229 0.006,-0.228C0.013,-0.229 0.008,-0.223 0.008,-0.22C0.013,-0.218 0.012,-0.212 0.015,-0.208C0.014,-0.207 0.014,-0.205 0.012,-0.204C0.02,-0.203 0.017,-0.191 0.018,-0.188C0.025,-0.186 0.028,-0.181 0.032,-0.176C0.065,-0.186 0.11,-0.187 0.146,-0.196C0.143,-0.199 0.149,-0.199 0.152,-0.199C0.152,-0.2 0.152,-0.2 0.153,-0.2C0.153,-0.201 0.154,-0.201 0.154,-0.2L0.153,-0.2C0.153,-0.199 0.153,-0.199 0.152,-0.199C0.153,-0.195 0.147,-0.198 0.146,-0.196C0.146,-0.195 0.146,-0.194 0.147,-0.194C0.154,-0.194 0.169,-0.202 0.173,-0.196C0.172,-0.194 0.173,-0.186 0.169,-0.185C0.173,-0.186 0.173,-0.183 0.174,-0.181C0.17,-0.181 0.174,-0.169 0.169,-0.173C0.17,-0.169 0.169,-0.169 0.17,-0.164L0.166,-0.164C0.166,-0.157 0.17,-0.15 0.165,-0.145C0.168,-0.141 0.167,-0.132 0.163,-0.13C0.165,-0.126 0.168,-0.115 0.162,-0.11C0.164,-0.108 0.166,-0.111 0.166,-0.107C0.162,-0.109 0.165,-0.104 0.163,-0.104C0.163,-0.105 0.162,-0.106 0.161,-0.106C0.161,-0.104 0.161,-0.102 0.162,-0.101C0.163,-0.101 0.163,-0.099 0.162,-0.101C0.16,-0.093 0.168,-0.093 0.162,-0.084C0.166,-0.085 0.165,-0.079 0.164,-0.077C0.164,-0.069 0.164,-0.059 0.161,-0.054C0.161,-0.049 0.168,-0.051 0.166,-0.045C0.168,-0.045 0.168,-0.047 0.171,-0.046C0.171,-0.044 0.171,-0.042 0.172,-0.041C0.175,-0.043 0.177,-0.042 0.18,-0.044L0.18,-0.046C0.178,-0.046 0.177,-0.047 0.179,-0.048C0.18,-0.048 0.18,-0.047 0.18,-0.046C0.185,-0.04 0.18,-0.028 0.187,-0.024C0.19,-0.028 0.187,-0.038 0.192,-0.041C0.192,-0.035 0.189,-0.029 0.193,-0.024C0.197,-0.034 0.194,-0.041 0.202,-0.048L0.202,-0.045C0.206,-0.05 0.205,-0.053 0.207,-0.06C0.209,-0.06 0.209,-0.059 0.21,-0.059C0.222,-0.108 0.228,-0.165 0.234,-0.211C0.242,-0.208 0.244,-0.211 0.251,-0.208C0.252,-0.212 0.258,-0.212 0.263,-0.212C0.262,-0.214 0.262,-0.216 0.264,-0.218C0.269,-0.214 0.283,-0.216 0.285,-0.221C0.284,-0.218 0.29,-0.22 0.29,-0.218L0.292,-0.218C0.294,-0.219 0.294,-0.222 0.296,-0.223C0.298,-0.221 0.308,-0.225 0.306,-0.221C0.312,-0.225 0.316,-0.219 0.323,-0.224C0.322,-0.224 0.321,-0.225 0.321,-0.226C0.328,-0.229 0.335,-0.226 0.344,-0.227C0.35,-0.23 0.36,-0.229 0.367,-0.231C0.366,-0.235 0.369,-0.234 0.372,-0.234C0.374,-0.236 0.38,-0.235 0.382,-0.237C0.375,-0.236 0.381,-0.24 0.377,-0.241C0.376,-0.238 0.372,-0.239 0.37,-0.24C0.374,-0.241 0.378,-0.242 0.379,-0.247L0.374,-0.247C0.374,-0.246 0.372,-0.246 0.372,-0.247L0.374,-0.247C0.377,-0.25 0.382,-0.253 0.382,-0.256C0.383,-0.256 0.382,-0.253 0.384,-0.253C0.386,-0.254 0.388,-0.256 0.39,-0.258C0.389,-0.258 0.389,-0.259 0.39,-0.258C0.392,-0.256 0.397,-0.256 0.399,-0.258C0.399,-0.26 0.402,-0.258 0.404,-0.259C0.403,-0.26 0.402,-0.26 0.402,-0.262C0.404,-0.262 0.411,-0.262 0.407,-0.264C0.406,-0.264 0.399,-0.262 0.395,-0.264C0.397,-0.267 0.405,-0.265 0.407,-0.268C0.401,-0.274 0.388,-0.267 0.384,-0.272C0.381,-0.27 0.377,-0.269 0.374,-0.271C0.375,-0.273 0.382,-0.272 0.384,-0.272C0.39,-0.274 0.401,-0.273 0.404,-0.276C0.385,-0.277 0.38,-0.272 0.366,-0.276C0.369,-0.276 0.372,-0.275 0.372,-0.278ZM0.345,-0.273C0.347,-0.277 0.357,-0.271 0.345,-0.273ZM0.353,-0.274C0.353,-0.274 0.354,-0.273 0.353,-0.274ZM0.179,-0.268C0.179,-0.268 0.18,-0.267 0.179,-0.268ZM0.178,-0.265C0.178,-0.265 0.179,-0.264 0.178,-0.265ZM0.395,-0.26C0.394,-0.263 0.4,-0.259 0.4,-0.262C0.403,-0.26 0.395,-0.259 0.395,-0.26ZM0.392,-0.26C0.392,-0.26 0.393,-0.259 0.392,-0.26ZM0.372,-0.254C0.371,-0.256 0.377,-0.258 0.376,-0.254C0.374,-0.256 0.375,-0.254 0.372,-0.254ZM0.371,-0.249C0.371,-0.253 0.374,-0.252 0.375,-0.253C0.378,-0.251 0.374,-0.248 0.371,-0.249ZM0.378,-0.252C0.378,-0.252 0.379,-0.251 0.378,-0.252ZM0.368,-0.25C0.369,-0.254 0.369,-0.246 0.368,-0.25ZM0.372,-0.244C0.372,-0.243 0.371,-0.243 0.37,-0.243C0.37,-0.244 0.371,-0.244 0.372,-0.244ZM0.376,-0.237C0.376,-0.237 0.377,-0.236 0.376,-0.237ZM0.289,-0.22L0.289,-0.222C0.291,-0.222 0.292,-0.222 0.292,-0.22L0.289,-0.22ZM0.258,-0.218C0.258,-0.219 0.259,-0.219 0.258,-0.218C0.258,-0.217 0.256,-0.217 0.258,-0.218ZM0.26,-0.214C0.26,-0.214 0.261,-0.213 0.26,-0.214ZM0.169,-0.201C0.169,-0.202 0.169,-0.202 0.168,-0.202C0.168,-0.204 0.17,-0.204 0.172,-0.204C0.172,-0.203 0.171,-0.202 0.171,-0.2C0.17,-0.2 0.17,-0.201 0.169,-0.201C0.168,-0.198 0.164,-0.202 0.169,-0.201ZM0.173,-0.2L0.173,-0.202C0.175,-0.202 0.175,-0.201 0.175,-0.199C0.174,-0.199 0.174,-0.2 0.173,-0.2ZM0.059,-0.186C0.06,-0.187 0.062,-0.187 0.064,-0.188C0.064,-0.184 0.062,-0.186 0.059,-0.186ZM0.167,-0.132C0.167,-0.132 0.168,-0.131 0.167,-0.132ZM0.21,-0.062C0.21,-0.061 0.209,-0.061 0.208,-0.061C0.208,-0.062 0.209,-0.062 0.21,-0.062ZM0.191,-0.044C0.191,-0.044 0.192,-0.043 0.191,-0.044ZM0.191,-0.042C0.191,-0.042 0.192,-0.041 0.191,-0.042ZM0.185,-0.033C0.186,-0.037 0.186,-0.029 0.185,-0.033ZM0.372,-0.278C0.373,-0.279 0.372,-0.279 0.372,-0.278ZM0.408,-0.271C0.409,-0.275 0.409,-0.267 0.408,-0.271ZM0.422,-0.271C0.423,-0.275 0.423,-0.267 0.422,-0.271ZM0.411,-0.27C0.414,-0.27 0.413,-0.266 0.417,-0.267C0.417,-0.268 0.419,-0.269 0.419,-0.27C0.417,-0.271 0.414,-0.272 0.411,-0.27ZM0.42,-0.27C0.421,-0.269 0.42,-0.27 0.42,-0.27ZM0.409,-0.268C0.408,-0.269 0.408,-0.268 0.409,-0.268ZM0.41,-0.268C0.411,-0.269 0.41,-0.269 0.41,-0.268ZM0.409,-0.268C0.409,-0.267 0.41,-0.267 0.41,-0.268L0.409,-0.268ZM0.414,-0.263C0.415,-0.264 0.414,-0.264 0.414,-0.263ZM0.414,-0.263C0.412,-0.262 0.414,-0.262 0.414,-0.263ZM0.404,-0.259C0.403,-0.258 0.402,-0.256 0.404,-0.256C0.405,-0.257 0.406,-0.259 0.404,-0.259ZM0.399,-0.258C0.4,-0.256 0.4,-0.258 0.399,-0.258ZM0.394,-0.253C0.395,-0.252 0.394,-0.253 0.394,-0.253ZM0.38,-0.239C0.381,-0.243 0.381,-0.235 0.38,-0.239ZM0.372,-0.234C0.376,-0.235 0.372,-0.231 0.372,-0.234ZM0.344,-0.227C0.344,-0.226 0.342,-0.225 0.342,-0.224C0.345,-0.224 0.348,-0.223 0.348,-0.226C0.346,-0.226 0.345,-0.227 0.344,-0.227ZM0.326,-0.223C0.327,-0.222 0.326,-0.223 0.326,-0.223ZM0.299,-0.219C0.302,-0.221 0.297,-0.216 0.299,-0.219ZM0.29,-0.218C0.288,-0.217 0.29,-0.217 0.29,-0.218ZM0.168,-0.191C0.17,-0.191 0.168,-0.19 0.168,-0.188L0.17,-0.188C0.172,-0.189 0.169,-0.194 0.168,-0.191ZM0.169,-0.177C0.169,-0.176 0.168,-0.176 0.168,-0.175C0.17,-0.172 0.171,-0.176 0.169,-0.177ZM0.164,-0.077L0.164,-0.078C0.16,-0.077 0.163,-0.072 0.164,-0.077ZM0.161,-0.072C0.162,-0.071 0.161,-0.072 0.161,-0.072ZM0.159,-0.069C0.16,-0.068 0.159,-0.069 0.159,-0.069ZM0.21,-0.059C0.211,-0.057 0.211,-0.059 0.21,-0.059ZM0.202,-0.045C0.203,-0.041 0.199,-0.045 0.202,-0.045ZM0.201,-0.041C0.202,-0.044 0.203,-0.037 0.201,-0.041ZM0.172,-0.041C0.171,-0.041 0.171,-0.04 0.172,-0.04L0.172,-0.041ZM0.172,-0.04C0.175,-0.04 0.171,-0.036 0.172,-0.04ZM0.201,-0.038C0.202,-0.042 0.202,-0.034 0.201,-0.038ZM0.201,-0.035C0.202,-0.034 0.201,-0.035 0.201,-0.035ZM0.19,-0.026C0.191,-0.03 0.191,-0.022 0.19,-0.026Z" style="fill:rgb(138,50,148);fill-rule:nonzero;"/>
                        </g>
                    </g>
                </g>
            </g>
        </g>
    </g>
</svg>
