<?xml version="1.0" encoding="UTF-8" standalone="no"?>
<!DOCTYPE svg PUBLIC "-//W3C//DTD SVG 1.1//EN" "http://www.w3.org/Graphics/SVG/1.1/DTD/svg11.dtd">
<svg width="100%" height="100%" viewBox="0 0 5736 2674" version="1.1" xmlns="http://www.w3.org/2000/svg" xmlns:xlink="http://www.w3.org/1999/xlink" xml:space="preserve" xmlns:serif="http://www.serif.com/" style="fill-rule:evenodd;clip-rule:evenodd;stroke-linejoin:round;stroke-miterlimit:2;">
    <g transform="matrix(1,0,0,1,-67284.5,-29880.7)">
        <g id="Misc">
        </g>
        <g transform="matrix(1,0,0,1,62672.9,74132.6)">
            <g id="Interviews">
                <g id="Mjoi">
                </g>
            </g>
        </g>
        <g transform="matrix(1,0,0,1,62672.9,55579.4)">
            <g id="Playlists">
                <g id="_-ArtistTakeover" serif:id="#ArtistTakeover">
                    <g id="Mjoi1" serif:id="Mjoi">
                    </g>
                </g>
            </g>
        </g>
        <g id="Articles" transform="matrix(1,0,0,1,8227.76,11354)">
            <g id="_-ThrowbackThursday" serif:id="#ThrowbackThursday">
                <g id="Minimal-Techno" serif:id="Minimal Techno">
                </g>
                <g id="Experimental-Electronic" serif:id="Experimental Electronic">
                </g>
                <g id="Classical-Crossover" serif:id="Classical Crossover">
                </g>
            </g>
        </g>
        <g id="Reviews" transform="matrix(1,0,0,1,10375.1,21463.9)">
            <g id="Lane-8---Friends---Cross-Pollination" serif:id="Lane 8 &amp; Friends - Cross Pollination">
            </g>
            <g id="Girls-of-the-Internet---Familiar-Place" serif:id="Girls of the Internet - Familiar Place">
            </g>
            <g id="Ben-Böhmer---Phases-EP" serif:id="Ben Böhmer - Phases EP">
            </g>
            <g id="TSHA---Sister" serif:id="TSHA - Sister">
            </g>
            <g id="Budakid---Ochre-Tuesday-EP" serif:id="Budakid - Ochre Tuesday EP">
            </g>
            <g id="Glisz---Bloom" serif:id="Glisz - Bloom">
            </g>
            <g id="Mariatti---Patches" serif:id="Mariatti - Patches">
            </g>
            <g id="Dontmesswithjuan---Over-The-Edge" serif:id="Dontmesswithjuan - Over The Edge">
            </g>
            <g id="Howling---Colure" serif:id="Howling - Colure">
            </g>
            <g id="apanorama---Radio-Kodama" serif:id="apanorama - Radio Kodama">
            </g>
            <g id="pølaroit---Sør" serif:id="pølaroit - Sør">
            </g>
            <g id="Atlas-Castle---Titanomachy" serif:id="Atlas Castle - Titanomachy">
            </g>
            <g id="_59-Perlen---By-Far" serif:id="59 Perlen - By Far">
            </g>
            <g id="Shibui-Nigai---Providing-Relief" serif:id="Shibui Nigai - Providing Relief">
            </g>
        </g>
        <g id="Ads" transform="matrix(1,0,0,1,8227.76,11354)">
            <g id="Ad---Avertise-on-Redistribute---Purple" serif:id="Ad - Avertise on Redistribute - Purple">
                <g id="Ad---Avertise-on-Redistribute---Purple---Story" serif:id="Ad - Avertise on Redistribute - Purple - Story">
                </g>
                <g id="Ad---Avertise-on-Redistribute---Purple---Post" serif:id="Ad - Avertise on Redistribute - Purple - Post">
                </g>
            </g>
        </g>
        <g id="Social-Media-Assets" serif:id="Social Media Assets">
        </g>
        <g id="Social-Media-Templates" serif:id="Social Media Templates" transform="matrix(1,0,0,1,10375.5,38274.9)">
            <g id="Review-Templates" serif:id="Review Templates">
            </g>
            <g id="Interview-Templates" serif:id="Interview Templates">
            </g>
            <g id="Quote-Templates" serif:id="Quote Templates">
            </g>
        </g>
        <g id="Playlist-Covers" serif:id="Playlist Covers">
        </g>
        <g id="Social-Media-Icons" serif:id="Social Media Icons">
        </g>
        <g id="Headings">
        </g>
        <g transform="matrix(-1.9117,0,0,0.891108,73019.6,29880.7)">
            <g id="Logos">
                <rect id="TV-Logo---Purple---Black" serif:id="TV Logo - Purple / Black" x="0" y="0" width="3000" height="3000" style="fill:none;"/>
                <g id="TV-Logo---Purple---Black1" serif:id="TV Logo - Purple / Black">
                    <g transform="matrix(0.34873,0,0,0.841649,1949.95,237.527)">
                        <g transform="matrix(1.5,0,0,1.33333,-750,-500)">
                            <path d="M500,1779.11L1252.74,2625L500,2625L500,1779.11Z" style="fill:rgb(26,26,26);"/>
                        </g>
                        <g transform="matrix(1.5,0,0,1.33333,-750,-500)">
                            <path d="M2500,2624.87L2499.85,2625L1747.15,2625L500,1223.51L500,377.354L2500,2624.87Z" style="fill:rgb(26,26,26);"/>
                        </g>
                        <g transform="matrix(1.5,0,0,1.33333,-750,-500)">
                            <path d="M992.258,375L1656.25,375C2121.93,375 2500,753.072 2500,1218.75C2500,1445.91 2410.04,1652.22 2263.79,1803.95L1886.6,1380.06C1918.67,1334.38 1937.5,1278.75 1937.5,1218.75C1937.5,1063.52 1811.48,937.5 1656.25,937.5L1492.79,937.5L992.258,375Z" style="fill:rgb(138,50,148);"/>
                        </g>
                    </g>
                    <g transform="matrix(-0.523095,0,0,1.1222,4287.7,-35894.1)">
                        <g transform="matrix(5000,0,0,5000,4699.86,34462.7)">
                            <path d="M0.387,-0.405C0.388,-0.408 0.391,-0.409 0.393,-0.412C0.388,-0.412 0.381,-0.406 0.376,-0.411C0.378,-0.414 0.384,-0.412 0.384,-0.418C0.378,-0.421 0.379,-0.415 0.373,-0.415C0.373,-0.418 0.382,-0.421 0.375,-0.421C0.369,-0.421 0.363,-0.411 0.358,-0.418C0.37,-0.418 0.361,-0.43 0.375,-0.429C0.375,-0.427 0.372,-0.427 0.372,-0.426C0.376,-0.427 0.378,-0.424 0.381,-0.424C0.378,-0.436 0.355,-0.432 0.343,-0.435C0.294,-0.432 0.216,-0.432 0.157,-0.433C0.153,-0.433 0.151,-0.43 0.147,-0.43C0.142,-0.429 0.144,-0.435 0.139,-0.433C0.129,-0.426 0.106,-0.435 0.093,-0.435C0.046,-0.433 0.004,-0.43 -0.047,-0.427C-0.045,-0.426 -0.042,-0.426 -0.042,-0.424C-0.053,-0.426 -0.056,-0.42 -0.062,-0.414C-0.06,-0.411 -0.057,-0.411 -0.056,-0.408C-0.06,-0.406 -0.056,-0.399 -0.063,-0.4C-0.063,-0.396 -0.063,-0.393 -0.065,-0.391C-0.062,-0.391 -0.06,-0.39 -0.059,-0.388C-0.069,-0.373 -0.053,-0.36 -0.054,-0.339C-0.008,-0.333 0.037,-0.339 0.078,-0.337C0.082,-0.249 0.061,-0.162 0.058,-0.087C0.057,-0.063 0.051,-0.04 0.063,-0.021C0.073,-0.022 0.072,-0.012 0.079,-0.01C0.078,-0.019 0.087,-0.01 0.087,-0.018C0.09,-0.012 0.088,-0.004 0.097,-0.003C0.1,-0.013 0.111,-0.001 0.117,-0C0.117,-0.001 0.117,-0.004 0.118,-0.004C0.124,-0.001 0.124,-0 0.13,0.003C0.135,-0.007 0.132,-0.019 0.133,-0.031C0.138,-0.03 0.136,-0.024 0.141,-0.024C0.142,-0.115 0.165,-0.238 0.172,-0.34C0.177,-0.339 0.175,-0.345 0.178,-0.345C0.178,-0.337 0.186,-0.34 0.187,-0.345C0.192,-0.339 0.202,-0.334 0.21,-0.342C0.21,-0.343 0.21,-0.345 0.213,-0.345C0.213,-0.343 0.213,-0.342 0.21,-0.342C0.238,-0.334 0.288,-0.345 0.321,-0.345C0.321,-0.348 0.319,-0.351 0.322,-0.351C0.325,-0.345 0.34,-0.358 0.345,-0.349C0.342,-0.349 0.333,-0.349 0.337,-0.348C0.346,-0.346 0.349,-0.352 0.355,-0.354C0.34,-0.352 0.315,-0.358 0.304,-0.349C0.292,-0.358 0.267,-0.346 0.249,-0.352C0.229,-0.346 0.208,-0.355 0.189,-0.346C0.186,-0.352 0.174,-0.349 0.172,-0.357C0.198,-0.355 0.219,-0.36 0.238,-0.355C0.277,-0.363 0.33,-0.358 0.372,-0.366C0.373,-0.372 0.364,-0.366 0.367,-0.372C0.375,-0.37 0.376,-0.375 0.381,-0.375C0.382,-0.378 0.378,-0.376 0.378,-0.379C0.382,-0.379 0.384,-0.379 0.384,-0.384C0.381,-0.384 0.381,-0.385 0.381,-0.387C0.376,-0.387 0.379,-0.381 0.375,-0.382C0.372,-0.388 0.382,-0.394 0.382,-0.388L0.384,-0.388C0.381,-0.396 0.396,-0.393 0.393,-0.396C0.39,-0.396 0.385,-0.394 0.385,-0.397C0.387,-0.4 0.394,-0.399 0.394,-0.403C0.391,-0.403 0.388,-0.403 0.387,-0.405C0.387,-0.403 0.382,-0.4 0.382,-0.403C0.384,-0.403 0.384,-0.405 0.387,-0.405ZM0.355,-0.423C0.349,-0.426 0.36,-0.424 0.36,-0.427C0.361,-0.426 0.363,-0.424 0.363,-0.421C0.36,-0.421 0.357,-0.427 0.355,-0.423ZM0.306,-0.423C0.307,-0.429 0.307,-0.417 0.306,-0.423ZM-0.056,-0.415C-0.056,-0.415 -0.054,-0.414 -0.056,-0.415ZM0.178,-0.414C0.177,-0.414 0.177,-0.415 0.178,-0.414C0.186,-0.415 0.18,-0.409 0.178,-0.414ZM0.216,-0.414C0.22,-0.417 0.213,-0.409 0.216,-0.414ZM0.229,-0.415C0.229,-0.414 0.228,-0.414 0.226,-0.414C0.226,-0.415 0.228,-0.415 0.229,-0.415ZM0.198,-0.412C0.199,-0.418 0.199,-0.406 0.198,-0.412ZM0.246,-0.412C0.246,-0.412 0.247,-0.411 0.246,-0.412ZM-0.054,-0.409C-0.054,-0.409 -0.053,-0.408 -0.054,-0.409ZM0.363,-0.402C0.363,-0.402 0.364,-0.4 0.363,-0.402ZM0.219,-0.397C0.219,-0.397 0.22,-0.396 0.219,-0.397ZM0.375,-0.399C0.375,-0.397 0.373,-0.397 0.372,-0.397C0.372,-0.399 0.373,-0.399 0.375,-0.399ZM0.373,-0.394C0.373,-0.394 0.375,-0.393 0.373,-0.394ZM0.372,-0.388C0.372,-0.388 0.373,-0.387 0.372,-0.388ZM0.241,-0.37C0.241,-0.37 0.243,-0.369 0.241,-0.37ZM0.267,-0.348C0.271,-0.351 0.264,-0.343 0.267,-0.348ZM0.285,-0.348C0.285,-0.346 0.282,-0.346 0.28,-0.346C0.28,-0.348 0.283,-0.348 0.285,-0.348ZM0.105,-0.015C0.105,-0.015 0.106,-0.013 0.105,-0.015ZM0.109,-0.01C0.109,-0.007 0.108,-0.01 0.106,-0.01C0.106,-0.012 0.109,-0.012 0.109,-0.01ZM0.384,-0.427C0.385,-0.427 0.387,-0.427 0.387,-0.429C0.385,-0.429 0.384,-0.429 0.384,-0.427ZM0.4,-0.402C0.402,-0.4 0.4,-0.402 0.4,-0.402ZM0.381,-0.387C0.382,-0.387 0.382,-0.387 0.382,-0.388C0.381,-0.388 0.381,-0.388 0.381,-0.387ZM0.39,-0.388C0.385,-0.39 0.387,-0.385 0.385,-0.384C0.388,-0.384 0.39,-0.385 0.39,-0.388ZM0.396,-0.372C0.385,-0.372 0.379,-0.373 0.373,-0.367C0.381,-0.367 0.394,-0.37 0.396,-0.372Z" style="fill:rgb(138,50,148);fill-rule:nonzero;"/>
                        </g>
                        <g transform="matrix(5000,0,0,5000,6219.86,34462.7)">
                            <path d="M0.33,-0.489L0.33,-0.49C0.328,-0.49 0.328,-0.493 0.327,-0.493C0.327,-0.492 0.327,-0.489 0.325,-0.489C0.325,-0.492 0.324,-0.492 0.322,-0.492C0.322,-0.489 0.324,-0.484 0.319,-0.486C0.322,-0.49 0.315,-0.487 0.312,-0.49C0.31,-0.487 0.309,-0.486 0.309,-0.484C0.31,-0.484 0.31,-0.481 0.309,-0.484C0.306,-0.484 0.307,-0.48 0.303,-0.481L0.303,-0.478C0.304,-0.474 0.304,-0.481 0.309,-0.48C0.31,-0.474 0.315,-0.474 0.315,-0.469C0.315,-0.471 0.316,-0.471 0.316,-0.469L0.315,-0.469C0.315,-0.462 0.31,-0.46 0.307,-0.457C0.306,-0.46 0.306,-0.463 0.304,-0.465C0.304,-0.462 0.304,-0.459 0.303,-0.459C0.304,-0.463 0.303,-0.465 0.298,-0.463C0.297,-0.463 0.298,-0.459 0.295,-0.459C0.295,-0.457 0.292,-0.457 0.295,-0.459C0.295,-0.463 0.288,-0.463 0.292,-0.468C0.285,-0.466 0.277,-0.463 0.282,-0.456L0.28,-0.456C0.279,-0.453 0.276,-0.454 0.273,-0.453C0.271,-0.448 0.274,-0.448 0.274,-0.445C0.277,-0.447 0.28,-0.45 0.282,-0.445C0.276,-0.445 0.279,-0.438 0.273,-0.438C0.273,-0.436 0.27,-0.436 0.273,-0.438C0.273,-0.442 0.279,-0.441 0.274,-0.445C0.271,-0.445 0.271,-0.447 0.268,-0.447C0.21,-0.361 0.162,-0.259 0.111,-0.162C0.109,-0.181 0.111,-0.207 0.102,-0.219C0.109,-0.237 0.102,-0.247 0.102,-0.264C0.094,-0.259 0.094,-0.283 0.102,-0.27L0.102,-0.28C0.099,-0.28 0.097,-0.277 0.097,-0.28C0.096,-0.288 0.102,-0.286 0.1,-0.294C0.1,-0.295 0.094,-0.297 0.099,-0.298C0.093,-0.339 0.094,-0.372 0.084,-0.408C0.06,-0.418 0.042,-0.445 0.012,-0.439C0.009,-0.433 0.007,-0.426 0.006,-0.42C0.012,-0.411 0.01,-0.4 0.006,-0.391C0.018,-0.258 0.01,-0.129 0.046,0.008C0.052,0.011 0.058,0.014 0.06,0.021C0.073,0.02 0.079,0.036 0.09,0.029C0.093,0.036 0.103,0.039 0.108,0.032L0.108,0.036C0.115,0.036 0.12,0.035 0.123,0.03C0.13,0.038 0.133,0.023 0.142,0.03C0.15,0.018 0.148,-0.007 0.159,-0.024C0.157,-0.024 0.156,-0.025 0.156,-0.027C0.16,-0.025 0.162,-0.033 0.159,-0.034C0.157,-0.028 0.153,-0.036 0.15,-0.034C0.147,-0.022 0.145,-0.016 0.139,-0.01C0.138,-0.022 0.145,-0.025 0.144,-0.037C0.151,-0.037 0.145,-0.055 0.153,-0.051C0.156,-0.079 0.172,-0.097 0.178,-0.127C0.181,-0.13 0.183,-0.126 0.186,-0.129C0.181,-0.138 0.192,-0.138 0.187,-0.147C0.192,-0.148 0.193,-0.156 0.198,-0.157C0.195,-0.168 0.204,-0.18 0.216,-0.181C0.217,-0.178 0.222,-0.18 0.222,-0.175C0.216,-0.18 0.219,-0.163 0.211,-0.165C0.21,-0.169 0.216,-0.166 0.214,-0.172C0.205,-0.168 0.205,-0.163 0.213,-0.157C0.219,-0.168 0.232,-0.184 0.229,-0.193C0.229,-0.189 0.228,-0.186 0.225,-0.184C0.226,-0.192 0.219,-0.186 0.219,-0.189C0.217,-0.192 0.225,-0.195 0.22,-0.198C0.217,-0.193 0.216,-0.186 0.21,-0.184C0.217,-0.196 0.223,-0.217 0.232,-0.231C0.237,-0.237 0.241,-0.237 0.244,-0.234C0.243,-0.228 0.24,-0.225 0.237,-0.222C0.237,-0.219 0.238,-0.219 0.238,-0.216C0.24,-0.216 0.24,-0.216 0.24,-0.214C0.241,-0.214 0.241,-0.213 0.243,-0.213C0.247,-0.22 0.249,-0.225 0.247,-0.235L0.255,-0.235C0.255,-0.241 0.247,-0.243 0.252,-0.247C0.244,-0.249 0.246,-0.243 0.241,-0.243C0.241,-0.246 0.24,-0.246 0.24,-0.247C0.246,-0.246 0.243,-0.255 0.247,-0.255C0.247,-0.252 0.256,-0.25 0.258,-0.253C0.255,-0.259 0.267,-0.255 0.268,-0.261C0.265,-0.261 0.262,-0.264 0.262,-0.267C0.265,-0.27 0.267,-0.264 0.27,-0.264C0.273,-0.273 0.282,-0.279 0.276,-0.289C0.279,-0.294 0.285,-0.295 0.288,-0.3C0.286,-0.303 0.285,-0.298 0.283,-0.301C0.28,-0.298 0.273,-0.297 0.27,-0.297C0.27,-0.295 0.267,-0.295 0.27,-0.297C0.271,-0.301 0.274,-0.304 0.276,-0.309C0.28,-0.31 0.279,-0.304 0.282,-0.304C0.282,-0.306 0.283,-0.307 0.286,-0.307C0.286,-0.306 0.285,-0.306 0.285,-0.304C0.288,-0.304 0.289,-0.303 0.291,-0.303C0.291,-0.306 0.289,-0.306 0.289,-0.309C0.292,-0.31 0.295,-0.31 0.297,-0.313C0.298,-0.318 0.295,-0.319 0.294,-0.322C0.295,-0.322 0.297,-0.324 0.298,-0.324C0.298,-0.325 0.298,-0.327 0.3,-0.327C0.3,-0.325 0.3,-0.324 0.298,-0.324C0.298,-0.322 0.298,-0.321 0.3,-0.321C0.307,-0.34 0.327,-0.355 0.328,-0.376C0.331,-0.378 0.336,-0.378 0.337,-0.381C0.334,-0.381 0.334,-0.384 0.334,-0.387C0.339,-0.388 0.339,-0.384 0.342,-0.387C0.342,-0.39 0.34,-0.396 0.345,-0.394C0.351,-0.4 0.346,-0.399 0.348,-0.405L0.354,-0.405C0.355,-0.409 0.354,-0.414 0.358,-0.418C0.36,-0.418 0.36,-0.415 0.361,-0.415C0.363,-0.42 0.366,-0.426 0.366,-0.43C0.36,-0.427 0.357,-0.424 0.351,-0.424C0.352,-0.417 0.354,-0.412 0.346,-0.411C0.346,-0.409 0.345,-0.409 0.345,-0.411C0.342,-0.411 0.343,-0.406 0.34,-0.406C0.339,-0.414 0.345,-0.418 0.351,-0.424C0.352,-0.429 0.354,-0.433 0.358,-0.429C0.357,-0.432 0.361,-0.43 0.361,-0.433C0.36,-0.435 0.357,-0.435 0.357,-0.436C0.364,-0.444 0.369,-0.453 0.379,-0.457C0.378,-0.465 0.384,-0.468 0.381,-0.471C0.373,-0.472 0.372,-0.465 0.363,-0.465C0.361,-0.469 0.355,-0.471 0.349,-0.471C0.349,-0.469 0.348,-0.469 0.348,-0.471L0.349,-0.471C0.351,-0.477 0.36,-0.472 0.364,-0.478C0.364,-0.484 0.361,-0.486 0.358,-0.489C0.358,-0.486 0.352,-0.489 0.349,-0.487C0.348,-0.48 0.337,-0.48 0.334,-0.474C0.334,-0.475 0.333,-0.477 0.331,-0.477C0.331,-0.472 0.325,-0.478 0.331,-0.477L0.331,-0.48C0.327,-0.484 0.322,-0.472 0.319,-0.477C0.324,-0.48 0.325,-0.481 0.324,-0.487C0.327,-0.487 0.328,-0.489 0.33,-0.489ZM0.313,-0.481C0.309,-0.483 0.313,-0.487 0.318,-0.486C0.318,-0.483 0.313,-0.484 0.313,-0.481ZM0.352,-0.483C0.351,-0.483 0.351,-0.484 0.352,-0.483C0.358,-0.483 0.352,-0.477 0.352,-0.483ZM0.349,-0.48C0.349,-0.48 0.351,-0.478 0.349,-0.48ZM0.318,-0.48C0.318,-0.478 0.315,-0.478 0.313,-0.478C0.313,-0.48 0.316,-0.48 0.318,-0.48ZM0.355,-0.477C0.355,-0.477 0.357,-0.475 0.355,-0.477ZM0.327,-0.469C0.33,-0.475 0.328,-0.465 0.327,-0.469ZM0.345,-0.466C0.345,-0.466 0.346,-0.465 0.345,-0.466ZM0.322,-0.462C0.322,-0.46 0.324,-0.46 0.324,-0.457C0.322,-0.457 0.319,-0.457 0.319,-0.456C0.316,-0.456 0.319,-0.462 0.318,-0.465C0.319,-0.465 0.321,-0.462 0.322,-0.462C0.322,-0.463 0.324,-0.463 0.322,-0.462ZM0.358,-0.465C0.358,-0.463 0.357,-0.463 0.355,-0.463C0.355,-0.465 0.357,-0.465 0.358,-0.465ZM0.288,-0.462C0.288,-0.462 0.289,-0.46 0.288,-0.462ZM0.36,-0.462C0.36,-0.462 0.361,-0.46 0.36,-0.462ZM0.336,-0.456C0.336,-0.46 0.336,-0.462 0.34,-0.462C0.339,-0.46 0.339,-0.456 0.336,-0.456C0.336,-0.454 0.334,-0.454 0.333,-0.454C0.334,-0.448 0.328,-0.454 0.333,-0.454C0.333,-0.456 0.334,-0.456 0.336,-0.456ZM0.352,-0.46C0.352,-0.46 0.354,-0.459 0.352,-0.46ZM0.346,-0.459C0.346,-0.463 0.352,-0.457 0.346,-0.459C0.346,-0.454 0.34,-0.46 0.346,-0.459ZM0.285,-0.453C0.28,-0.453 0.285,-0.457 0.285,-0.459C0.288,-0.459 0.285,-0.454 0.285,-0.453ZM0.349,-0.456C0.349,-0.457 0.351,-0.457 0.349,-0.456C0.349,-0.454 0.346,-0.454 0.349,-0.456ZM0.316,-0.451C0.316,-0.451 0.318,-0.45 0.316,-0.451ZM0.306,-0.441C0.307,-0.447 0.307,-0.435 0.306,-0.441ZM0.295,-0.438C0.295,-0.438 0.297,-0.436 0.295,-0.438ZM0.285,-0.435C0.285,-0.435 0.286,-0.433 0.285,-0.435ZM0.265,-0.433C0.267,-0.439 0.267,-0.427 0.265,-0.433ZM0.27,-0.432C0.27,-0.433 0.271,-0.433 0.27,-0.432C0.27,-0.43 0.27,-0.43 0.268,-0.43C0.268,-0.427 0.268,-0.424 0.265,-0.426C0.268,-0.427 0.262,-0.43 0.268,-0.43C0.268,-0.432 0.268,-0.432 0.27,-0.432ZM0.273,-0.429C0.274,-0.435 0.274,-0.423 0.273,-0.429ZM0.295,-0.429C0.295,-0.429 0.297,-0.427 0.295,-0.429ZM0.288,-0.427C0.288,-0.426 0.286,-0.426 0.285,-0.426C0.285,-0.427 0.286,-0.427 0.288,-0.427ZM0.292,-0.424C0.292,-0.424 0.294,-0.423 0.292,-0.424ZM0.285,-0.423C0.285,-0.424 0.286,-0.424 0.285,-0.423C0.285,-0.418 0.279,-0.424 0.285,-0.423ZM0.262,-0.421C0.265,-0.427 0.264,-0.417 0.262,-0.421ZM0.289,-0.42L0.289,-0.423L0.292,-0.423L0.292,-0.42L0.289,-0.42ZM0.294,-0.421C0.295,-0.427 0.295,-0.415 0.294,-0.421ZM0.34,-0.421C0.34,-0.421 0.342,-0.42 0.34,-0.421ZM0.285,-0.415L0.285,-0.414C0.277,-0.406 0.292,-0.417 0.285,-0.415ZM0.255,-0.406C0.25,-0.408 0.256,-0.409 0.255,-0.412C0.258,-0.412 0.255,-0.408 0.255,-0.406ZM0.307,-0.411C0.309,-0.408 0.301,-0.408 0.303,-0.411C0.303,-0.412 0.307,-0.412 0.307,-0.411ZM0.351,-0.408C0.351,-0.408 0.352,-0.406 0.351,-0.408ZM0.319,-0.402C0.319,-0.408 0.325,-0.402 0.319,-0.402C0.319,-0.4 0.316,-0.4 0.319,-0.402ZM0.336,-0.394C0.328,-0.391 0.331,-0.405 0.339,-0.405C0.339,-0.4 0.333,-0.396 0.336,-0.394ZM0.249,-0.403C0.255,-0.403 0.247,-0.394 0.249,-0.403ZM0.328,-0.394C0.328,-0.394 0.33,-0.393 0.328,-0.394ZM0.241,-0.387C0.241,-0.39 0.24,-0.394 0.244,-0.393C0.244,-0.39 0.243,-0.388 0.241,-0.387C0.241,-0.385 0.238,-0.385 0.241,-0.387ZM0.327,-0.39L0.327,-0.393L0.33,-0.393L0.33,-0.39L0.327,-0.39ZM0.325,-0.387C0.327,-0.393 0.327,-0.381 0.325,-0.387ZM0.265,-0.385C0.265,-0.385 0.267,-0.384 0.265,-0.385ZM0.238,-0.384C0.243,-0.376 0.231,-0.378 0.238,-0.384ZM0.267,-0.382C0.267,-0.382 0.268,-0.381 0.267,-0.382ZM0.237,-0.376C0.234,-0.37 0.228,-0.376 0.237,-0.376ZM0.264,-0.369C0.258,-0.37 0.264,-0.373 0.265,-0.376C0.27,-0.373 0.262,-0.373 0.264,-0.369ZM0.25,-0.369C0.25,-0.369 0.252,-0.367 0.25,-0.369ZM0.31,-0.367C0.312,-0.369 0.313,-0.37 0.316,-0.37C0.316,-0.366 0.316,-0.364 0.312,-0.364C0.312,-0.366 0.312,-0.367 0.31,-0.367ZM0.255,-0.367C0.255,-0.367 0.256,-0.366 0.255,-0.367ZM0.223,-0.357C0.225,-0.36 0.226,-0.363 0.228,-0.366C0.231,-0.363 0.226,-0.357 0.223,-0.357ZM0.318,-0.361C0.318,-0.361 0.319,-0.36 0.318,-0.361ZM0.289,-0.357C0.289,-0.363 0.295,-0.357 0.289,-0.357C0.289,-0.355 0.286,-0.355 0.289,-0.357ZM0.25,-0.355C0.25,-0.355 0.252,-0.354 0.25,-0.355ZM0.298,-0.345C0.3,-0.348 0.3,-0.352 0.301,-0.355C0.306,-0.352 0.301,-0.345 0.298,-0.345C0.297,-0.34 0.295,-0.336 0.292,-0.333C0.289,-0.336 0.297,-0.342 0.298,-0.345ZM0.247,-0.352C0.247,-0.352 0.249,-0.351 0.247,-0.352ZM0.219,-0.351C0.219,-0.351 0.22,-0.349 0.219,-0.351ZM0.25,-0.349C0.25,-0.349 0.252,-0.348 0.25,-0.349ZM0.24,-0.342C0.246,-0.346 0.238,-0.348 0.249,-0.349C0.247,-0.346 0.246,-0.34 0.24,-0.342ZM0.216,-0.34C0.213,-0.342 0.216,-0.343 0.216,-0.345C0.219,-0.343 0.216,-0.342 0.216,-0.34ZM0.241,-0.339C0.241,-0.339 0.243,-0.337 0.241,-0.339ZM0.24,-0.334C0.24,-0.334 0.241,-0.333 0.24,-0.334ZM0.201,-0.315C0.202,-0.318 0.202,-0.321 0.205,-0.325C0.207,-0.325 0.207,-0.325 0.207,-0.324C0.207,-0.322 0.207,-0.322 0.208,-0.322C0.204,-0.321 0.205,-0.315 0.201,-0.315C0.201,-0.313 0.199,-0.312 0.199,-0.31C0.196,-0.31 0.198,-0.313 0.199,-0.315L0.201,-0.315ZM0.271,-0.322C0.271,-0.322 0.273,-0.321 0.271,-0.322ZM0.21,-0.319C0.21,-0.319 0.211,-0.318 0.21,-0.319ZM0.252,-0.318C0.25,-0.313 0.247,-0.319 0.246,-0.319C0.247,-0.324 0.25,-0.318 0.252,-0.318ZM0.283,-0.319C0.283,-0.321 0.285,-0.321 0.283,-0.319C0.285,-0.318 0.285,-0.315 0.285,-0.312C0.291,-0.312 0.285,-0.306 0.285,-0.312C0.283,-0.312 0.283,-0.31 0.283,-0.309C0.282,-0.309 0.28,-0.312 0.279,-0.312C0.277,-0.316 0.283,-0.315 0.282,-0.319L0.283,-0.319ZM0.084,-0.316L0.084,-0.319L0.087,-0.319L0.087,-0.316L0.084,-0.316ZM0.292,-0.315C0.292,-0.315 0.294,-0.313 0.292,-0.315ZM0.232,-0.313C0.232,-0.313 0.234,-0.312 0.232,-0.313ZM0.262,-0.313C0.264,-0.319 0.264,-0.307 0.262,-0.313ZM0.255,-0.312C0.255,-0.312 0.256,-0.31 0.255,-0.312ZM0.262,-0.307C0.262,-0.307 0.264,-0.306 0.262,-0.307ZM0.211,-0.306C0.211,-0.306 0.213,-0.304 0.211,-0.306ZM0.226,-0.307C0.226,-0.306 0.225,-0.306 0.223,-0.306C0.223,-0.307 0.225,-0.307 0.226,-0.307ZM0.202,-0.303C0.207,-0.306 0.199,-0.298 0.202,-0.303ZM0.189,-0.294C0.187,-0.298 0.193,-0.297 0.192,-0.303C0.195,-0.301 0.193,-0.292 0.189,-0.294ZM0.214,-0.3C0.214,-0.3 0.216,-0.298 0.214,-0.3ZM0.235,-0.297C0.235,-0.297 0.237,-0.295 0.235,-0.297ZM0.187,-0.288C0.184,-0.289 0.187,-0.291 0.187,-0.292C0.19,-0.291 0.187,-0.289 0.187,-0.288ZM0.189,-0.285C0.19,-0.288 0.192,-0.289 0.193,-0.292C0.198,-0.291 0.195,-0.283 0.189,-0.285ZM0.207,-0.289L0.207,-0.292L0.21,-0.292L0.21,-0.289L0.207,-0.289ZM0.205,-0.286C0.213,-0.283 0.21,-0.291 0.216,-0.291C0.211,-0.286 0.219,-0.279 0.211,-0.279C0.211,-0.283 0.214,-0.282 0.211,-0.285C0.207,-0.285 0.213,-0.276 0.207,-0.279C0.207,-0.28 0.208,-0.28 0.208,-0.282C0.207,-0.283 0.205,-0.283 0.205,-0.286ZM0.267,-0.285C0.265,-0.285 0.267,-0.289 0.264,-0.289C0.264,-0.291 0.264,-0.291 0.265,-0.291L0.268,-0.291C0.268,-0.288 0.267,-0.286 0.267,-0.285ZM0.183,-0.283C0.184,-0.289 0.184,-0.277 0.183,-0.283ZM0.181,-0.279C0.18,-0.279 0.18,-0.28 0.181,-0.279C0.186,-0.279 0.18,-0.273 0.181,-0.279ZM0.204,-0.279C0.204,-0.279 0.205,-0.277 0.204,-0.279ZM0.178,-0.276C0.18,-0.282 0.177,-0.267 0.178,-0.276ZM0.237,-0.276C0.237,-0.276 0.238,-0.274 0.237,-0.276ZM0.222,-0.273C0.222,-0.273 0.223,-0.271 0.222,-0.273ZM0.255,-0.273C0.255,-0.273 0.256,-0.271 0.255,-0.273ZM0.208,-0.273C0.208,-0.271 0.207,-0.271 0.205,-0.271C0.205,-0.273 0.207,-0.273 0.208,-0.273ZM0.27,-0.27C0.27,-0.27 0.271,-0.268 0.27,-0.27ZM0.195,-0.253C0.195,-0.261 0.204,-0.262 0.199,-0.27L0.204,-0.27C0.201,-0.262 0.202,-0.256 0.195,-0.253ZM0.238,-0.268C0.238,-0.268 0.24,-0.267 0.238,-0.268ZM0.253,-0.268C0.253,-0.268 0.255,-0.267 0.253,-0.268ZM0.253,-0.265C0.253,-0.262 0.252,-0.265 0.25,-0.265C0.25,-0.267 0.253,-0.267 0.253,-0.265ZM0.169,-0.258L0.169,-0.261L0.172,-0.261L0.172,-0.258L0.169,-0.258ZM0.234,-0.259C0.235,-0.264 0.237,-0.253 0.234,-0.259ZM0.178,-0.258C0.178,-0.256 0.177,-0.256 0.175,-0.256C0.175,-0.258 0.177,-0.258 0.178,-0.258ZM0.213,-0.256C0.216,-0.262 0.214,-0.252 0.213,-0.256ZM0.231,-0.252C0.232,-0.253 0.231,-0.258 0.235,-0.256C0.235,-0.253 0.234,-0.252 0.231,-0.252ZM0.168,-0.249C0.166,-0.249 0.166,-0.247 0.163,-0.247C0.163,-0.25 0.168,-0.25 0.166,-0.255C0.168,-0.255 0.168,-0.252 0.168,-0.249C0.169,-0.249 0.169,-0.246 0.168,-0.249ZM0.088,-0.252C0.093,-0.255 0.085,-0.247 0.088,-0.252ZM0.181,-0.25C0.181,-0.25 0.183,-0.249 0.181,-0.25ZM0.21,-0.25C0.21,-0.25 0.211,-0.249 0.21,-0.25ZM0.171,-0.247C0.171,-0.247 0.172,-0.246 0.171,-0.247ZM0.183,-0.244L0.183,-0.249C0.187,-0.25 0.187,-0.241 0.183,-0.244ZM0.19,-0.238C0.189,-0.243 0.189,-0.244 0.19,-0.249C0.196,-0.25 0.186,-0.238 0.196,-0.241C0.195,-0.24 0.193,-0.238 0.19,-0.238ZM0.169,-0.244C0.169,-0.244 0.171,-0.243 0.169,-0.244ZM0.205,-0.244C0.207,-0.25 0.207,-0.238 0.205,-0.244ZM0.165,-0.238C0.162,-0.238 0.162,-0.241 0.162,-0.244C0.166,-0.246 0.165,-0.241 0.165,-0.238ZM0.09,-0.241C0.09,-0.241 0.091,-0.24 0.09,-0.241ZM0.238,-0.241C0.238,-0.241 0.24,-0.24 0.238,-0.241ZM0.166,-0.24C0.168,-0.244 0.169,-0.234 0.166,-0.24ZM0.204,-0.24C0.202,-0.231 0.205,-0.246 0.204,-0.24ZM0.187,-0.229C0.181,-0.231 0.184,-0.234 0.186,-0.24C0.193,-0.24 0.186,-0.232 0.187,-0.229ZM0.24,-0.238C0.24,-0.238 0.241,-0.237 0.24,-0.238ZM0.16,-0.237C0.159,-0.237 0.159,-0.238 0.16,-0.237C0.162,-0.237 0.162,-0.234 0.16,-0.237ZM0.166,-0.234C0.166,-0.234 0.168,-0.232 0.166,-0.234ZM0.178,-0.234C0.177,-0.234 0.177,-0.235 0.178,-0.234C0.18,-0.234 0.18,-0.231 0.178,-0.234ZM0.159,-0.232C0.159,-0.232 0.16,-0.231 0.159,-0.232ZM0.201,-0.232C0.201,-0.232 0.202,-0.231 0.201,-0.232ZM0.22,-0.226C0.217,-0.226 0.217,-0.231 0.219,-0.232C0.22,-0.232 0.22,-0.228 0.22,-0.226ZM0.16,-0.229C0.16,-0.229 0.162,-0.228 0.16,-0.229ZM0.18,-0.231C0.186,-0.231 0.178,-0.222 0.18,-0.231ZM0.151,-0.217C0.148,-0.222 0.153,-0.223 0.154,-0.229C0.157,-0.226 0.153,-0.22 0.151,-0.217C0.151,-0.211 0.145,-0.217 0.151,-0.217ZM0.157,-0.228C0.157,-0.228 0.159,-0.226 0.157,-0.228ZM0.244,-0.226C0.246,-0.232 0.246,-0.22 0.244,-0.226ZM0.159,-0.223C0.16,-0.226 0.162,-0.226 0.163,-0.225C0.163,-0.223 0.16,-0.223 0.159,-0.223C0.159,-0.222 0.16,-0.22 0.159,-0.219C0.157,-0.219 0.157,-0.223 0.159,-0.223ZM0.174,-0.225C0.174,-0.225 0.175,-0.223 0.174,-0.225ZM0.18,-0.222C0.175,-0.228 0.189,-0.225 0.183,-0.22C0.181,-0.22 0.181,-0.222 0.18,-0.222C0.178,-0.217 0.175,-0.216 0.177,-0.21C0.172,-0.211 0.171,-0.225 0.18,-0.222ZM0.213,-0.223C0.213,-0.223 0.214,-0.222 0.213,-0.223ZM0.244,-0.223C0.244,-0.222 0.243,-0.222 0.241,-0.222C0.241,-0.223 0.243,-0.223 0.244,-0.223ZM0.213,-0.219C0.216,-0.219 0.214,-0.223 0.217,-0.222C0.216,-0.22 0.217,-0.216 0.213,-0.217C0.213,-0.216 0.21,-0.216 0.213,-0.217L0.213,-0.219C0.211,-0.219 0.211,-0.22 0.213,-0.219ZM0.157,-0.216C0.157,-0.216 0.159,-0.214 0.157,-0.216ZM0.193,-0.216C0.193,-0.217 0.195,-0.217 0.193,-0.216C0.193,-0.213 0.192,-0.213 0.192,-0.21L0.19,-0.21C0.19,-0.204 0.184,-0.21 0.19,-0.21C0.19,-0.213 0.19,-0.214 0.192,-0.216L0.193,-0.216ZM0.096,-0.207C0.091,-0.207 0.091,-0.21 0.091,-0.214C0.096,-0.214 0.096,-0.211 0.096,-0.207ZM0.21,-0.213C0.21,-0.213 0.211,-0.211 0.21,-0.213ZM0.142,-0.204C0.142,-0.208 0.145,-0.21 0.147,-0.213C0.151,-0.208 0.142,-0.205 0.147,-0.201C0.145,-0.201 0.144,-0.204 0.142,-0.204ZM0.153,-0.211C0.154,-0.217 0.154,-0.205 0.153,-0.211ZM0.156,-0.211C0.156,-0.211 0.157,-0.21 0.156,-0.211ZM0.162,-0.201C0.162,-0.205 0.162,-0.208 0.166,-0.208C0.166,-0.205 0.166,-0.204 0.165,-0.202C0.171,-0.201 0.168,-0.207 0.171,-0.21C0.175,-0.207 0.172,-0.204 0.172,-0.198C0.168,-0.199 0.169,-0.196 0.163,-0.195C0.162,-0.198 0.168,-0.201 0.162,-0.201C0.162,-0.199 0.159,-0.199 0.162,-0.201ZM0.207,-0.208C0.208,-0.213 0.21,-0.202 0.207,-0.208ZM0.175,-0.207C0.175,-0.207 0.177,-0.205 0.175,-0.207ZM0.216,-0.207C0.216,-0.207 0.217,-0.205 0.216,-0.207ZM0.205,-0.198C0.199,-0.199 0.204,-0.205 0.208,-0.205C0.21,-0.201 0.205,-0.201 0.205,-0.198ZM0.181,-0.195C0.183,-0.198 0.184,-0.201 0.184,-0.204C0.187,-0.202 0.186,-0.193 0.181,-0.195ZM0.141,-0.199C0.138,-0.192 0.144,-0.207 0.141,-0.199ZM0.147,-0.196C0.147,-0.196 0.148,-0.195 0.147,-0.196ZM0.16,-0.192C0.159,-0.192 0.157,-0.193 0.157,-0.196C0.159,-0.196 0.16,-0.195 0.16,-0.192L0.165,-0.192C0.166,-0.187 0.162,-0.187 0.16,-0.186C0.159,-0.181 0.162,-0.172 0.156,-0.171C0.157,-0.171 0.157,-0.178 0.156,-0.174C0.153,-0.175 0.159,-0.18 0.15,-0.178C0.151,-0.183 0.154,-0.181 0.151,-0.187C0.156,-0.184 0.16,-0.183 0.16,-0.192ZM0.184,-0.171C0.186,-0.171 0.186,-0.172 0.186,-0.174C0.189,-0.171 0.189,-0.174 0.192,-0.175C0.19,-0.187 0.199,-0.189 0.198,-0.196C0.202,-0.195 0.202,-0.196 0.205,-0.195C0.199,-0.189 0.201,-0.184 0.199,-0.175C0.193,-0.174 0.19,-0.171 0.193,-0.163C0.183,-0.156 0.178,-0.142 0.175,-0.127C0.174,-0.127 0.172,-0.126 0.171,-0.127C0.168,-0.126 0.174,-0.123 0.169,-0.12C0.171,-0.12 0.171,-0.117 0.169,-0.12C0.168,-0.115 0.165,-0.112 0.163,-0.109C0.157,-0.109 0.163,-0.115 0.16,-0.115C0.16,-0.118 0.165,-0.117 0.166,-0.118C0.163,-0.121 0.168,-0.124 0.165,-0.129C0.171,-0.13 0.171,-0.132 0.169,-0.138L0.175,-0.138C0.174,-0.145 0.178,-0.147 0.181,-0.15C0.18,-0.153 0.178,-0.157 0.172,-0.156C0.174,-0.159 0.177,-0.159 0.181,-0.157C0.184,-0.159 0.178,-0.165 0.186,-0.166C0.186,-0.168 0.184,-0.169 0.184,-0.171C0.18,-0.169 0.18,-0.174 0.18,-0.178C0.183,-0.177 0.183,-0.172 0.184,-0.171ZM0.145,-0.193C0.147,-0.199 0.147,-0.187 0.145,-0.193ZM0.193,-0.193C0.193,-0.193 0.195,-0.192 0.193,-0.193ZM0.099,-0.186C0.093,-0.183 0.097,-0.19 0.094,-0.19C0.096,-0.195 0.1,-0.189 0.099,-0.186ZM0.135,-0.186C0.135,-0.186 0.136,-0.184 0.135,-0.186ZM0.139,-0.186C0.139,-0.186 0.141,-0.184 0.139,-0.186ZM0.174,-0.183C0.175,-0.183 0.175,-0.183 0.175,-0.184L0.178,-0.184L0.178,-0.181C0.177,-0.181 0.177,-0.181 0.177,-0.18L0.174,-0.18L0.174,-0.183ZM0.205,-0.18C0.205,-0.18 0.207,-0.178 0.205,-0.18ZM0.172,-0.172C0.168,-0.172 0.172,-0.177 0.172,-0.178C0.175,-0.178 0.172,-0.174 0.172,-0.172C0.174,-0.172 0.174,-0.169 0.172,-0.172ZM0.184,-0.175C0.184,-0.175 0.186,-0.174 0.184,-0.175ZM0.136,-0.174C0.136,-0.171 0.135,-0.174 0.133,-0.174C0.133,-0.175 0.136,-0.175 0.136,-0.174ZM0.144,-0.174C0.144,-0.174 0.145,-0.172 0.144,-0.174ZM0.151,-0.171C0.15,-0.171 0.15,-0.172 0.151,-0.171C0.159,-0.172 0.15,-0.163 0.151,-0.171ZM0.178,-0.169C0.174,-0.169 0.18,-0.175 0.178,-0.169C0.18,-0.169 0.18,-0.166 0.178,-0.169ZM0.127,-0.169C0.127,-0.169 0.129,-0.168 0.127,-0.169ZM0.132,-0.166C0.132,-0.166 0.133,-0.165 0.132,-0.166ZM0.147,-0.166C0.141,-0.165 0.147,-0.171 0.147,-0.166C0.148,-0.166 0.15,-0.168 0.15,-0.166L0.15,-0.163L0.145,-0.163C0.145,-0.165 0.147,-0.165 0.147,-0.166ZM0.123,-0.165C0.123,-0.165 0.124,-0.163 0.123,-0.165ZM0.142,-0.162C0.142,-0.162 0.144,-0.16 0.142,-0.162ZM0.165,-0.153C0.159,-0.153 0.165,-0.163 0.168,-0.163C0.172,-0.16 0.165,-0.156 0.165,-0.153ZM0.21,-0.162C0.21,-0.162 0.211,-0.16 0.21,-0.162ZM0.142,-0.153C0.135,-0.151 0.138,-0.156 0.138,-0.162C0.144,-0.163 0.142,-0.157 0.142,-0.153ZM0.154,-0.162C0.154,-0.16 0.153,-0.16 0.151,-0.16C0.151,-0.162 0.153,-0.162 0.154,-0.162ZM0.121,-0.156L0.121,-0.159L0.124,-0.159L0.124,-0.156L0.121,-0.156ZM0.102,-0.154C0.102,-0.15 0.096,-0.154 0.097,-0.157C0.1,-0.159 0.099,-0.154 0.102,-0.154ZM0.138,-0.142C0.141,-0.147 0.144,-0.151 0.145,-0.157C0.15,-0.159 0.157,-0.156 0.148,-0.156C0.144,-0.144 0.139,-0.139 0.136,-0.126C0.133,-0.129 0.124,-0.126 0.126,-0.133C0.127,-0.133 0.129,-0.133 0.129,-0.13C0.132,-0.132 0.132,-0.138 0.138,-0.136L0.138,-0.142C0.133,-0.142 0.132,-0.142 0.132,-0.138C0.127,-0.136 0.129,-0.141 0.126,-0.141C0.127,-0.144 0.135,-0.142 0.136,-0.145C0.138,-0.145 0.138,-0.144 0.138,-0.142ZM0.121,-0.151C0.123,-0.151 0.123,-0.151 0.123,-0.153L0.126,-0.153L0.126,-0.15C0.124,-0.15 0.124,-0.15 0.124,-0.148L0.121,-0.148L0.121,-0.151ZM0.136,-0.147C0.133,-0.147 0.132,-0.148 0.132,-0.151C0.133,-0.15 0.138,-0.151 0.136,-0.147ZM0.159,-0.15C0.16,-0.156 0.16,-0.144 0.159,-0.15ZM0.103,-0.148C0.1,-0.144 0.096,-0.153 0.103,-0.148ZM0.12,-0.145C0.121,-0.151 0.121,-0.139 0.12,-0.145ZM0.099,-0.144C0.102,-0.148 0.099,-0.132 0.099,-0.144ZM0.123,-0.142C0.123,-0.142 0.124,-0.141 0.123,-0.142ZM0.157,-0.142C0.157,-0.144 0.159,-0.144 0.157,-0.142C0.157,-0.141 0.154,-0.141 0.157,-0.142ZM0.159,-0.138C0.16,-0.138 0.16,-0.138 0.16,-0.139C0.163,-0.138 0.163,-0.136 0.162,-0.135L0.159,-0.135L0.159,-0.138ZM0.099,-0.136C0.099,-0.136 0.1,-0.135 0.099,-0.136ZM0.163,-0.127C0.16,-0.126 0.16,-0.129 0.16,-0.132C0.162,-0.132 0.163,-0.13 0.163,-0.127ZM0.151,-0.129C0.153,-0.135 0.153,-0.123 0.151,-0.129ZM0.124,-0.126C0.124,-0.126 0.126,-0.124 0.124,-0.126ZM0.13,-0.124C0.132,-0.13 0.132,-0.118 0.13,-0.124ZM0.123,-0.123C0.123,-0.123 0.124,-0.121 0.123,-0.123ZM0.174,-0.121C0.174,-0.121 0.175,-0.12 0.174,-0.121ZM0.121,-0.117C0.121,-0.117 0.123,-0.115 0.121,-0.117ZM0.153,-0.117C0.157,-0.12 0.15,-0.112 0.153,-0.117ZM0.144,-0.114C0.144,-0.114 0.145,-0.112 0.144,-0.114ZM0.121,-0.112C0.121,-0.112 0.123,-0.111 0.121,-0.112ZM0.124,-0.111C0.124,-0.117 0.13,-0.111 0.124,-0.111C0.126,-0.105 0.12,-0.111 0.124,-0.111ZM0.142,-0.109C0.142,-0.109 0.144,-0.108 0.142,-0.109ZM0.148,-0.108C0.148,-0.108 0.15,-0.106 0.148,-0.108ZM0.16,-0.1L0.157,-0.1C0.157,-0.102 0.157,-0.103 0.159,-0.105C0.157,-0.105 0.154,-0.105 0.154,-0.103C0.15,-0.105 0.156,-0.106 0.154,-0.109C0.16,-0.109 0.163,-0.106 0.163,-0.102C0.162,-0.102 0.16,-0.102 0.16,-0.1C0.166,-0.1 0.16,-0.094 0.16,-0.1ZM0.121,-0.105C0.124,-0.111 0.123,-0.1 0.121,-0.105ZM0.139,-0.103C0.141,-0.108 0.142,-0.103 0.147,-0.105C0.145,-0.103 0.141,-0.102 0.139,-0.103ZM0.148,-0.103C0.148,-0.103 0.15,-0.102 0.148,-0.103ZM0.123,-0.102C0.123,-0.1 0.121,-0.1 0.12,-0.1C0.12,-0.102 0.121,-0.102 0.123,-0.102ZM0.147,-0.097C0.147,-0.099 0.148,-0.099 0.147,-0.097C0.147,-0.093 0.141,-0.099 0.147,-0.097ZM0.148,-0.082C0.151,-0.091 0.15,-0.093 0.154,-0.099C0.157,-0.099 0.156,-0.094 0.159,-0.096C0.151,-0.082 0.15,-0.064 0.139,-0.054C0.139,-0.064 0.15,-0.073 0.144,-0.085C0.145,-0.085 0.147,-0.082 0.148,-0.082ZM0.142,-0.093C0.144,-0.097 0.145,-0.087 0.142,-0.093ZM0.145,-0.088C0.145,-0.088 0.147,-0.087 0.145,-0.088ZM0.133,-0.087C0.133,-0.087 0.135,-0.085 0.133,-0.087ZM0.141,-0.087C0.145,-0.09 0.139,-0.073 0.141,-0.087ZM0.138,-0.076C0.142,-0.079 0.135,-0.072 0.138,-0.076ZM0.132,-0.049C0.132,-0.049 0.133,-0.048 0.132,-0.049ZM0.133,-0.042C0.135,-0.046 0.136,-0.051 0.141,-0.051C0.136,-0.049 0.141,-0.04 0.133,-0.042ZM0.151,-0.03C0.151,-0.03 0.153,-0.028 0.151,-0.03ZM0.33,-0.489C0.33,-0.486 0.331,-0.484 0.333,-0.484C0.333,-0.487 0.334,-0.489 0.334,-0.49C0.331,-0.49 0.331,-0.489 0.33,-0.489ZM0.3,-0.486C0.301,-0.486 0.303,-0.486 0.303,-0.487C0.301,-0.487 0.3,-0.487 0.3,-0.486ZM0.298,-0.483C0.3,-0.481 0.298,-0.483 0.298,-0.483ZM0.34,-0.483C0.342,-0.481 0.34,-0.483 0.34,-0.483ZM0.303,-0.481C0.301,-0.481 0.301,-0.483 0.303,-0.481ZM0.336,-0.48C0.334,-0.487 0.343,-0.478 0.336,-0.48ZM0.298,-0.48C0.297,-0.481 0.297,-0.48 0.298,-0.48ZM0.298,-0.48C0.3,-0.48 0.3,-0.477 0.298,-0.48ZM0.336,-0.48C0.336,-0.478 0.333,-0.478 0.336,-0.48ZM0.37,-0.48C0.37,-0.477 0.37,-0.474 0.372,-0.474C0.37,-0.477 0.376,-0.48 0.37,-0.48ZM0.295,-0.474C0.297,-0.474 0.301,-0.469 0.301,-0.474C0.298,-0.472 0.297,-0.478 0.295,-0.474ZM0.363,-0.474C0.364,-0.472 0.367,-0.471 0.367,-0.474C0.366,-0.475 0.363,-0.477 0.363,-0.474ZM0.31,-0.474C0.306,-0.475 0.301,-0.471 0.306,-0.469C0.306,-0.472 0.313,-0.468 0.31,-0.474ZM0.363,-0.474C0.363,-0.468 0.357,-0.474 0.363,-0.474ZM0.295,-0.468C0.297,-0.466 0.295,-0.468 0.295,-0.468ZM0.31,-0.468C0.315,-0.471 0.307,-0.463 0.31,-0.468ZM0.294,-0.465C0.297,-0.471 0.295,-0.46 0.294,-0.465ZM0.388,-0.459C0.381,-0.45 0.37,-0.444 0.364,-0.433C0.376,-0.436 0.387,-0.45 0.388,-0.459ZM0.28,-0.456C0.279,-0.457 0.279,-0.456 0.28,-0.456ZM0.345,-0.411L0.346,-0.411C0.346,-0.412 0.345,-0.412 0.345,-0.411ZM0.345,-0.394C0.346,-0.391 0.346,-0.394 0.345,-0.394ZM0.283,-0.303C0.285,-0.303 0.285,-0.303 0.285,-0.304C0.283,-0.304 0.283,-0.304 0.283,-0.303ZM0.283,-0.303C0.282,-0.303 0.282,-0.301 0.283,-0.301L0.283,-0.303ZM0.099,-0.298C0.1,-0.295 0.1,-0.298 0.099,-0.298ZM0.28,-0.288C0.282,-0.286 0.28,-0.288 0.28,-0.288ZM0.102,-0.264C0.1,-0.27 0.106,-0.264 0.102,-0.264ZM0.253,-0.246C0.256,-0.246 0.255,-0.241 0.258,-0.241C0.259,-0.244 0.255,-0.25 0.253,-0.246ZM0.238,-0.216C0.232,-0.213 0.238,-0.222 0.234,-0.222C0.231,-0.219 0.234,-0.216 0.234,-0.213C0.231,-0.21 0.232,-0.213 0.228,-0.213C0.231,-0.207 0.225,-0.208 0.223,-0.204C0.226,-0.199 0.225,-0.198 0.226,-0.195C0.231,-0.204 0.234,-0.205 0.241,-0.21C0.238,-0.211 0.238,-0.213 0.24,-0.214C0.238,-0.214 0.238,-0.214 0.238,-0.216ZM0.234,-0.202C0.237,-0.208 0.235,-0.198 0.234,-0.202ZM0.232,-0.198C0.232,-0.196 0.231,-0.196 0.231,-0.195C0.234,-0.195 0.235,-0.195 0.235,-0.198L0.232,-0.198ZM0.216,-0.177C0.217,-0.178 0.216,-0.178 0.216,-0.177ZM0.216,-0.177L0.213,-0.177C0.213,-0.174 0.214,-0.174 0.214,-0.172C0.216,-0.172 0.216,-0.175 0.216,-0.177ZM0.207,-0.159C0.205,-0.16 0.205,-0.159 0.207,-0.159ZM0.207,-0.159C0.213,-0.159 0.207,-0.153 0.207,-0.159ZM0.213,-0.157C0.21,-0.156 0.213,-0.156 0.213,-0.157ZM0.199,-0.153C0.199,-0.159 0.205,-0.153 0.199,-0.153ZM0.204,-0.15C0.207,-0.154 0.207,-0.145 0.211,-0.148L0.211,-0.151C0.211,-0.153 0.211,-0.153 0.21,-0.153C0.21,-0.151 0.21,-0.151 0.208,-0.151C0.21,-0.156 0.205,-0.154 0.204,-0.156C0.205,-0.153 0.199,-0.151 0.204,-0.15ZM0.199,-0.153C0.199,-0.151 0.196,-0.151 0.199,-0.153ZM0.199,-0.15C0.198,-0.145 0.196,-0.133 0.192,-0.141C0.187,-0.132 0.19,-0.123 0.187,-0.117C0.196,-0.118 0.192,-0.133 0.202,-0.133C0.195,-0.139 0.205,-0.145 0.199,-0.15ZM0.204,-0.15C0.205,-0.147 0.205,-0.15 0.204,-0.15ZM0.204,-0.142L0.204,-0.139L0.207,-0.139L0.207,-0.142L0.204,-0.142ZM0.201,-0.13C0.202,-0.132 0.201,-0.132 0.201,-0.13ZM0.201,-0.13C0.198,-0.13 0.193,-0.123 0.198,-0.12C0.199,-0.123 0.201,-0.126 0.201,-0.13ZM0.193,-0.117C0.195,-0.115 0.193,-0.117 0.193,-0.117ZM0.192,-0.112C0.192,-0.109 0.187,-0.111 0.189,-0.106C0.192,-0.105 0.195,-0.112 0.192,-0.112ZM0.181,-0.1C0.183,-0.102 0.186,-0.102 0.186,-0.106L0.181,-0.106L0.181,-0.1ZM0.181,-0.1C0.181,-0.096 0.175,-0.102 0.181,-0.1ZM0.186,-0.096C0.184,-0.105 0.192,-0.096 0.186,-0.096ZM0.18,-0.093C0.181,-0.094 0.183,-0.097 0.18,-0.097C0.178,-0.096 0.178,-0.094 0.178,-0.093L0.18,-0.093ZM0.186,-0.096C0.184,-0.096 0.184,-0.094 0.184,-0.093C0.186,-0.093 0.186,-0.094 0.186,-0.096ZM0.178,-0.093C0.175,-0.093 0.175,-0.094 0.174,-0.094C0.171,-0.093 0.177,-0.084 0.178,-0.088C0.177,-0.088 0.177,-0.09 0.178,-0.088C0.18,-0.088 0.18,-0.09 0.181,-0.09C0.181,-0.088 0.181,-0.085 0.183,-0.085C0.183,-0.088 0.186,-0.088 0.184,-0.093L0.18,-0.093C0.18,-0.091 0.178,-0.091 0.178,-0.093ZM0.174,-0.082C0.175,-0.082 0.177,-0.082 0.177,-0.084C0.175,-0.084 0.174,-0.084 0.174,-0.082ZM0.18,-0.082C0.181,-0.081 0.18,-0.082 0.18,-0.082ZM0.148,-0.082L0.148,-0.081C0.15,-0.081 0.15,-0.082 0.148,-0.082ZM0.159,-0.058C0.159,-0.055 0.163,-0.057 0.163,-0.054C0.156,-0.049 0.153,-0.045 0.156,-0.037C0.16,-0.037 0.159,-0.043 0.165,-0.04C0.169,-0.052 0.175,-0.064 0.178,-0.078C0.175,-0.078 0.175,-0.079 0.172,-0.079C0.172,-0.076 0.171,-0.075 0.169,-0.075C0.169,-0.073 0.168,-0.073 0.168,-0.072C0.169,-0.072 0.172,-0.072 0.172,-0.07C0.166,-0.07 0.172,-0.066 0.169,-0.066C0.168,-0.067 0.154,-0.063 0.159,-0.058C0.159,-0.06 0.16,-0.06 0.16,-0.058L0.159,-0.058ZM0.169,-0.075C0.163,-0.073 0.169,-0.079 0.169,-0.075ZM0.168,-0.072C0.168,-0.067 0.162,-0.073 0.168,-0.072Z" style="fill:rgb(138,50,148);fill-rule:nonzero;"/>
                        </g>
                    </g>
                </g>
            </g>
        </g>
    </g>
</svg>
