<svg viewBox="0 0 2000 2250" xmlns="http://www.w3.org/2000/svg"><g transform="translate(-8982.68-30043.4)"><g transform="translate(647.82 11354)"/><g transform="translate(2795.11 21463.9)"/><g transform="translate(647.82 11354)"/><g transform="translate(2795.51 38274.9)"/><g transform="matrix(-.666667 0 0 .75 10982.7 30043.4)"><g fill="none" fill-rule="evenodd"><path d="M0 0h3000v3000H0Z"/><g fill="#1A1A1A"><path d="M500 1779.11L1252.74 2625H500v-845.89Z" transform="matrix(1.5 0 0 1.33333-750-500)"/><path d="M2500 2624.87l-.15.13h-752.7L500 1223.51V377.35l2000 2247.51Z" transform="matrix(1.5 0 0 1.33333-750-500)"/></g><path fill="#8A3294" d="M992.258 375h663.992c465.68 0 843.75 378.072 843.75 843.75 0 227.16-89.96 433.47-236.21 585.2l-377.19-423.89c32.07-45.68 50.9-101.31 50.9-161.31 0-155.23-126.02-281.25-281.25-281.25h-163.46L992.25 375Z" transform="matrix(1.5 0 0 1.33333-750-500)"/></g></g></g></svg>