<!-- Icon Created by Nick Novell, from the Noun Project (https://thenounproject.com/search/?q=origami%20bird&i=320923) -->
<svg xmlns="http://www.w3.org/2000/svg" xmlns:xlink="http://www.w3.org/1999/xlink" xml:space="preserve" style="shape-rendering:geometricPrecision;text-rendering:geometricPrecision;image-rendering:optimizeQuality;" viewBox="0 0 7.37804 7.498925" x="0px" y="0px" fill-rule="evenodd" clip-rule="evenodd"><g><path class="fil0" d="M4.88328 3.34641l0.00639379 -0.00678725 0.743647 2.05182 -0.413334 -0.246603 0.159943 0.854308 -1.09875 -1.06855 0.104858 -0.283392 -0.331592 -0.197814 -1.65668 -0.630132 2.48177 -0.503732 -0.00137712 0.00363954 0.00511503 0.0272474zm-0.00265588 -0.520454l-1.78082 -0.962019 -0.0427892 -0.023116 0.00167222 -0.00226242 0.898081 -1.25535 0.00442647 -0.00629542 0.00304934 -0.00422974 0.00285261 0.00659052 0.951199 2.23881 0.0092464 0.0217389 0.00285261 0.00678725 -0.00344281 9.83659e-005 -0.00373791 0.000196732 -0.00363954 9.83659e-005 -0.0389529 -0.0210503zm1.08586 -1.31525l-1.77472 -1.16967 -0.00285261 -0.00659052 -0.00314771 0.0043281 -0.00845947 -0.00324608 -0.00049183 -0.00108203 2.98462 -0.334444 -1.19495 1.5107zm-1.12668 1.63583l-2.70005 0.116662 0.21729 0.386381 2.48276 -0.503043zm-2.69926 -0.0361987l0.824897 -1.12344 1.87308 1.00628 -2.69798 0.117154zm1.93073 -2.62972l1.80285 1.15698 -0.826372 1.12108 -0.976479 -2.27806zm-2.13474 2.57886l0.82352 -1.12324 -1.62825 -0.236373 0.804732 1.35961zm-0.63928 -0.738335l-1.29725 0.406153 0.978938 -0.947559 0.318312 0.541406zm3.72463 0.6441l1.47136 -1.87397 0.884802 0.126204 -2.35616 1.74777z"/></g></svg>
