<svg version="1.0" xmlns="http://www.w3.org/2000/svg"
 width="179.000000pt" height="154.000000pt" viewBox="0 0 179.000000 154.000000"
 preserveAspectRatio="xMidYMid meet">
<metadata>
Created by potrace 1.13, written by Peter Selinger 2001-2015
</metadata>
<g transform="translate(0.000000,154.000000) scale(0.100000,-0.100000)"
fill="#000000" stroke="none">
<path d="M1078 1485 c-13 -15 -50 -42 -84 -61 -109 -61 -223 -200 -224 -274
-1 -70 -28 -92 -54 -42 -25 49 -94 102 -194 150 -96 46 -98 47 -197 47 -88 -1
-107 -4 -160 -28 -33 -16 -79 -46 -102 -69 -22 -22 -46 -37 -52 -34 -8 5 -11
-43 -11 -164 0 -102 4 -169 9 -165 5 3 33 -39 63 -92 45 -84 70 -115 173 -216
66 -66 150 -139 187 -163 36 -24 108 -80 160 -124 51 -44 110 -92 131 -107 34
-24 39 -25 53 -11 14 14 14 20 -4 61 -22 50 -81 99 -206 172 -93 54 -247 184
-286 240 -18 26 -52 70 -77 97 -78 88 -109 192 -78 264 10 21 21 74 25 117 7
73 10 82 44 115 36 37 36 37 124 37 156 -1 291 -68 342 -169 32 -66 31 -104
-5 -156 -28 -41 -28 -43 -12 -68 9 -15 26 -46 39 -69 46 -89 161 -73 214 29
32 62 9 115 -71 162 -46 27 -56 49 -31 63 8 4 24 30 36 57 11 27 38 70 59 95
20 25 52 68 70 94 55 81 75 88 221 85 147 -4 181 -19 200 -89 10 -38 72 -111
113 -134 17 -10 40 -105 38 -163 -2 -64 -84 -171 -257 -335 -75 -72 -154 -153
-175 -181 -22 -28 -77 -95 -124 -150 -93 -108 -131 -176 -144 -254 l-8 -52 50
0 c38 0 47 3 39 13 -19 23 14 73 143 214 149 162 244 255 300 291 45 29 64 47
156 152 76 87 88 106 120 180 13 30 36 76 51 101 24 39 27 51 18 74 -5 14 -10
53 -10 86 0 53 -5 69 -47 142 -54 94 -137 183 -179 192 -16 4 -60 16 -99 27
-42 13 -104 22 -156 23 -47 1 -91 5 -97 9 -6 4 -22 -5 -34 -19z"/>
</g>
</svg>
