<?xml version="1.0" encoding="UTF-8" standalone="no"?><!DOCTYPE svg PUBLIC "-//W3C//DTD SVG 1.1//EN" "http://www.w3.org/Graphics/SVG/1.1/DTD/svg11.dtd"><svg width="100%" height="100%" viewBox="0 0 417 417" version="1.1" xmlns="http://www.w3.org/2000/svg" xmlns:xlink="http://www.w3.org/1999/xlink" xml:space="preserve" xmlns:serif="http://www.serif.com/" style="fill-rule:evenodd;clip-rule:evenodd;stroke-linejoin:round;stroke-miterlimit:2;"><rect id="Artboard1" x="0" y="0" width="416.667" height="416.667" style="fill:none;"/><path d="M257.925,151.842c-15.871,3.987 -34.279,8.062 -50.646,7.558c-9.829,-0.3 -19.137,-2.587 -27.95,-4.642c-59.421,-13.845 -113.067,-19.079 -179.329,-3.87l4.258,27.866c4.117,0.092 10.988,1.588 11.3,9.467c2.53,63.475 19.055,93.912 79.192,92.341c74.421,-1.941 93.771,-61.504 97.842,-84.166c2.183,-12.163 8.446,-13.4 15.446,-13.588c12.4,-0.333 13.808,8.73 15.979,14.217c25.512,64.488 40.846,79.158 94.375,83.821c81.375,7.096 72,-53.246 83.008,-88.313c2.108,-6.7 4.421,-10.133 11.783,-10.295l3.484,-27.871c-47.159,-10.075 -96.096,-18.259 -158.742,-2.525Zm-237.412,16.85c-5.88,-0 -10.646,-1.213 -10.646,-2.709c-0,-1.495 4.766,-2.708 10.646,-2.708c5.879,0 10.645,1.217 10.645,2.708c0,1.496 -4.766,2.709 -10.645,2.709Zm150.566,42.962c-11.387,33.604 -29.237,57.992 -75.087,59.221c-45.413,0 -58.609,-8.275 -64.638,-61.158c0,-35.479 -2.325,-56.25 65.025,-56.125c45.413,4.358 93.046,3.925 74.7,58.062Zm214.817,-1.933c-6.029,52.879 -19.221,61.158 -64.642,61.158c-45.85,-1.229 -63.7,-25.616 -75.087,-59.221c-18.342,-54.141 29.287,-53.708 74.704,-58.062c67.346,-0.125 65.025,20.646 65.025,56.125Zm11.417,-38.317c-5.875,0 -10.646,-1.216 -10.646,-2.708c-0,-1.496 4.771,-2.708 10.646,-2.708c5.875,-0 10.645,1.212 10.645,2.708c0,1.492 -4.766,2.708 -10.645,2.708Z" style="fill:#cc1f33;fill-rule:nonzero;"/></svg>