<svg width="1440" height="3054" viewBox="0 0 1440 3054" fill="none" xmlns="http://www.w3.org/2000/svg">
<g clip-path="url(#clip0_6_18)">
<rect width="1440" height="3054" fill="white"/>
<rect width="1440" height="9659" fill="#FFFAA5"/>
<g clip-path="url(#clip1_6_18)">
<path d="M1292.58 2172.54C1093.56 2127.16 939.796 2016.3 847.597 1819.58C795.996 1709.4 789.85 1595.17 833.52 1479.88C876 1367.7 974.94 1300.58 1095.49 1297.16C1233.19 1293.21 1352.26 1342.54 1458.34 1432.98C1522.13 1487.35 1579.53 1547.79 1623.4 1621.64C1677.58 1712.82 1705.09 1810.94 1678.87 1918.02C1652.99 2023.62 1604.12 2113.74 1504.19 2159.54C1435.63 2190.91 1364.25 2188.91 1292.48 2172.59L1292.58 2172.54Z" fill="#FFFBC6"/>
<path d="M349.379 3034.71C217.823 3057.08 85.3743 3069.66 -42.8607 3021.39C-225.919 2952.48 -345.331 2817.61 -378.641 2612.05C-410.811 2413.59 -297.695 2215.07 -122.171 2138.16C19.7945 2075.94 156.704 2078.63 289.797 2163.91C304.816 2173.54 320.232 2182.7 336.144 2190.49C355.376 2199.86 390.67 2205.23 408.812 2181.33C428.54 2155.33 415.999 2126.32 396.37 2103.84C382.144 2087.52 365.042 2073.26 347.198 2061.41C271.952 2011.51 193.088 1967.18 120.767 1912.96C-50.296 1784.62 -161.529 1607.8 -231.471 1400.28C-276.529 1266.63 -307.361 1129.39 -318.266 987.519C-334.277 779.109 -242.871 606.865 -65.7119 515.11C22.9174 469.207 116.801 444.939 216.038 450.94C366.083 460.047 463.04 582.387 444.65 746.103C436.372 819.644 417.387 892.132 399.889 964.198C366.976 1099.91 356.566 1236.73 374.609 1375.7C389.976 1494.14 439.693 1597.27 510.775 1686.76C598.909 1797.73 693.784 1902.64 785.288 2010.56C850.372 2087.31 914.465 2165.59 946.635 2265.29C1005.87 2448.8 978.012 2700.43 792.03 2852.57C674.601 2948.64 537.939 2994.44 395.825 3026.55C380.458 3030.02 364.795 3032.08 349.279 3034.76L349.379 3034.71Z" fill="#FFFBC6"/>
<path d="M1839.77 -1551.4C1533.33 -1472.96 1054.45 -1248.02 1023.62 -1020.72C987.134 -751.873 1061.24 -671.226 1030.06 -375.957C998.881 -80.6891 792.03 110.032 726.698 524.219C661.366 938.405 881.106 1106.49 1232.2 1098.28C1583.3 1090.07 1883.54 924.034 2105.31 720.362C2323.17 520.323 2265.96 282.908 2147.2 151.198C2027.73 18.7515 1844.43 3.85367 1877.94 -121.803C1911.5 -247.459 2100.7 -303.47 2271.07 -446.761C2431.72 -581.84 2532.45 -778.826 2516.83 -1096.57C2501.22 -1414.32 2146.11 -1629.83 1839.67 -1551.4H1839.77ZM1671.83 398.352C1620.62 505.426 1500.32 554.909 1430.43 524.587C1360.54 494.266 1353.8 382.875 1400.74 300.017C1447.73 217.159 1531.55 106.137 1654.98 138.512C1720.51 155.673 1723.03 291.278 1671.83 398.352ZM1849.78 -723.552C1781.18 -489.032 1675.05 -424.019 1603.97 -467.765C1532.89 -511.563 1572.34 -678.596 1640.75 -807.779C1709.16 -936.962 1769.28 -1035.03 1832.83 -1020.77C1885.08 -1009.03 1918.39 -958.071 1849.78 -723.552Z" fill="#FFFBC6"/>
<path d="M-241.334 18.381C-275.636 -234.984 -222.895 -461.818 -55.1037 -651.276C38.879 -757.402 155.812 -811.571 294.258 -807.412C429.036 -803.411 539.773 -714.289 592.911 -573.577C653.633 -412.809 650.957 -252.198 599.95 -89.9034C569.317 7.64203 529.711 100.187 470.476 182.255C397.362 283.591 306.105 356.342 183.422 369.397C62.3747 382.294 -51.9313 361.659 -140.808 262.639C-201.778 194.679 -228.992 109.715 -241.384 18.381H-241.334Z" fill="#FFFBC6"/>
</g>
</g>
<defs>
<clipPath id="clip0_6_18">
<rect width="1440" height="3054" fill="white"/>
</clipPath>
<clipPath id="clip1_6_18">
<rect width="2784" height="4622.83" fill="white" transform="translate(-267 -1569)"/>
</clipPath>
</defs>
</svg>
