<svg version="1.1" viewBox="0 0 159.2 74.801" xmlns="http://www.w3.org/2000/svg">
 <g transform="translate(-6849.9 -973.78)">
  <path d="m6998.7 1008.4c-0.2444-0.2774-1.1989-0.7882-2.1212-1.1352-5.1393-1.9332-7.3636-2.8674-15.132-6.355-4.6949-2.1079-9.0195-3.8857-9.6103-3.9508-1.8502-0.20366-8.2365-1.724-9.384-2.234-0.6029-0.26787-2.2446-0.68391-3.6481-0.92449-1.4037-0.24056-3.0825-0.66387-3.731-0.94063-4.4911-1.9169-8.2142-2.4871-14.011-2.1458-2.1321 0.12556-4.9684 0.13187-6.3028 0.0139-1.3343-0.11786-2.6327-0.13685-2.8853-0.0422-0.2526 0.0946-0.5911 0.07-0.7521-0.0548-0.447-0.34602-3.1846-0.5738-6.4712-0.53843-1.6278 0.0177-3.9186-0.11013-5.0907-0.28368-1.172-0.17355-2.3007-0.25193-2.5082-0.1742-0.2075 0.0777-0.9625-0.1354-1.6779-0.47356-2.115-0.99977-8.1445-0.63401-13.869 0.84138-0.9936 0.25607-2.2589 0.4482-2.8117 0.42693l-1.0049-0.0387 0.723-1.375c0.3977-0.75626 0.6675-1.5234 0.5996-1.7047-0.1384-0.3694-4.5194-2.1116-5.7021-2.2675-0.4197-0.0553-1.5592-0.39568-2.5321-0.75635-0.973-0.36066-1.9926-0.57197-2.266-0.46956s-0.8678 0.0905-1.3209-0.0264c-0.453-0.11694-2.0258 0.0364-3.4951 0.34081-4.2415 0.87871-6.0015 1.1224-6.8026 0.94191-0.743-0.16741-6.0273 0.0711-6.6372 0.2996-0.1761 0.0659-0.2723 0.24756-0.2138 0.40357 0.1401 0.374 2.4037 0.61368 3.782 0.40044 0.6007-0.0929 1.5495-0.1383 2.1084-0.1008 1.6867 0.11319 6.0175-0.22432 8.7993-0.68573 3.1021-0.51455 3.9927-0.44117 6.2307 0.5134 0.9257 0.3948 1.9571 0.75528 2.2921 0.80103 0.3349 0.0457 0.7064 0.3433 0.8255 0.66119 0.2971 0.79306-0.4555 1.3944-1.1634 0.92963-0.3439-0.22585-0.675-0.22764-0.8476-4e-3 -1.1291 1.4584-2.5529 4.5993-3.0285 6.6807-0.4184 1.831-1.9213 6.2778-3.388 10.024-1.2946 3.3067-1.7838 6.3468-1.1782 7.3217 0.6115 0.9845 0.7155 4.958 0.1829 6.9842-0.3992 1.5185-0.698 1.8631-0.9749 1.124-0.3168-0.8455-0.4304-8.3397-0.1757-11.587 0.2678-3.415 0.2151-4.0698-0.2604-3.2385-0.1647 0.2877-0.245 0.6703-0.1786 0.8502 0.066 0.1798-0.01 1.725-0.1645 3.4338-0.1569 1.7087-0.2808 4.2066-0.2752 5.5509 0.01 1.3444 0.01 2.9647 0.01 3.6008s0.226 1.7836 0.5051 2.5501c0.4553 1.2498 0.616 1.4109 1.5591 1.5621 0.803 0.1286 1.1279 0.3741 1.3744 1.0382 0.5384 1.4504 0.3074 1.8174-1.3697 2.1763-2.1623 0.4627-10.214 1.0375-12.014 0.8577-0.849-0.085-3.4073-0.1714-5.6852-0.1926-2.2779-0.021-4.4635-0.1153-4.8568-0.209-0.9435-0.2248-1.4935 0.01-1.2936 0.5372 0.089 0.2367 0.6519 0.4511 1.2515 0.4763 0.5996 0.025 2.5505 0.176 4.3353 0.3351 4.914 0.4379 11.053 0.7071 13.595 0.5961 1.2507-0.055 3.9567-0.045 6.0134 0.02 2.338 0.075 4.1798-0.046 4.9149-0.3211 0.7896-0.2958 1.437-0.3214 1.9716-0.078 1.0572 0.481 1.7676 0.1711 2.249-0.981 0.2176-0.5209 0.7455-1.2632 1.1731-1.6494 1.0243-0.9255 1.4619-1.7429 1.8051-3.3724 0.1558-0.7394 0.4069-1.3906 0.558-1.4471 0.1511-0.057 2.2826 1.1763 4.7367 2.7398 6.018 3.8341 7.6926 4.6162 9.9202 4.6332 2.5391 0.019 5.8152-0.4811 8.4322-1.2883 3.0829-0.9508 3.5605-0.9857 3.985-0.2909 0.2017 0.3303 1.0692 2.046 1.9278 3.8127 0.8586 1.7668 2.0393 3.776 2.6237 4.4651 0.927 1.0931 1.2788 1.2729 2.7575 1.4097 0.9321 0.086 2.724 0.128 3.982 0.093s3.5873 0.1148 5.1763 0.3337l2.8891 0.3978 1.1985-1.5325c0.724-0.9255 1.2386-1.9724 1.2996-2.6433 0.081-0.8895 0.2752-1.1761 0.9744-1.4381 1.3726-0.5142 2.3608 0.1183 3.0472 1.9506 0.4376 1.1679 0.8183 1.697 1.534 2.1317 0.5996 0.3643 1.1024 0.9798 1.3584 1.663 0.4465 1.1919 1.2687 1.4597 2.7635 0.8997 0.4315-0.1616 1.2806-0.3332 1.887-0.3813 0.7255-0.058 1.4296-0.3217 2.0595-0.7714 1.9857-1.4221 2.5746-3.4993 1.8309-6.4583l-0.3793-1.5088 2.1187-0.9588c2.0228-0.9153 2.1518-1.0316 2.8494-2.5674 0.9902-2.1797 0.9909-3.3799 0.01-5.3515-1.758-3.5093-2.8984-5.5199-3.9004-6.8766-0.5778-0.7824-1.2345-1.6711-1.4594-1.9749-0.5432-0.7337-0.098-1.2459 0.8897-1.0239 0.4374 0.098 1.6567 0.1135 2.7095 0.034 1.0527-0.08 2.405 0.029 3.005 0.2419 0.7352 0.2611 1.283 0.2545 1.6807-0.02 0.8857-0.6116 3.6361-0.1281 6.5735 1.1555 2.7505 1.202 4.3153 1.572 6.249 1.4771 0.8463-0.042 1.3491 0.1332 1.654 0.5747 1.2134 1.7573 8.7498 2.4523 11.289 1.041 2.0808-1.1564 3.5022-5.1514 2.3131-6.5013zm-2.3432 1.7228c-0.7231 0.8228-1.5937 0.9569-3.9132 0.6028-1.2351-0.1885-2.2011-0.2239-2.1467-0.079 0.1785 0.4768 1.8407 1.0023 3.4691 1.097 2.0676 0.1201 2.3424 0.6594 0.5721 1.1228-0.2942 0.077-1.4097 0.074-2.4791-0.01-1.0693-0.081-2.0921-0.1569-2.2728-0.1686-0.1806-0.012 0.1748 0.185 0.7898 0.4371 1.0092 0.4137 1.0609 0.4799 0.5297 0.6789-0.3413 0.1278-2.1277-0.4212-4.2523-1.307-2.015-0.8401-4.5938-1.6942-5.7307-1.8979s-3.0666-0.7647-4.2882-1.2466c-2.4066-0.9494-3.2485-1.0862-8.1718-1.328-3.4715-0.1705-4.655-0.5386-4.6478-1.4454 0.01-0.3448-0.3179-0.7196-0.833-0.9736-0.4606-0.2273-1.0959-0.8947-1.4118-1.4834-1.0086-1.8797-1.3352-2.3029-1.5563-2.0173-0.1188 0.1535-0.073 0.6622 0.103 1.1306 0.1754 0.4683 0.1755 0.9053 3e-4 0.9709-0.3126 0.1171-0.6192-0.8591-1.1365-3.6189-0.1431-0.76321-0.3262-1.116-0.5382-1.0366-0.1766 0.0661-0.2724 0.25059-0.2127 0.40982 0.06 0.15933-0.01 0.33383-0.1539 0.38783-0.1443 0.054-0.596-0.51959-1.0038-1.2748-0.4899-0.90727-0.8796-1.3214-1.1486-1.2206-0.2239 0.0839-0.5019-0.10037-0.6177-0.40951-0.1158-0.30908-0.3709-0.59367-0.5671-0.63245-0.2022-0.0398-0.2364 0.25022-0.079 0.67048 0.1527 0.40747 0.1472 0.78976-0.012 0.84942-0.1593 0.0597-0.351-0.0541-0.426-0.25314-0.075-0.19907-0.8099-1.0008-1.6329-1.7821-1.4345-1.3619-1.4824-1.3807-1.1596-0.45414 0.4538 1.3024-0.1754 1.1166-1.191-0.35171-0.5948-0.85998-0.9308-1.104-1.2472-0.90591-0.3438 0.21535-0.3021 0.56526 0.2031 1.7002 0.4579 1.0287 0.5492 1.581 0.3258 1.9714-0.1896 0.33164-0.1349 1.0104 0.1409 1.7466 0.3279 0.8755 0.3396 1.7522 0.043 3.2116-0.4373 2.1516-1.1271 3.2922-1.12 1.8523 0-0.4339 0.051-1.0766 0.1087-1.4282 0.058-0.3515 0.079-1.2607 0.047-2.0204-0.046-1.089-0.1356-1.3524-0.4234-1.2446-0.5336 0.1999-0.6762 0.8666-0.5937 2.7774 0.04 0.9361-0.019 1.8215-0.1321 1.9675-0.3177 0.4103-0.412-0.1002-0.5441-2.9447-0.067-1.4479-0.2346-2.6836-0.3718-2.7461-0.4028-0.18328-0.6677 1.204-0.5077 2.659 0.1808 1.6447-0.3641 2.0565-0.6391 0.483-0.1562-0.8943-0.257-1.0291-0.5653-0.756-0.2667 0.2361-0.5849 0.071-1.0998-0.569-0.8091-1.0062-2.4597-1.5831-3.4588-1.2089-0.361 0.1353-0.9644 0.1239-1.3409-0.026-0.3766-0.14906-0.7899-0.13507-0.9187 0.031-0.3687 0.4764 1.0137 1.3207 2.348 1.4339 1.1431 0.097 1.1902 0.1441 1.8177 1.8191 0.3543 0.9457 0.7241 2.3231 0.8217 3.0609 0.098 0.7378 0.2385 1.6933 0.3128 2.1232 0.074 0.4299-0.096 1.3107-0.3774 1.9573-0.4893 1.1219-1.0043 3.0801-1.4345 5.4539-0.2803 1.5466-0.4832 1.9342-0.7041 1.3446-0.2264-0.6045 0.2616-3.5865 0.9605-5.8687 0.6904-2.2545 0.8835-5.2837 0.3234-5.0739-0.1324 0.05-0.2934 1.0014-0.3577 2.1152-0.1311 2.2669-0.6347 2.9553-0.8008 1.0944-0.1584-1.7741-0.4756-1.5275-0.8141 0.6327-0.1692 1.0805-0.4343 2.012-0.5891 2.07-0.3375 0.1264-0.4479-1.0192-0.209-2.1698 0.094-0.4548 0.012-1.0927-0.1822-1.4176-0.3138-0.5241-0.3551-0.4691-0.3656 0.4866-0.014 1.3-0.4994 1.6036-0.7715 0.483-0.1099-0.4522-0.3746-0.7998-0.6033-0.7921-0.2242 0.01-0.3247 0.235-0.2234 0.5054 0.2157 0.5759-0.2091 3.9407-0.4818 3.8167-0.1021-0.047-0.2164-0.8124-0.254-1.702-0.083-1.9653-0.1407-2.1473-0.487-1.542-0.1485 0.2595-0.2067 1.7482-0.1292 3.308 0.1422 2.8656-0.666 6.7529-1.9869 9.5557-0.3555 0.7544-0.4087 1.1725-0.148 1.1629 0.2238-0.01 0.4245-0.074 0.4458-0.1465 0.021-0.072 0.3987-1.2321 0.8385-2.5772 0.9243-2.8275 0.9186-2.8088 1.3285-4.3772 0.3201-1.2249 0.7467-1.6686 0.9872-1.0267 0.2595 0.6928-1.0462 5.4286-2.0802 7.5444-1.0874 2.2251-1.6541 2.7592-1.9863 1.8722-0.1094-0.292-0.3331-0.5919-0.4971-0.6666-0.5551-0.2525-2.1072-2.8574-1.9355-3.2482 0.091-0.2066 0.126-0.4798 0.078-0.6072-0.147-0.3922-0.8733 0.035-1.0823 0.6366-0.1088 0.3131-0.2914 0.6044-0.406 0.6473-0.2754 0.1032-1.6273-1.6914-2.0593-2.7337-0.3414-0.823-0.3416-0.8231-0.3024-0.014 0.022 0.446 0.2125 1.3402 0.424 1.9874 0.3073 0.9398 0.2909 1.0788-0.081 0.6907-0.7824-0.8162-1.4485-2.8968-1.2333-3.8522 0.2387-1.0593-0.052-1.3069-0.6871-0.5846-0.4978 0.5666-0.3845 1.8096 0.3419 3.7487 0.5044 1.3464 0.2419 1.8489-0.4556 0.8723-0.8064-1.1289-1.1499-2.5296-0.8742-3.5645 0.4188-1.5721 0.4249-3.4903 0.012-3.6783-0.2131-0.097-0.3955 0.3976-0.449 1.2178-0.05 0.7596-0.2374 1.555-0.4174 1.7678-0.2154 0.2545-0.1184 1.0874 0.2839 2.4369 0.8385 2.8139 0.8159 3.2025-0.1287 2.2069-1.0974-1.1568-1.5362-2.5398-1.2751-4.0196 0.2486-1.4088 0.063-1.7305-0.5017-0.8704-0.2665 0.4057-0.2044 1.1721 0.2208 2.7287 0.3252 1.1904 0.472 2.2426 0.3262 2.338-0.1459 0.095-0.6217-0.3532-1.0573-0.9969-0.8271-1.2221-0.9785-1.138-0.7841 0.4356 0.1056 0.8546 0.069 0.9022-0.3927 0.5115-0.317-0.2681-0.7591-1.3159-1.1714-2.7757-0.4064-1.4395-0.7698-2.3048-0.941-2.2406-0.304 0.1138 0.6023 4.0058 1.22 5.2385 0.5317 1.0612 0.2225 1.0502-0.8048-0.029-0.6118-0.6425-0.9868-1.3815-1.267-2.4969-0.2469-0.9821-0.5092-1.5427-0.6903-1.4749-0.1606 0.06-0.1464 0.5377 0.032 1.0612 0.178 0.5236 0.3433 1.316 0.3672 1.761 0.043 0.8 0.037 0.7995-0.5229-0.052-0.8127-1.2346-1.2577-0.8818-0.5108 0.4052 0.674 1.1615 0.4693 1.916-0.3294 1.2141-0.2688-0.2362-0.8306-1.0699-1.2485-1.8528-0.8996-1.6854-1.3854-1.7971-0.5738-0.132 0.428 0.8782 0.4563 1.1547 0.1189 1.1672-0.6429 0.024-1.8711-1.724-2.6864-3.8226-0.5153-1.3261-0.7956-1.7547-1.0251-1.567-0.2253 0.1844-0.026 0.9928 0.6954 2.817 0.9182 2.323 0.9517 2.5204 0.3654 2.1443-0.5076-0.3254-0.9004-1.1553-1.8336-3.8731-0.9576-2.789-1.1915-3.2768-1.2076-2.5192-0.011 0.5169 0.1736 1.7384 0.4102 2.7146 0.2945 1.2148 0.3013 1.7162 0.021 1.5889-0.2499-0.1137-0.8338-1.4504-1.5016-3.4372-0.6009-1.7882-1.1717-3.2216-1.2686-3.1853-0.2246 0.084-0.087 2.0943 0.2601 3.7895 0.1473 0.7206 0.1677 1.4397 0.045 1.598-0.2276 0.2939-1.5565-3.7409-1.8551-5.6323-0.2408-1.5255-0.389-0.1523-0.2885 2.6739 0.05 1.3926 0.1594 2.7629 0.2442 3.0452 0.085 0.2821-0.1423 0.03-0.5048-0.5608-0.4536-0.739-0.6749-1.531-0.7098-2.5406-0.064-1.8371 0.2295-4.5945 0.5295-4.982 0.3174-0.4102 0.096-0.8653-0.3414-0.7015-0.2003 0.075-0.5021 0.8745-0.6709 1.7765-0.1688 0.9021-0.3831 1.6055-0.4762 1.5631-0.4075-0.1854-0.3392-2.5665 0.1074-3.7456 0.2689-0.7099 0.4404-1.4205 0.381-1.5791-0.06-0.1585 0.035-0.5391 0.2111-0.8459 0.5969-1.0434 1.7261-5.0937 1.18-4.2323-0.9112 1.4369-2.6886 7.2224-3.1777 10.344-0.2523 1.6101-0.7195 0.9157-0.4971-0.7391 0.098-0.7321 0.1171-1.4959 0.042-1.6974-0.075-0.2014-0.01-0.415 0.1524-0.4746 0.1592-0.06 0.2097-0.3215 0.1122-0.5819-0.129-0.3444-0.2633-0.2034-0.4928 0.5179-0.3759 1.1813-0.9459 1.2126-0.9402 0.052 0.01-0.8976-0.5532-0.9373-0.9488-0.068-0.4009 0.881-0.6816 0.2632-0.5211-1.1473 0.093-0.8203 0.4768-1.7493 0.9208-2.2305 0.4185-0.4537 1.0002-1.3062 1.2928-1.8944 0.5178-1.0414 0.5481-1.0589 1.1506-0.6651 0.3404 0.2225 0.6374 0.3341 0.66 0.2481 0.022-0.086 0.1788-0.7641 0.3469-1.5069 0.1682-0.7428 0.4032-1.3879 0.5222-1.4338 0.1195-0.045 0.1741-0.1963 0.1223-0.3345-0.052-0.1382-0.6143-0.022-1.2502 0.2579-0.9703 0.4272-1.3089 0.8392-2.1053 2.5609-0.889 1.9221-1.5239 2.665-1.7536 2.0518-0.175-0.4672 1.5115-4.8869 2.1421-5.6135 0.3847-0.4433 0.4376-0.64294 0.1435-0.54114-0.2565 0.0888-0.6044 0.51034-0.7734 0.93684-0.1689 0.4265-0.4543 0.8305-0.6343 0.898-0.3387 0.1269-1.2065 2.3836-1.7303 4.5-0.1652 0.6673-0.4258 1.2604-0.5793 1.3179-0.3524 0.132-0.5493-0.3552-0.2827-0.6995 0.1104-0.1426 0.1827-0.7356 0.1608-1.3179l-0.04-1.0588-0.3919 1.1374c-0.2155 0.6254-0.3315 1.3004-0.2578 1.4997 0.074 0.1994-0.061 0.4358-0.3001 0.5252-0.6555 0.2456-1.1553-1.4247-0.8779-2.9339 0.1949-1.061 1.9596-5.196 2.0801-4.8743 0.02 0.0534 0.3516-0.25128 0.7368-0.67732 0.7259-0.80274 0.7794-1.4476 0.099-1.1927-0.2145 0.0804-0.5928 0.51928-0.8408 0.97534-0.2479 0.45606-0.7066 0.92505-1.0192 1.0422-0.4865 0.1823-0.4809-0.022 0.039-1.4179 0.3342-0.89696 0.8565-2.207 1.1607-2.9111 0.3042-0.70417 0.451-1.2421 0.3262-1.1953-0.308 0.11536-2.0707 3.1111-2.3053 3.9177-0.1037 0.35669-0.392 0.72468-0.6408 0.81791-0.5066 0.18975-0.099-1.5333 0.9397-3.9682 0.3568-0.83674 0.4317-1.3855 0.1955-1.4322-0.265-0.0524-0.3375-0.31883-0.2353-0.86456 0.1325-0.70809 0.3131-0.83031 1.7642-1.1935 0.8891-0.22252 1.9002-0.36664 2.2467-0.32029 0.6888 0.0921 2.3665-0.0494 8.1542-0.68777 4.2802-0.47214 5.6242-0.41068 5.8788 0.26884 0.1467 0.39162-0.074 0.52832-1.3649 0.84493-1.3058 0.3203-1.4649 0.42063-1.0464 0.66004 0.2713 0.15525 1.1084 0.15144 1.8602-8e-3 1.1303-0.24043 1.4011-0.41049 1.5656-0.98302 0.1909-0.6648 0.2274-0.67958 0.917-0.37159 0.5925 0.26464 0.6642 0.39039 0.41 0.71891-0.2428 0.31377-0.1374 0.42103 0.4971 0.5059 0.978 0.13085 3.9015-0.15228 5.5609-0.53855 0.6682-0.1555 1.3817-0.23384 1.5857-0.17408 0.204 0.0598 1.2425 0.0557 2.3078-9e-3 1.0653-0.0648 4.493 0.16103 7.617 0.5018 3.124 0.34079 6.2442 0.56625 6.9336 0.50101 0.6894-0.0652 1.7832 0.0413 2.4306 0.23678 0.8181 0.24696 1.5183 0.216 2.296-0.10148 2.196-0.8965 5.7015-0.25777 12.249 2.2318 1.6218 0.61672 7.2183 2.0011 13.406 3.3162 3.8854 0.82574 4.8341 1.1535 9.1479 3.1596 10.315 4.7973 12.578 5.7594 14.449 6.1423 2.9717 0.6082 3.6298 1.2304 2.5731 2.4329zm-17.388-6.1393c-0.144-0.021-0.6683 0.254-1.1653 0.6106-0.7353 0.528-0.7963 0.6649-0.328 0.7365 0.3546 0.054 0.8211-0.1283 1.2158-0.4755 0.6602-0.5811 0.7316-0.8055 0.2776-0.8715zm-3.3146-2.4581c-0.5154-0.1019-0.7582 0.322-0.8865 1.5478-0.1462 1.3961 0.089 1.4697 0.8917 0.2797 0.6545-0.9699 0.6524-1.6975-0.01-1.8275zm-4.9983-0.604c-0.3694 0.1384-1.3422 1.3064-1.2633 1.5168 0.1468 0.3918 0.9785-0.048 1.2597-0.6664 0.2559-0.5624 0.2575-0.9455 0.01-0.8504zm-5.7141 5.1121c-0.2482 0.093-0.322 0.2692-0.1639 0.3916 0.158 0.1224 0.41 0.1766 0.5598 0.1205 0.1499-0.056 0.2237-0.2324 0.1641-0.3916-0.06-0.1593-0.3117-0.2135-0.56-0.1205zm-1.0399-2.4259c-0.117 0.1512-0.068 0.4387 0.1096 0.6389 0.4539 0.5124 0.5884 0.3817 0.3266-0.3175-0.1229-0.3279-0.3191-0.4725-0.4362-0.3214zm-1.3306 0.012c-0.3671-0.2726-0.4061-0.2296-0.2264 0.25 0.1193 0.3184 0.4165 0.7271 0.6603 0.9082 0.3671 0.2726 0.4061 0.2295 0.2264-0.2499-0.1192-0.3185-0.4164-0.7273-0.6603-0.9083zm-12.373-9.2323c-0.1592 0.0597-0.2408 0.23872-0.181 0.39801 0.06 0.15923 0.2387 0.24071 0.3979 0.18105 0.1593-0.0597 0.2408-0.23873 0.1811-0.39796-0.06-0.15929-0.2388-0.24077-0.398-0.1811zm-16.055 5.1887c-0.5046-0.17408-1.0473-0.25314-1.2061-0.17545-0.1587 0.0776-0.4298 0.21629-0.6023 0.30815-0.3502 0.18651 2.2027 0.87526 2.6387 0.71196 0.4654-0.1744 0.1336-0.5119-0.8303-0.84466zm0.1186 17.765c-0.074 0.38-0.3847 1.202-0.6905 1.827-0.3058 0.6248-0.4222 1.086-0.2587 1.0247 0.4548-0.1703 1.4559-2.6596 1.2582-3.1284-0.1233-0.2921-0.2142-0.2106-0.309 0.2767zm-2.419-0.5598c-0.3365-0.2498-0.3595-0.1018-0.095 0.6135 0.1909 0.5187 0.4784 0.8939 0.6376 0.8342 0.3678-0.1378 0.039-1.0164-0.5423-1.4477zm-2.1938-0.9942c-0.086 1.1197 0.6584 3.5503 0.9022 2.9473 0.082-0.2033-0.069-1.1791-0.3373-2.1683-0.4626-1.7094-0.4907-1.7481-0.5649-0.779zm-1.5949-0.6494c-0.1568-0.071-0.3684 0.3095-0.4703 0.8464-0.1428 0.7529-0.01 1.3391 0.6173 2.5628 1.1 2.1747 1.3435 2.1425 0.7742-0.1025-0.2644-1.042-0.5156-2.1833-0.5583-2.5358-0.043-0.3527-0.2061-0.6996-0.3629-0.7709zm-1.7847-0.2926c-0.01 0.2403 0.099 0.4862 0.2308 0.5464 0.1323 0.06 0.1366-0.1365 0.01-0.437-0.1403-0.3322-0.2346-0.375-0.2405-0.1094zm-1.9704-2.3366c-0.1224 0.158-0.089 0.6373 0.074 1.0649 0.2318 0.6081 0.322 0.6599 0.4143 0.238 0.1554-0.7106-0.204-1.6699-0.4881-1.3029zm-3.3531 2.4117c-0.142 0.053-0.2179 0.4531-0.1686 0.8886 0.1112 0.9843-0.295 1.174-0.8908 0.4162-0.4355-0.554-0.4509-0.5512-0.4452 0.084 0.01 0.362 0.2022 0.7751 0.4419 0.918 0.2995 0.1786 0.462 0.6466 0.5192 1.4947 0.046 0.6792 0.1208 1.335 0.1666 1.4575 0.1741 0.4646 0.6904-1.7417 0.7607-3.25 0.081-1.7392 0-2.1537-0.3838-2.0092zm-1.3986-1.2508c-0.1249-0.057-0.3132 0.01-0.4186 0.1439-0.2527 0.3265 0.049 1.1089 0.3799 0.9849 0.3196-0.1197 0.3495-0.9876 0.039-1.1289zm-1.7829 1.3695c-0.01 0.2292 0.1162 0.5549 0.2711 0.7239s0.1596-0.019 0.011-0.4166c-0.1492-0.3982-0.2759-0.5364-0.2816-0.3073zm-7.7435-0.3804c-0.01 0.2404 0.099 0.4863 0.2308 0.5464 0.1323 0.06 0.1366-0.1364 0.01-0.4369-0.1402-0.3322-0.2345-0.3751-0.2404-0.1095zm-8.2297-21.288c-0.073 0.0272-0.4991 0.56794-0.9479 1.2017-0.4487 0.63375-1.1675 1.5154-1.5972 1.9592-0.4298 0.44376-0.6863 0.95501-0.5702 1.136 0.1161 0.18104-0.073 0.90236-0.4197 1.6029-1.3741 2.7744 0.1803 0.73495 2.4031-3.1531 0.2743-0.47974 0.7169-1.1822 0.9835-1.561 0.4266-0.60603 0.5164-1.3235 0.1484-1.1856zm-4.2054 7.5186c-0.3643 0.1365-0.7765 1.2346-0.509 1.3563 0.1055 0.048 0.3304-0.2628 0.4999-0.6906 0.1694-0.4278 0.1735-0.7273 0.01-0.6657zm67.333 21.997c-1.2409 3.3529-1.4577 3.7428-1.7861 3.2125-0.1867-0.3014 0.08-1.2852 0.7243-2.672 0.5609-1.2072 0.9721-2.3225 0.9137-2.4784-0.059-0.1559 0.024-0.3323 0.1834-0.3919 0.5801-0.2173 0.5662 0.7049-0.035 2.3298zm-6.7782-17.359c-0.3792-0.1725-0.1395-0.8932 0.2702-0.8121 0.2436 0.048 0.2993 0.2119 0.1693 0.4977-0.1066 0.2343-0.3043 0.3758-0.4393 0.3144zm5.7599 14.468c-0.1239 1.0378-2.1814 6.4628-2.5878 6.8231-0.6484 0.5749-0.3576-0.9123 0.6405-3.2763 0.6251-1.4805 1.2178-3.1512 1.3172-3.7127 0.099-0.5615 0.2828-1.0591 0.4078-1.106 0.3241-0.1214 0.3625 0.098 0.2223 1.2719zm-6.8837-17.101c-0.1224 0.1581-0.3015 0.077-0.398-0.181-0.097-0.2577-0.015-0.4368 0.1811-0.3981 0.196 0.039 0.3752 0.1203 0.398 0.1811 0.023 0.061-0.059 0.24-0.1811 0.398zm3.986 14.455c-0.7345 3.3575-0.7303 3.3101-0.2821 3.1423 0.4527-0.1696 1.1869-1.5149 1.1765-2.1557-0.01-0.2357 0.1176-0.3777 0.27-0.3154 0.4165 0.1702 0.1126 1.9237-0.5717 3.299-0.3331 0.6696-0.6902 1.6358-0.7935 2.147-0.3279 1.6242-1.457 4.177-1.8159 4.1061-0.5072-0.1003-0.316-0.9724 0.7255-3.3104 0.8251-1.8522 0.9689-3.0953 0.3303-2.856-0.134 0.05-0.8322 1.5004-1.5517 3.2227-0.7194 1.7222-1.3919 3.1628-1.4945 3.2012-0.4306 0.1614-0.3596-0.5755 0.176-1.8267 0.9816-2.2929 2.2795-5.7946 2.8306-7.6365 0.2907-0.9715 0.6365-1.8068 0.7686-1.8562 0.132-0.05 0.1718-0.5102 0.088-1.0237-0.084-0.5136-0.018-0.9837 0.1451-1.0449 0.5337-0.1999 0.5333 0.4618 0 2.9072zm-1.0496-3.4912c-0.1698 0.2967-0.4757 1.5027-0.6799 2.6802-0.3596 2.0741-2.2735 6.998-2.7961 7.1938-0.4253 0.1593-0.3041-0.3869 0.6119-2.7563 1.4669-3.7946 2.4085-6.7896 2.3701-7.5392-0.02-0.3922 0.085-0.7588 0.2336-0.8144 0.429-0.1607 0.5986 0.6445 0.2604 1.2359zm-4.7548-11.191c-0.2239 0.01-0.4722-0.1588-0.5518-0.3711-0.079-0.2123-0.01-0.5014 0.1721-0.6423 0.1885-0.1524 0.412 0 0.5518 0.3712 0.1398 0.3731 0.07 0.6333-0.1721 0.6422zm2.0873 7.5551c-0.4086 0.714-0.6932-0.026-0.3953-1.027 0.2103-0.7072 0.2193-0.7093 0.4545-0.1087 0.1318 0.3369 0.1053 0.848-0.059 1.1357zm0.8628 4.2283c-0.181 0.908-1.3467 4.3512-2.1977 6.4913-0.208 0.5232-0.5072 0.8925-0.6648 0.8208-0.1577-0.072-0.018-0.7855 0.3101-1.5861 0.6603-1.6109 1.2301-3.6692 1.1157-4.0305-0.04-0.1283 0.2283-0.9971 0.5975-1.9305 0.7011-1.7724 1.211-1.6297 0.8392 0.235zm-2.1984-5.1433c-0.06 0.5709-0.3875 1.7937-0.7282 2.7172-0.3406 0.9236-0.8414 2.3938-1.1127 3.2673-0.4641 1.4938-0.9056 2.1021-1.1168 1.5384-0.051-0.1366 0.3727-1.7816 0.9419-3.6554 0.5692-1.874 1.0089-3.4765 0.9772-3.5614-0.1534-0.4095 0.3801-1.9181 0.6589-1.8629 0.4392 0.087 0.5053 0.3575 0.3797 1.5568zm0.6265 4.2613c-0.4807 2.06-2.1509 5.8812-2.5009 5.7219-0.1957-0.089 0.7265-3.2137 1.5624-5.2941 0.1666-0.4144 0.2665-0.8504 0.2221-0.9689-0.044-0.1185 0.1415-0.39 0.4131-0.6033s0.4691-0.6316 0.4389-0.9296c-0.03-0.2979 0.025-0.374 0.123-0.169s-0.019 1.2143-0.2586 2.243zm-3.6384-1.277c-1.0203 2.3009-1.3235 1.4158-0.4978-1.4535 0.4023-1.3979 0.7581-2.8859 0.7908-3.3068 0.061-0.7882 0.2529-1.0002 0.7146-0.7901 0.4105 0.1867-0.2553 3.8538-1.0076 5.5504zm-0.5156-4.8701c-0.4315 2.0848-1.5789 4.5541-1.8187 3.914-0.096-0.255 0.083-1.1966 0.398-2.0923 0.3143-0.8956 0.655-2.3801 0.7571-3.2986 0.102-0.9186 0.3467-1.6383 0.5438-1.5993 0.4818 0.095 0.5222 1.132 0.1198 3.0762zm-1.7874-0.7447c-0.3798 1.6343-0.7865 3.0955-0.9039 3.2471-0.4891 0.6318-0.5206-0.7744-0.061-2.7133 0.2712-1.1437 0.5895-2.7471 0.7072-3.563 0.1176-0.8158 0.3343-1.5285 0.4816-1.5836 0.5416-0.2029 0.4481 1.7194-0.2241 4.6128zm-2.5791 1.328c-0.19 0.1538-0.3393 0.086-0.3482-0.1584-0.01-0.2351 0.1339-0.5486 0.3169-0.6965 0.19-0.1538 0.3393-0.086 0.3482 0.1584 0.01 0.2351-0.1339 0.5485-0.3169 0.6965zm0.6516 8.8219c-0.1763 1.6623-2.5041 7.7824-3.0357 7.9816-0.5254 0.1968-0.3751-0.601 0.4943-2.6228 0.5096-1.1849 1.2659-3.3994 1.6807-4.921 0.4149-1.5217 0.8974-2.7384 1.0723-2.7038 0.1749 0.035 0.2215 0.3442 0.1037 0.6882-0.1179 0.3438-0.2597 1.0539-0.3153 1.5778zm2.6459 7.6148c-0.8576 1.9212-1.376 2.6074-0.84 1.112 0.1691-0.472 0.3512-0.9488 0.4047-1.0596 0.053-0.1109 0.191-0.6452 0.3056-1.1876 0.1994-0.943 0.6733-1.4672 0.8647-0.9561 0.05 0.133-0.2809 1.0741-0.735 2.0913zm-1.6219-5.6385c-0.1763 0.5541-0.4072 0.9681-0.513 0.9199-0.2533-0.1152 0.1253-2.2333 0.4188-2.3433 0.3918-0.1468 0.4266 0.3788 0.094 1.4234zm1.0487 2.6872c-0.274 1.4312-1.9945 5.2417-2.3033 5.1012-0.1248-0.057-0.059-0.427 0.1458-0.8228 0.2051-0.3958 0.6412-1.563 0.9692-2.5939 1.0573-3.3226 1.6673-4.1875 1.1883-1.6845zm1.5369 5.4578c-0.4614 0.8065-0.6531 0.5027-0.3169-0.5023 0.2031-0.6071 0.3496-0.7538 0.4596-0.4602 0.089 0.237 0.024 0.6702-0.1427 0.9625zm-4.5378-2.1863c-0.7055 1.4901-1.3645 2.7398-1.4643 2.7772-0.4478 0.1678-0.3463-0.6321 0.2608-2.0563 0.3626-0.8502 0.9585-2.3333 1.3243-3.2957 0.3659-0.9624 0.8304-1.815 1.0322-1.8946 0.6796-0.268 0.1881 1.637-1.153 4.4694zm-0.8898-7.2875c-0.2309 0.9417-0.6084 1.8454-0.839 2.008s-0.4666 0.8543-0.5246 1.5372-0.2383 1.2914-0.4008 1.3523c-0.5018 0.188-0.4007-1.2303 0.1844-2.5847 0.7747-1.7935 1.0747-2.6828 1.1862-3.5168 0.093-0.692 0.5696-1.1594 0.7343-0.7196 0.044 0.1162-0.1097 0.9817-0.3405 1.9236zm-1.4111-1.7036c-0.628 1.8629-1.1266 2.6732-1.3228 2.1496-0.1476-0.394 1.307-4.862 1.5662-4.8108 0.5156 0.102 0.477 0.5242-0.2434 2.6612zm-1.62-2.1694c-0.2518 0.7822-0.4189 1.5349-0.3713 1.6725 0.048 0.1376-0.047 0.6714-0.2087 1.1862-0.2703 0.8574-0.3136 0.8875-0.5156 0.3583-0.2618-0.6855 0.5884-5.008 1.0166-5.1684 0.5218-0.1954 0.5496 0.4898 0.079 1.9514zm-4.5003 2.1991c-0.2026 0.974-0.4262 1.8669-0.4968 1.9841-0.071 0.1173-0.3947 1.1302-0.7203 2.2509-0.752 2.5891-2.2052 5.7788-2.7207 5.9719-0.633 0.2371-0.7023 0.4765 1.2389-4.2824 0.3554-0.8712 1.012-3.0858 1.4592-4.9214 0.4471-1.8356 0.9282-3.3807 1.069-3.4334 0.4806-0.1801 0.5394 0.6576 0.1707 2.4303zm1.0406 3.3286c-0.1521 0.4425-0.4815 1.4429-0.7321 2.2234-1.2626 3.9322-3.0419 7.3131-3.3775 6.4173-0.04-0.1077 0.4703-1.3676 1.1347-2.7999 0.6645-1.4323 1.3542-3.2599 1.5328-4.0613 0.4675-2.0975 0.8976-3.1686 1.2448-3.0999 0.4532 0.09 0.5039 0.4286 0.1973 1.3204zm-2.1366-5.8319c-0.1322-0.06-0.236-0.306-0.2307-0.5464 0.01-0.2656 0.1002-0.2226 0.2405 0.1094 0.1268 0.3006 0.1225 0.4972-0.01 0.437zm3.2169 13.123c-1.2563 2.5417-2.5838 4.6997-2.824 4.5904-0.2184-0.099 2.8234-7.2723 3.1331-7.3883 0.6178-0.2315 0.4536 1.2548-0.3091 2.7979zm2.6662 4.7521c-0.3922 0.5066-0.5883 0.201-0.361-0.5627 0.187-0.6287 0.2366-0.6568 0.4057-0.2299 0.1058 0.2673 0.086 0.6241-0.045 0.7926zm-3.7564-7.8825c-0.2372 0.5787-0.392 1.157-0.3441 1.2849 0.1325 0.3535-1.895 4.0396-2.3078 4.1958-0.199 0.074-0.3935 0.051-0.4327-0.054-0.085-0.2262 2.9459-6.8301 3.1735-6.9153 0.3546-0.1328 0.3169 0.4978-0.089 1.4879zm2.7224 5.9451c-0.1224 0.1581-0.2742 0.1494-0.3374-0.019-0.063-0.1687 0.016-0.3555 0.1747-0.4151 0.1592-0.06 0.311-0.051 0.3373 0.019 0.026 0.07-0.052 0.2571-0.1746 0.4152zm-1.737 0.763c-0.3392 0.6101-0.9305 1.7089-1.3139 2.4419-0.768 1.4679-1.0521 1.7073-1.2859 1.0833-0.085-0.2281 0.088-0.6057 0.3847-0.839 0.2971-0.2333 0.9357-1.2997 1.4192-2.3698s0.9459-1.9707 1.0276-2.0013c0.4304-0.1612 0.3107 0.7094-0.2317 1.6849zm1.4155 3.2818c-0.2877 0.2548-0.3241 0.1859-0.207-0.3922 0.078-0.3857 0.2369-0.7369 0.3528-0.7803 0.35-0.1311 0.2291 0.8404-0.1458 1.1725zm-1.6113 0.1461c-0.7129 0.267-0.7097-0.8764 0.01-1.2658 0.566-0.3091 0.6248-0.2681 0.5386 0.376-0.053 0.3976-0.2971 0.798-0.5421 0.8898zm-4.8561-0.098c-0.5043-0.2294-0.399-0.9052 0.1745-1.1201 0.345-0.1292 0.4086-0.019 0.3295 0.5724-0.067 0.498-0.228 0.6734-0.504 0.5477zm-0.7812-0.1192c-0.1908 0.3335-0.4959 0.4762-0.9131 0.4271-0.3446-0.04-0.7637 0.042-0.9313 0.1846-0.4348 0.3688-2.1128-0.162-2.3419-0.7407-0.1799-0.4549 0.4786-1.7663 0.9817-1.9548 0.1238-0.047 0.2999 0.1152 0.3913 0.3591 0.091 0.2439 0.3896 0.4452 0.6628 0.4474 0.2732 0 0.5648 0.1854 0.6478 0.4072 0.1807 0.4822 0.3352 0.444 0.9265-0.2289 0.3702-0.4212 0.4838-0.4135 0.6552 0.044 0.1141 0.3046 0.079 0.7791-0.079 1.0546zm-5.6754-2.3138c-0.1224 0.1581-0.2986 0.084-0.3917-0.164-0.093-0.2483-0.038-0.5002 0.1205-0.5598 0.1592-0.06 0.3355 0.014 0.3916 0.1639 0.056 0.1499 0.01 0.4018-0.1204 0.5599zm-11.149-6.3134c-0.1322-0.06-0.2361-0.3061-0.2307-0.5465 0.01-0.2655 0.1002-0.2227 0.2404 0.1095 0.1268 0.3005 0.1226 0.4971-0.01 0.437zm-3.8126-0.1333c-0.1592 0.06-0.3627-0.087-0.4522-0.3259-0.09-0.2389-0.032-0.483 0.1269-0.5428 0.1592-0.06 0.3628 0.087 0.4523 0.3259 0.089 0.2389 0.032 0.4831-0.127 0.5428zm-3.1903 1.5253c-0.2746 0.1029-0.7377-0.712-0.5456-0.9601 0.117-0.1512 0.3133-0.01 0.4361 0.3213 0.1228 0.3279 0.1722 0.6153 0.1095 0.6388zm-1.8211-3.445c-0.1961-0.038-0.4542-0.3311-0.5735-0.6495-0.1193-0.3186-0.057-0.5474 0.1397-0.5087 0.1961 0.038 0.4542 0.3311 0.5735 0.6496s0.056 0.5474-0.1397 0.5086zm-13.445-32.579c-0.4043-0.18394 0.1237-0.98893 0.5884-0.8971 0.318 0.0629 0.3297 0.20827 0.043 0.54644-0.2145 0.25348-0.4988 0.41123-0.632 0.35066zm2.9514 24.937c-0.094 0.2269-0.2223 0.1891-0.3295-0.097-0.2605-0.6953-0.2053-1.5019 0.1109-1.6203 0.3059-0.1146 0.4637 1.1262 0.2186 1.7176zm-2.5783-4.7783c-0.4383 0.1384-0.602-0.5391-0.2075-0.8583 0.2132-0.1724 0.3713-0.081 0.4218 0.2447 0.045 0.2862-0.052 0.5624-0.2143 0.6136zm-4.0566-5.7617c-0.1223 0.046-0.1573-0.2383-0.078-0.6313 0.08-0.393 0.2447-0.7521 0.367-0.7978 0.1223-0.046 0.1573 0.2382 0.078 0.6312-0.079 0.393-0.2447 0.7521-0.367 0.7979zm1.4363 5.4051c-0.1642 0.062-0.4468-0.055-0.628-0.26-0.4397-0.4966-0.4134-1.4256 0.038-1.3364 0.4726 0.093 0.9748 1.4523 0.59 1.5964zm-2.5242 0.2852c-0.1592 0.06-0.3628-0.087-0.4522-0.3258-0.09-0.2389-0.032-0.4831 0.1268-0.5428 0.1593-0.06 0.3627 0.087 0.4522 0.3259 0.09 0.2388 0.032 0.4831-0.1268 0.5427zm4.5844 12.414c-0.3463 0.7612-0.5891 0.6859-0.7472-0.2319-0.1288-0.747-0.186-0.785-0.4614-0.3063-0.4694 0.816-0.9026 0.26-0.462-0.5929 0.216-0.4182 0.432-0.5888 0.5035-0.3979 0.069 0.184 0.3208 0.2613 0.5596 0.1717 0.5196-0.1946 0.9133 0.6852 0.6075 1.3573zm-4.1054-9.2919c-0.1193 0.4541-0.1978 0.4907-0.4524 0.2108-0.1695-0.1863-0.6439-0.4914-1.0543-0.6781-0.9093-0.4137-1.2611-1.2388-0.8413-1.9728 0.273-0.477 0.341-0.4346 0.5385 0.3357 0.1571 0.6125 0.3631 0.8438 0.675 0.7579 0.2469-0.068 0.5523-0.1453 0.6786-0.1717 0.3369-0.07 0.6231 0.8827 0.4559 1.5182zm0.657 5.6971c-0.4649 0.1742-1.5286-0.172-1.6674-0.5426-0.1597-0.4264 0.6731-0.9263 1.1681-0.7011 0.3225 0.1467 0.7284 1.1579 0.4993 1.2437zm-4.2072-7.6689c-0.063 0.024-0.187-0.1528-0.2765-0.3917-0.089-0.2388-0.037-0.4816 0.1178-0.5393 0.1542-0.058 0.2787 0.1184 0.2765 0.3917 0 0.2732-0.055 0.5159-0.1178 0.5393zm3.7361 12.088c-0.2312 0.8402-0.5497 1.5762-0.708 1.6354-0.3864 0.1448-0.7318-0.8484-0.8369-2.4065-0.09-1.3286 0.2132-1.8569 1.0604-1.8501 0.7704 0.01 0.9446 0.9486 0.4845 2.6212zm-3.7791-7.4496c-0.1592 0.06-0.3354-0.014-0.3916-0.164-0.056-0.1498-0.01-0.4018 0.1204-0.5599 0.1224-0.1581 0.2986-0.084 0.3916 0.164 0.093 0.2482 0.039 0.5003-0.1204 0.5599zm-3.2732-5.2123c-0.1224 0.1581-0.2743 0.1495-0.3374-0.019-0.063-0.1687 0.015-0.3555 0.1746-0.4151 0.1593-0.06 0.3111-0.051 0.3374 0.019 0.026 0.07-0.052 0.257-0.1746 0.4151zm4.7817 13.044c0.1475 1.4034-0.2467 2.5872-0.5723 1.7182-0.2787-0.7442-0.3742-3.8178-0.1215-3.9124 0.3555-0.1331 0.4957 0.3106 0.6938 2.1942zm-2.0491-1.0172c-0.027 0.6751-0.1536 0.9575-0.3325 0.7403-0.3668-0.4453-0.4244-2.1166-0.078-2.2465 0.3607-0.1352 0.4605 0.2315 0.41 1.5062zm-2.3126-1.5364c0.065 0.6694-0.621 1.3123-0.8234 0.7719-0.1201-0.3205 0.099-2.3989 0.2587-2.4589 0.1772-0.066 0.4835 0.8486 0.5647 1.687zm0.639-25.25c-0.1369 0.051-0.3546 0.52387-0.4837 1.0502-0.129 0.52635-0.5858 1.8489-1.0151 2.9391-0.8139 2.0674-1.1225 3.5339-0.7768 3.6912 0.1113 0.051 0.5248-0.9601 0.9187-2.2462 0.3939-1.286 0.9447-2.7812 1.2239-3.3225 0.5121-0.99298 0.5935-2.2843 0.133-2.1118zm-5.676 10.244c-0.1562-0.031-0.3186 0.5813-0.3608 1.3604-0.042 0.779-0.1943 2.7977-0.3377 4.4858-0.3751 4.4145-0.339 6.3841 0.1685 9.1818 0.5368 2.959 0.5303 2.938 0.8697 2.8109 0.2767-0.1036 0.1833-2.3726-0.2336-5.674-0.2121-1.6802-0.172-6.8336 0.083-10.683 0.052-0.7842-0.033-1.451-0.1894-1.4819zm-3.148 1.3159c-0.3453 0.1293-0.7105 9.3392-0.4983 12.568 0.099 1.5109 0.3557 2.8498 0.6194 3.2348l0.4499 0.6569 0.034-1.0032c0.019-0.5518-0.094-2.0432-0.2509-3.3143-0.1566-1.2711-0.1792-4.3758-0.05-6.8994 0.2337-4.5714 0.1842-5.4259-0.3038-5.2431zm-2.5476 2.6052c-0.089 0.034-0.3121 1.7885-0.4958 3.9002-0.3514 4.0404-0.1023 8.1966 0.5454 9.1019 0.3173 0.4433 0.3631 0.3431 0.2613-0.5718-0.3897-3.5022-0.4892-7.6603-0.2309-9.6464 0.2849-2.1902 0.2641-2.9128-0.08-2.7839zm-4.02-6.5648c-0.1754 0.1554-0.4234 1.2466-0.5511 2.4248-0.5204 4.802-1.3309 14.161-1.2877 14.87 0.033 0.5383-0.077 0.7025-0.3791 0.5653-0.3018-0.1373-0.4532-0.5459-0.5211-1.4064-0.1376-1.7406-1.6389-6.7431-1.9848-6.6135-0.3398 0.1273-0.9135 2.3592-1.0526 4.0947-0.107 1.3347-0.5209 1.5585-0.9617 0.5199-0.1457-0.3432-0.025 0.7717 0.2689 2.4777 0.7313 4.2489 1.1562 4.7816 1.014 1.271-0.1153-2.8435 0.3161-5.8965 0.8619-6.101 0.3526-0.132 0.4627 0.2302 0.8109 2.6679 0.346 2.4214 1.7038 6.2954 2.1483 6.1289 0.3136-0.1175 0.4092-1.1442 0.8214-8.8281 0.2263-4.2213 0.4218-5.4346 0.7391-4.5877 0.075 0.2001 0.1965 2.2839 0.2702 4.6306 0.074 2.3468 0.3303 5.0071 0.5702 5.912 0.403 1.5195 0.4317 1.5587 0.3755 0.5124-0.087-1.6092-0.165-6.3443-0.145-8.7516 0.01-1.1241-0.099-2.3518-0.2396-2.7282-0.2762-0.7376-0.4068-3.9711-0.2226-5.5142 0.141-1.181-0.1141-1.9174-0.5351-1.5446zm-8.4178 5.2809c-0.4937 0.185-1.0542 1.4688-1.5512 3.5527-0.6085 2.5521-1.2278 9.1904-0.9894 10.606 0.249 1.4793 0.5571 0.7616 0.5911-1.377 0.04-2.5119 1.0919-8.3195 1.5598-8.6107 0.3501-0.2179 0.5232 0.091 1.146 2.047 0.6977 2.1904 0.7216 2.227 0.486 0.7455-0.2474-1.5558-0.7208-5.0111-0.8714-6.3596-0.044-0.3922-0.2107-0.664-0.3709-0.604z"/>
 </g>
</svg>
