<?xml version="1.0" encoding="UTF-8" standalone="no"?><!DOCTYPE svg PUBLIC "-//W3C//DTD SVG 1.1//EN" "http://www.w3.org/Graphics/SVG/1.1/DTD/svg11.dtd"><svg width="100%" height="100%" viewBox="0 0 4541 6313" version="1.1" xmlns="http://www.w3.org/2000/svg" xmlns:xlink="http://www.w3.org/1999/xlink" xml:space="preserve" xmlns:serif="http://www.serif.com/" style="fill-rule:evenodd;clip-rule:evenodd;stroke-linejoin:round;stroke-miterlimit:2;"><rect id="Artboard1" x="0" y="0" width="4540.86" height="6312.45" style="fill:none;"/><clipPath id="_clip1"><rect x="0" y="0" width="4540.86" height="6312.45"/></clipPath><g clip-path="url(#_clip1)"><g><path d="M2619.58,4.167c-47.083,4.166 -157.083,22.083 -192.916,31.666c-49.584,12.917 -87.084,44.584 -111.25,94.584c-20.834,42.916 -29.584,75 -42.084,150.833c-15.416,96.667 -20,146.667 -20.416,232.083c-0.834,75 -0.834,76.667 10,97.084c12.083,22.5 91.666,103.333 106.666,107.916c5,1.667 49.584,8.334 100,14.584c79.167,10.416 92.084,11.25 100,6.25c11.25,-7.084 15.834,-24.167 22.084,-78.75c11.25,-100 24.166,-162.5 40,-194.167c19.166,-37.917 56.666,-57.917 109.166,-57.917c31.667,0 47.5,7.917 57.084,27.917c8.333,17.5 15,109.583 15.833,220c0.417,68.75 -0.833,87.917 -7.083,108.333c-9.584,33.334 -29.584,60 -55,73.75c-11.667,6.25 -100.834,33.75 -205.834,63.75c-102.083,28.75 -197.083,57.917 -211.666,64.584c-96.25,44.583 -140.417,182.083 -158.75,492.5c-5,84.583 -0,102.916 34.166,120.833c15.417,8.333 25,9.583 78.334,10.833c90,2.084 86.666,4.584 118.75,-78.333c8.333,-21.667 34.166,-77.083 57.083,-122.917c37.5,-75 44.583,-85.833 69.167,-110.416c31.666,-31.25 79.583,-64.584 122.5,-85.417c16.666,-7.5 65.833,-27.083 109.166,-42.917c102.917,-37.5 120,-45.416 167.917,-77.5c80.833,-53.333 119.583,-93.75 148.333,-154.166c35,-72.5 61.667,-192.5 73.334,-326.25c10,-120.834 2.5,-328.334 -15,-398.75c-11.667,-47.5 -47.084,-96.25 -89.584,-123.334c-25.833,-16.666 -110.833,-47.083 -165.416,-58.75c-32.5,-7.083 -58.75,-8.75 -132.084,-10c-50.416,-0.833 -110,0 -132.5,2.084Zm243.75,41.666c108.334,18.334 180.417,58.75 206.25,115.417c7.084,15 12.917,42.5 19.167,85.417c12.083,86.25 12.917,313.333 1.667,395c-33.75,240.416 -84.584,329.166 -236.25,411.666c-40,21.667 -82.5,40 -181.667,77.917c-44.167,17.083 -91.667,36.667 -106.25,44.167c-36.667,18.333 -74.583,49.166 -97.917,80c-33.333,43.75 -77.083,142.5 -105,236.666l-11.666,39.167l-71.667,1.25l-71.667,0.833l0,-48.75c0,-95 17.084,-239.166 37.084,-319.583c12.916,-50 36.666,-105.417 57.5,-133.75c22.916,-30.833 39.583,-37.083 316.25,-116.25c79.583,-22.5 149.166,-45 164.583,-52.5c14.167,-7.5 36.667,-24.167 49.583,-37.083c42.084,-41.667 49.167,-79.167 42.084,-215c-5.417,-95.834 -13.75,-157.917 -24.584,-182.5c-8.75,-20 -29.166,-41.667 -47.5,-51.25c-31.25,-16.25 -88.75,-14.167 -150,5c-44.583,14.166 -72.083,40 -85.833,80.416c-10.833,32.084 -20.417,96.667 -24.167,163.75c-1.25,27.084 -2.916,49.167 -3.333,49.167c-0.833,0 -34.583,-4.583 -75.833,-10.417c-180.834,-25.416 -193.75,-45 -170,-264.583c22.083,-209.167 52.5,-291.25 118.333,-320.417c23.75,-10.416 108.75,-27.916 170.833,-35.416c76.667,-9.167 222.5,-8.334 280,1.666Z" style="fill-rule:nonzero;"/><path d="M1514.58,165c-87.916,12.917 -184.166,40.833 -228.75,65.833c-30.416,17.5 -62.916,44.167 -82.916,68.334c-55,66.25 -59.167,160 -11.667,261.25c42.5,90.833 113.333,164.583 212.917,222.083c33.75,19.167 36.25,22.083 52.916,51.667c20.417,36.25 62.5,78.333 78.334,78.333c14.583,0 18.75,-11.667 18.75,-53.75l-0,-37.5l45,-22.917c133.333,-68.75 249.166,-200 286.666,-325.416c14.584,-49.584 15.834,-123.334 2.917,-162.917c-22.917,-69.583 -82.917,-118.333 -167.917,-137.083c-30.416,-6.667 -176.666,-12.084 -206.25,-7.917Zm143.75,35c80,8.333 128.334,27.917 162.5,65.417c31.25,34.166 39.167,59.166 39.167,122.083c0,45.833 -1.25,55.833 -11.667,85.417c-13.333,39.583 -36.666,83.75 -63.75,122.083c-25.833,36.667 -90,102.5 -131.25,135c-32.916,26.667 -76.25,53.333 -85.416,53.333c-2.917,0 -6.667,-5.833 -8.75,-13.333c-8.334,-32.083 -22.084,-11.25 -29.584,44.583c-7.916,56.667 -7.083,55.417 -24.166,39.167c-7.917,-7.917 -20.834,-26.667 -28.334,-41.667c-17.083,-33.333 -30.833,-47.083 -75,-74.166c-95.833,-58.75 -177.5,-160.417 -200,-248.334c-8.75,-33.333 -8.333,-90.416 0,-114.583c22.5,-64.167 78.334,-110 170.834,-140.833c95.833,-31.667 194.166,-43.75 285.416,-34.167Z" style="fill-rule:nonzero;"/><path d="M1477.08,350.833c-32.916,16.667 -52.083,42.5 -52.083,69.167c0,12.083 6.667,21.667 15,21.667c2.917,-0 7.083,-9.167 10,-20.834c11.25,-47.083 65.417,-66.25 93.333,-32.916c20.834,24.166 12.917,61.25 -26.25,125.833c-21.666,36.25 -42.083,83.75 -42.083,98.75c0,12.083 18.333,20 27.917,12.083c3.75,-3.333 24.583,-42.083 46.25,-86.25c43.75,-90.416 49.166,-111.666 36.666,-143.75c-7.5,-20 -28.333,-43.333 -43.333,-49.166c-16.667,-6.25 -47.917,-3.75 -65.417,5.416Z" style="fill-rule:nonzero;"/><path d="M1481.67,681.667c-8.334,21.666 2.083,42.083 18.333,37.083c7.917,-2.5 8.75,-5 6.25,-20c-1.667,-9.583 -3.75,-18.75 -5,-20.833c-3.333,-5.417 -17.083,-2.917 -19.583,3.75Z" style="fill-rule:nonzero;"/><path d="M3822.08,489.583c-47.916,12.917 -85.833,43.75 -105.416,85.417l-10,21.667l-35.834,-2.917c-58.333,-4.583 -134.166,7.5 -185.416,29.167c-42.084,17.916 -90.417,62.916 -111.25,103.75c-42.084,82.5 -32.084,172.916 27.5,245l19.583,23.333l-16.25,24.583c-30.833,45.834 -36.25,64.167 -36.25,117.917c0,38.75 2.083,52.917 9.583,75.417c24.584,72.083 73.334,122.916 125,131.25c9.584,1.666 18.75,4.166 19.584,5.833c1.25,1.667 -2.917,16.667 -8.334,33.75c-11.25,33.333 -12.5,43.333 -5.833,47.5c2.5,1.667 22.083,-5.833 44.167,-16.25l39.583,-19.167l16.25,14.584c51.667,46.666 108.333,61.25 179.167,46.25c48.75,-10.417 85,-33.334 106.25,-66.667c10.833,-17.5 11.666,-17.917 26.25,-14.583c23.75,5.833 84.166,4.583 105.833,-2.084c26.667,-7.916 57.917,-28.75 77.917,-51.25c41.666,-47.5 48.333,-98.75 22.083,-170.416c-0.833,-2.5 11.25,-12.5 27.5,-21.667c36.667,-22.083 71.25,-60.417 91.25,-100.417c15,-30.416 15.417,-32.5 15.417,-79.166c-0,-44.584 -0.834,-50.417 -11.667,-71.667c-15.417,-32.083 -38.75,-57.083 -59.167,-64.167l-16.666,-5.416l-3.334,-28.334c-1.666,-15.416 -5.833,-39.166 -9.583,-53.333c-14.583,-57.917 -67.917,-146.25 -111.25,-184.167c-25.833,-22.916 -70.417,-45.833 -103.333,-53.75c-32.917,-7.5 -94.584,-7.5 -123.334,0Zm124.167,30.417c37.5,10 70.833,30.833 101.25,64.167c52.5,57.083 89.167,137.5 98.333,213.75c2.5,20.416 5.417,42.916 6.667,49.166l2.5,12.084l9.583,-9.167l10,-9.167l12.084,8.75c18.75,13.334 37.916,46.25 43.333,74.584c17.083,92.083 -55,189.583 -155.833,210.833c-17.5,3.75 -15.834,18.333 2.083,20c30.833,2.917 45,73.75 23.75,117.5c-32.083,66.667 -104.583,91.667 -198.333,68.75c-21.667,-5 -40,-8.333 -41.667,-7.083c-1.25,1.25 0.833,8.75 4.583,16.25c6.667,12.083 6.667,14.583 0.834,26.666c-8.334,17.5 -39.584,37.917 -75,48.75c-22.5,6.667 -36.25,7.917 -66.667,6.667c-33.75,-1.25 -41.25,-3.333 -64.583,-15.833c-15.834,-8.334 -35,-23.75 -48.334,-37.917l-21.666,-24.167l-4.584,12.5c-4.583,12.084 -17.916,20 -43.75,26.25l-11.666,2.5l7.083,-15.416c10.833,-23.75 17.5,-30.417 37.083,-35c10,-2.5 20.834,-7.917 24.584,-12.084c6.666,-7.083 6.25,-7.916 -2.917,-13.75c-7.083,-4.583 -20.417,-6.25 -49.167,-6.25c-29.166,0.417 -44.166,-1.25 -56.25,-6.666c-53.75,-22.917 -97.5,-109.167 -92.5,-181.667c4.167,-59.167 28.75,-102.5 77.5,-136.25c16.25,-10.833 29.584,-21.25 29.584,-22.5c-0,-7.5 -21.667,-7.083 -37.917,-0c-21.667,10 -25.833,7.917 -48.75,-21.667c-26.667,-34.583 -35.417,-57.5 -37.5,-100.416c-3.333,-64.584 14.583,-113.75 56.25,-154.584c54.167,-53.333 150.417,-78.75 260.833,-68.75c27.5,2.5 50.417,3.75 51.667,2.5c1.25,-0.833 -0.833,-6.25 -4.167,-11.25c-5.833,-8.333 -5.833,-10.833 -0.416,-23.75c20.416,-49.583 68.75,-75.416 141.25,-75.416c18.333,-0 45.833,3.333 60.833,7.083Z" style="fill-rule:nonzero;"/><path d="M3813.33,741.25c-50.416,17.5 -86.25,55 -98.75,102.5c-8.333,32.917 -2.083,68.75 12.5,68.75c8.75,0 11.25,-7.083 12.5,-35.417c1.25,-35.833 11.667,-51.25 50,-75c23.75,-15 36.25,-20 53.75,-21.666c68.334,-7.084 116.25,56.25 86.25,114.166c-12.916,25.417 -49.166,62.917 -104.583,107.5c-67.5,54.584 -97.5,97.084 -114.583,162.5c-9.167,35.834 -8.334,50.417 4.583,63.334c8.75,8.75 13.333,10 25.833,7.916c25,-3.75 32.5,-15.416 48.75,-77.5c8.334,-31.666 20,-64.166 26.25,-74.583c6.25,-10.417 28.334,-32.917 48.75,-50c52.084,-43.333 94.167,-87.5 108.334,-113.75c10.833,-18.75 12.5,-26.667 12.5,-53.333c-0,-40.417 -13.75,-70 -45.834,-99.167c-36.666,-33.75 -79.583,-42.5 -126.25,-26.25Z" style="fill-rule:nonzero;"/><path d="M3701.25,1266.67c-12.083,5 -18.75,18.333 -17.083,34.583c1.25,11.25 4.166,15 20.833,22.917c19.583,10 20,10 35.417,2.083c16.666,-7.917 20.833,-17.917 16.25,-37.083c-4.584,-17.5 -36.25,-30.417 -55.417,-22.5Z" style="fill-rule:nonzero;"/><path d="M1129.17,1106.25c-3.334,0.833 -20.417,3.75 -37.5,6.25c-87.917,14.583 -187.084,65.833 -250.834,130c-31.25,31.667 -57.916,79.167 -65.833,118.75c-7.083,32.083 -2.917,91.667 8.333,127.917c14.167,45.416 55.834,82.083 119.584,105.416c15,5.417 28.333,8.75 30.416,7.5c2.084,-1.25 5.834,-9.166 8.75,-17.916c15.417,-47.917 46.667,-92.917 89.584,-129.584c35.833,-30.416 56.25,-39.583 94.583,-41.25c28.333,-1.666 35,-0.416 55,9.167c51.667,25.417 75,82.917 53.333,131.667c-12.916,28.75 -43.333,63.333 -88.75,100c-91.25,73.75 -135,122.5 -154.166,170.416c-43.75,111.667 14.583,231.667 94.166,193.75c24.584,-11.666 47.5,-50.833 60.417,-102.5c11.25,-44.166 28.75,-78.75 55,-106.25c17.917,-19.166 31.667,-27.5 85,-53.333c73.333,-35.417 93.333,-48.333 130,-82.917c47.5,-45.416 82.083,-103.333 103.333,-172.083c10,-33.333 11.25,-42.917 11.25,-105.417c0,-64.583 -0.416,-70.833 -11.666,-102.083c-15.417,-44.583 -35,-75.833 -65.417,-103.75c-56.25,-52.083 -142.5,-80 -260,-83.75c-32.083,-0.833 -61.25,-0.833 -64.583,0Z" style="fill-rule:nonzero;"/><path d="M2202.92,1646.25c-15.834,2.083 -31.667,5.417 -35.834,7.917c-8.75,4.583 -10.416,13.333 -17.5,105c-6.25,75.416 -3.75,90 19.584,115.833c22.083,24.167 34.166,26.667 113.333,23.333c81.667,-3.333 91.25,-5 98.75,-16.666c6.25,-9.584 14.583,-104.584 14.583,-168.75l0,-35l-18.333,-17.917l-17.917,-18.333l-64.166,0.416c-35.417,0.417 -77.084,2.084 -92.5,4.167Zm137.5,106.667c-1.667,45 -3.75,82.916 -5,83.75c-1.25,1.25 -34.584,2.916 -75,4.166c-57.917,1.667 -74.167,0.834 -79.584,-3.75c-6.25,-5 -6.666,-12.083 -4.166,-51.666c5,-92.5 7.5,-110 14.583,-111.667c3.75,-1.25 39.167,-2.083 79.167,-2.5l72.5,-0.417l-2.5,82.084Z" style="fill-rule:nonzero;"/><path d="M3533.33,1644.17c-192.916,16.25 -303.75,58.333 -390,147.916c-77.083,80.834 -109.166,165.834 -104.583,280c4.583,123.75 50.417,187.917 142.5,200.417c27.083,3.75 75,-5.833 102.083,-20.833c62.084,-33.75 99.584,-109.584 87.5,-177.084c-10.416,-57.5 -30.833,-85.416 -87.083,-117.916c-18.333,-10.417 -33.75,-20.417 -33.75,-21.667c0,-5 53.75,-26.25 78.333,-30.833c32.084,-6.667 115,-3.334 157.084,5.833c117.5,25.833 203.333,80 237.5,149.583c24.166,49.584 29.166,75.417 28.75,148.75c-0,58.334 -1.25,67.917 -11.25,97.917c-19.584,59.583 -53.334,106.667 -104.167,145c-16.25,12.917 -67.917,44.583 -114.583,71.25c-149.584,85 -213.334,130.833 -295,212.5c-99.584,100 -145.834,178.75 -176.25,302.5c-18.334,74.583 -27.084,140 -27.5,202.083c-0,46.25 1.25,56.667 8.333,70.834c10.417,20.416 23.333,23.75 38.333,9.583c14.167,-12.5 18.334,-23.75 38.334,-96.25c29.166,-105.417 52.916,-146.667 133.75,-229.583c111.666,-114.584 234.166,-220 425,-365c212.083,-160.834 271.25,-224.584 325.833,-350.834c34.583,-80.416 45.833,-151.666 34.583,-225.416c-17.083,-113.75 -65.416,-205.417 -150.416,-286.25c-61.667,-58.334 -124.584,-95 -192.5,-112.917c-31.667,-8.333 -108.334,-13.333 -150.834,-9.583Zm119.167,37.083c20,3.75 37.917,7.5 39.167,8.75c3.75,3.75 -20,20.417 -62.084,43.75c-62.916,35 -97.083,72.917 -113.333,127.5c-2.917,10 -5.417,17.917 -6.25,17.917c-0.833,-0 -10.833,-2.084 -22.5,-4.584c-17.5,-3.75 -21.25,-6.25 -23.333,-15.416c-8.334,-38.75 -27.5,-63.334 -79.167,-101.25c-19.167,-14.167 -37.5,-30 -41.25,-35.417c-5.833,-8.75 -5.417,-10 1.25,-13.75c13.75,-7.5 68.75,-20 107.083,-25c20.834,-2.5 42.084,-5.417 47.917,-6.25c29.167,-4.167 119.167,-1.667 152.5,3.75Zm119.583,43.333c18.75,11.25 41.667,26.667 50.417,34.584l16.25,14.166l-11.667,47.917c-18.75,75.833 -25,79.167 -152.083,81.667c-81.667,1.666 -86.667,1.25 -114.583,-8.334c-34.167,-11.666 -34.167,-12.916 -13.75,-56.666c17.5,-36.667 40.416,-57.917 89.166,-83.334c22.5,-11.666 50.834,-28.75 62.084,-37.916c25,-19.584 27.5,-19.584 74.166,7.916Zm-412.083,35.417c64.583,54.583 85.833,77.917 85.833,94.583l0,13.334l-29.166,-2.5c-25.417,-2.084 -31.25,-4.167 -49.584,-18.75c-24.166,-19.167 -45.416,-24.584 -71.666,-17.5c-10,2.916 -45.834,17.083 -80,31.666c-54.584,23.75 -107.084,38.75 -107.084,30.834c0,-7.084 33.75,-54.167 55.834,-78.334c33.75,-36.25 120.833,-92.5 143.75,-92.5c2.916,0 26.666,17.5 52.083,39.167Zm549.583,87.917c13.75,18.333 34.167,52.5 45.417,75.833c21.25,44.583 42.917,117.917 38.75,133.333c-2.917,11.667 -30,26.25 -48.75,26.25c-16.25,0 -56.25,-18.333 -90,-41.25c-30.833,-20.833 -50,-28.75 -77.083,-32.083c-35,-4.167 -49.167,-10 -71.667,-30.833c-11.25,-10.417 -30.417,-26.667 -42.5,-36.25l-21.667,-16.667l61.25,-2.5c71.25,-2.5 97.084,-9.167 116.25,-28.75c17.084,-18.333 20.417,-25.833 26.25,-57.083c2.5,-14.167 6.667,-30.834 8.75,-37.084l4.167,-10.416l12.5,12.083c7.083,6.667 24.167,27.083 38.333,45.417Zm-572.083,8.333c12.083,6.667 11.667,6.667 -29.167,16.667c-37.5,9.583 -79.583,30.416 -118.75,59.583c-42.083,31.25 -52.083,42.083 -85.416,91.25c-15,22.083 -29.584,40.833 -32.5,42.083c-12.5,4.167 -1.667,-82.5 16.25,-131.25c8.333,-21.666 8.75,-22.083 25.833,-22.083c27.083,-0.417 49.167,-6.667 95.833,-27.917c65.834,-29.583 78.75,-34.166 98.75,-34.166c10.417,-0 23.334,2.5 29.167,5.833Zm-77.083,118.333c15.833,7.084 30,19.584 26.666,22.917c-0.833,1.25 -21.25,7.5 -45,14.583c-64.166,19.167 -76.666,30.834 -90.416,85.417c-3.75,15.417 -10.834,33.75 -15.834,41.25c-9.583,14.167 -33.333,32.083 -42.5,32.083c-5.416,0 -15,-27.916 -20.416,-60c-2.5,-15 -1.25,-17.083 15,-32.916c9.583,-9.167 27.083,-32.084 39.166,-50.417c12.084,-18.75 25.417,-37.083 29.584,-40.833c22.916,-20.417 72.916,-26.25 103.75,-12.084Zm60.416,45.834c3.75,7.5 2.084,9.166 -15.416,17.083c-40.834,17.917 -51.667,36.667 -55.417,92.5c-2.917,48.333 -5,51.25 -57.083,82.5c-40,23.75 -45.417,23.75 -71.667,1.25c-20.417,-17.083 -21.25,-23.333 -5,-30.417c28.75,-11.666 45.417,-36.666 60.417,-91.666c9.583,-34.584 21.25,-43.334 82.083,-62.084c62.5,-19.583 56.667,-18.75 62.083,-9.166Zm482.917,16.666c11.25,4.167 37.5,19.167 58.333,32.917c51.667,34.583 82.084,42.083 115.834,27.917c8.333,-3.334 15.833,-5.417 17.083,-4.167c5.417,5.417 0,62.917 -9.583,100c-10.417,40.417 -42.084,114.583 -51.25,120.417c-10.417,6.25 -56.25,-82.917 -65.417,-126.667c-10,-47.917 -28.333,-70 -69.167,-82.917c-8.333,-2.916 -17.916,-7.916 -21.666,-12.083c-5,-5.833 -27.917,-56.25 -27.917,-62.083c0,-4.167 36.25,-0 53.75,6.666Zm-463.75,31.667c5,26.667 0,69.583 -10.833,91.25c-19.584,40.417 -60,69.583 -107.084,77.083c-28.75,4.584 -36.666,0 -16.25,-9.583c8.334,-3.75 21.667,-9.583 30,-13.75c8.334,-3.75 19.584,-13.75 25.417,-22.917c9.167,-13.333 11.25,-22.5 13.75,-59.166c2.917,-51.25 10,-63.75 39.583,-72.917c20,-6.25 22.5,-5.417 25.417,10Zm472.5,62.5c18.333,9.583 28.333,27.083 37.5,67.083c5,20.834 15,48.334 23.75,63.75c30.833,56.25 34.583,64.584 34.583,75.417c0,16.25 -18.333,50 -37.5,68.75c-16.25,15.833 -16.666,15.833 -25,8.333c-4.583,-4.166 -15.833,-23.333 -25.416,-42.916c-9.584,-19.584 -23.334,-41.667 -30,-49.584l-12.5,-14.166l5.416,-32.084c6.667,-37.083 7.5,-82.916 2.917,-122.916c-2.917,-26.667 -2.917,-27.917 5.417,-27.917c5,0 14.166,2.917 20.833,6.25Zm-4.583,258.333l29.583,54.167l-11.667,11.667c-11.666,11.25 -12.5,11.666 -31.666,6.666c-36.25,-9.166 -56.667,-3.333 -109.584,31.25c-47.083,31.25 -63.75,37.917 -87.083,35c-11.25,-1.25 -10,-2.5 19.167,-20.833c64.166,-40 102.5,-79.583 136.25,-141.25c10.833,-20 21.25,-35 22.916,-33.75c1.25,1.667 15.834,27.083 32.084,57.083Zm-18.75,89.167c6.666,2.5 3.75,6.25 -18.75,26.25c-14.584,12.917 -40.417,33.75 -57.5,46.25l-30.834,23.333l-27.916,-2.5c-24.167,-2.083 -31.25,-0.833 -50.417,7.917c-12.5,5.833 -35,20 -50.417,31.667c-80.416,62.083 -121.666,80.416 -186.666,82.916l-43.75,1.667l17.083,-15.833c22.5,-20.834 86.667,-63.75 152.083,-101.25c49.584,-28.334 52.5,-29.584 73.75,-27.917c47.084,3.333 80.417,-7.917 130.417,-45c14.583,-10.833 32.5,-22.5 39.167,-25.417c13.333,-5.833 41.25,-7.083 53.75,-2.083Zm-147.5,122.917c-5.834,5.833 -65.834,54.583 -133.334,108.75l-122.916,98.75l-30.834,-2.5c-79.583,-5.417 -130.833,23.333 -184.166,102.083c-20.834,31.25 -55.834,65.417 -61.25,60.417c-2.917,-2.917 18.333,-46.667 39.166,-81.25c33.334,-54.584 93.334,-126.25 133.75,-160l18.75,-15.417l38.334,2.5c67.083,4.583 127.916,-15 190,-61.25c38.75,-28.75 79.166,-55.833 87.5,-59.167c3.333,-1.25 12.916,-2.5 20.833,-2.5l14.583,-0.416l-10.416,10Zm-286.25,222.916c6.25,2.084 -9.584,19.584 -86.667,94.167c-62.917,60.833 -102.917,96.25 -119.583,105.833c-13.334,7.5 -35,23.334 -47.917,35c-22.917,21.25 -22.917,21.25 -20.833,9.167c1.25,-7.083 3.75,-20 5,-29.167c3.75,-22.083 16.666,-42.5 32.083,-50.416c20.833,-10.834 45,-35.417 67.083,-68.334c27.5,-40.416 54.584,-69.583 75.834,-80.416c30.416,-15.417 76.25,-23.334 95,-15.834Zm-241.667,274.167c-15.417,31.25 -30.417,72.917 -50.417,138.75c-3.75,13.333 -4.166,11.25 -4.583,-18.75c-0.417,-55.417 15.417,-99.583 50,-136.25c10.417,-10.833 20,-20 21.25,-20c1.25,0 -5.833,16.25 -16.25,36.25Z" style="fill-rule:nonzero;"/><path d="M997.917,2068.33c-49.584,18.334 -80,93.75 -56.25,140c13.75,26.667 51.25,50 80,50c20,0 53.333,-17.083 69.583,-35.416c19.583,-22.5 26.667,-41.667 27.083,-72.917c0.417,-34.167 -12.083,-58.333 -37.916,-73.75c-22.5,-12.917 -58.75,-16.667 -82.5,-7.917Z" style="fill-rule:nonzero;"/><path d="M2102.5,2122.08c-7.5,10.834 -26.25,240.834 -21.25,260l2.917,11.667l7.5,-9.167c4.166,-5.416 8.75,-18.333 10,-29.166c1.25,-11.25 7.083,-61.25 12.916,-111.667c5.834,-50.417 11.667,-97.5 12.917,-104.583c1.667,-8.75 0,-15 -4.583,-19.584c-9.167,-9.583 -13.334,-8.75 -20.417,2.5Z" style="fill-rule:nonzero;"/><path d="M1815.42,2285.83c-1.667,1.667 -2.917,5.834 -2.917,8.75c0,5.417 57.917,87.917 76.25,108.334c8.75,9.583 23.75,12.916 23.75,5.416c0,-10 -25.833,-54.583 -50.833,-87.5c-24.584,-32.5 -38.334,-42.916 -46.25,-35Z" style="fill-rule:nonzero;"/><path d="M2335,2322.92c-34.583,39.583 -68.333,87.083 -67.5,93.75c2.917,15.416 16.25,5 58.75,-46.25c38.333,-46.667 44.167,-55.417 40.417,-62.084c-2.5,-4.583 -6.25,-8.333 -8.334,-8.333c-2.083,0 -12.5,10.417 -23.333,22.917Z" style="fill-rule:nonzero;"/><path d="M1469.58,2337.5c-3.75,5 -5.416,12.083 -4.166,15.833c2.5,5.834 230.416,120 264.583,132.084c19.583,7.083 25,0.833 11.25,-12.917c-11.25,-10.833 -239.583,-137.5 -255,-141.667c-7.5,-1.666 -12.083,0 -16.667,6.667Z" style="fill-rule:nonzero;"/><path d="M237.5,2402.08c-4.583,5.417 -4.167,15.417 2.083,55.834c9.584,62.083 7.084,140.833 -5.833,189.583c-26.667,100.833 -92.917,200.417 -152.083,229.583c-13.75,6.667 -33.334,12.084 -51.25,13.75c-25.834,2.5 -28.334,3.75 -29.584,12.917c-2.083,13.75 5,17.083 36.667,17.083c31.667,0 82.917,16.25 119.583,37.917c38.334,22.5 76.25,63.75 96.25,104.167c24.584,50.416 31.25,82.5 29.167,143.333c-1.667,44.583 -3.75,54.583 -17.917,93.75c-23.75,67.5 -25.416,73.333 -19.166,80.833c3.333,3.75 8.75,6.667 12.5,6.667c3.75,0 32.916,-15.417 64.583,-33.75c102.5,-60.417 165.417,-80 254.583,-80.417c64.584,0 91.667,5.834 145.834,32.917c26.666,12.917 48.333,28.333 75,52.083c40.416,36.25 47.5,40.417 60.416,33.334c11.667,-6.25 13.75,-19.167 11.25,-74.167c-4.166,-99.167 9.584,-176.667 43.75,-246.25c31.25,-63.333 76.25,-97.5 145.417,-110.833c70,-13.334 95.417,-19.584 95.417,-22.5c-0,-8.334 -18.75,-18.334 -56.667,-30c-54.583,-17.084 -93.75,-37.917 -124.583,-67.084c-42.084,-39.166 -58.334,-78.333 -63.334,-154.166c-2.5,-38.334 -2.083,-41.667 9.167,-63.75c7.5,-15.834 10,-25 7.083,-27.917c-2.083,-2.083 -18.75,-5.833 -36.666,-7.917c-49.167,-6.25 -92.917,-28.333 -110,-55.833c-11.667,-18.75 -10.834,-45.417 2.083,-68.333c20.417,-35.834 9.167,-45.834 -26.667,-24.167c-61.25,37.5 -105.833,52.083 -173.333,55.417c-92.917,5.416 -191.25,-22.084 -294.583,-82.084c-30,-17.5 -41.25,-19.583 -49.167,-10Zm79.167,59.584c132.916,67.083 263.333,81.25 375.833,40.416c45,-16.666 46.25,-16.25 50,7.5c7.083,50.417 67.5,97.917 133.75,105.834c20.417,2.5 20.417,2.5 17.5,15.416c-15.417,76.25 2.083,157.084 47.083,213.334c17.917,22.916 60.417,53.333 98.334,70.833c12.916,5.833 23.333,11.25 23.333,12.083c0,0.834 -15,6.25 -33.333,12.084c-18.334,5.833 -41.25,15.416 -50.834,21.666c-43.333,26.667 -83.333,79.584 -104.583,137.084c-22.917,62.083 -28.333,94.583 -31.667,184.583l-2.5,75.833l-31.25,-27.5c-70,-61.666 -133.75,-85.416 -227.083,-85.416c-90.417,0.416 -184.583,29.583 -272.083,84.583c-14.167,9.167 -27.084,15.833 -28.334,15c-0.833,-1.25 3.75,-19.167 10.834,-39.583c39.583,-119.167 19.166,-233.334 -57.5,-317.917c-25.417,-28.333 -71.25,-60.417 -106.25,-74.583l-24.167,-10l36.667,-37.917c20.416,-20.833 43.75,-47.5 52.083,-58.75c34.167,-47.917 62.5,-113.75 74.583,-175c6.25,-31.25 8.334,-156.25 2.917,-180.417c-1.667,-7.083 -2.5,-13.333 -2.083,-13.333c0.833,0 22.5,10.833 48.75,24.167Z" style="fill-rule:nonzero;"/><path d="M537.5,2656.67c-45.417,14.166 -78.333,52.916 -82.083,97.5c-3.75,40.416 13.333,66.666 43.333,66.666c20,0 35.417,-16.666 46.667,-50.416c5,-15 13.75,-32.084 19.583,-37.5c18.333,-17.5 54.167,-10 66.667,13.75c11.666,22.5 8.333,31.666 -41.25,114.583c-37.5,63.333 -47.084,89.167 -43.334,120.833c2.084,20.834 7.917,27.084 23.75,25.417c8.75,-1.25 11.25,-5 17.5,-29.583c8.75,-33.75 20.834,-58.334 47.5,-97.084c34.167,-50 45,-77.5 46.667,-120.416c1.667,-32.5 0.417,-40.417 -7.5,-57.5c-5.417,-11.25 -15.833,-24.584 -23.333,-30.417c-27.917,-21.667 -75.834,-27.917 -114.167,-15.833Z" style="fill-rule:nonzero;"/><path d="M557.5,3054.17c-16.667,12.916 -22.083,30 -14.167,45.416c7.084,13.334 17.917,21.25 30,21.25c10.417,0 35,-27.916 35,-40c0,-11.666 -7.083,-27.083 -14.166,-31.666c-8.334,-5.834 -26.25,-3.334 -36.667,5Z" style="fill-rule:nonzero;"/><path d="M2560,2462.92c-38.75,25.416 -84.167,55 -101.25,65.833c-33.75,21.25 -58.75,40.833 -58.75,46.667c0,11.666 30.833,-2.917 132.083,-62.917c115.834,-68.75 127.5,-78.333 110.834,-90.833c-3.75,-2.5 -8.334,-5 -10,-5c-1.667,-0 -34.584,20.833 -72.917,46.25Z" style="fill-rule:nonzero;"/><path d="M1975.83,2466.25c-38.333,9.583 -83.75,32.083 -114.166,56.667c-42.5,34.166 -83.75,98.75 -101.667,158.333c-7.917,27.5 -10.417,97.5 -4.583,132.5c5.833,34.583 9.583,36.25 84.166,36.25l64.584,0l2.5,-11.667c7.916,-37.5 24.583,-88.75 34.166,-106.666c27.5,-51.25 79.167,-86.667 125.834,-86.667c61.666,0 101.666,45.417 101.666,115.417c0.417,50.416 -6.666,62.5 -82.5,139.166c-81.25,82.917 -100,110.417 -125,185.834c-20.833,62.083 -44.166,193.333 -38.333,216.25c3.333,12.916 16.667,17.083 74.583,23.333c44.584,4.583 55.417,2.083 58.75,-13.75c1.25,-5 7.084,-35.417 12.917,-67.5c21.667,-113.75 41.25,-157.917 115.833,-255.833c104.167,-136.667 138.75,-203.75 143.334,-275.417c4.166,-69.167 -20.417,-139.167 -64.167,-182.5c-45,-44.583 -111.667,-67.5 -203.333,-70c-42.5,-1.25 -60.417,0 -84.584,6.25Zm90.417,20.833c7.083,4.584 4.167,24.167 -12.917,86.667c-14.583,53.75 -21.666,61.25 -27.916,29.167c-4.167,-20.417 -12.917,-95 -12.917,-108.75c0,-9.167 41.667,-14.584 53.75,-7.084Zm67.5,7.084c17.083,3.75 31.667,7.5 32.5,8.333c5.833,5 -85.833,114.167 -96.25,114.167c-5.833,-0 -7.5,-2.084 -5.833,-7.5c1.666,-6.25 15.416,-58.75 27.5,-104.167c2.5,-9.583 6.25,-17.5 7.916,-17.5c2.084,0 17.5,2.917 34.167,6.667Zm-142.083,0.416c-0,2.084 4.583,32.917 10.416,69.167c12.084,76.667 11.25,69.583 6.667,69.583c-4.167,0 -87.917,-106.666 -87.917,-112.5c0,-5 21.25,-16.25 43.75,-23.333c19.584,-6.25 27.084,-7.083 27.084,-2.917Zm224.166,31.25l22.917,12.917l-18.333,16.25c-23.75,20.833 -77.084,62.5 -87.917,68.75c-8.75,5 -34.167,-0.417 -31.667,-7.083c1.667,-3.75 88.334,-103.334 90.417,-103.75c0.833,-0.417 11.667,5.416 24.583,12.916Zm-270.416,62.5c41.666,49.584 45.416,55.417 37.916,58.334c-6.25,2.083 -23.75,-5.417 -69.583,-30.417c-33.75,-18.333 -63.333,-35 -65.833,-37.5c-5,-5 35,-45.417 45,-45.417c3.333,0 27.083,24.584 52.5,55Zm328.333,10c-2.5,2.5 -27.917,18.75 -55.833,36.25l-50.417,31.25l-9.583,-10c-11.667,-12.083 -14.584,-8.75 50.416,-59.583l47.5,-37.5l11.667,17.5c8.75,13.333 10.417,18.333 6.25,22.083Zm-380,31.25c35.417,18.334 64.583,35 64.583,36.667c0,6.667 -10.833,12.917 -22.5,12.917c-18.333,-0.417 -131.25,-18.75 -134.583,-22.5c-2.5,-2.084 23.333,-60.834 26.667,-60.834c0.416,0 30.416,15 65.833,33.75Zm396.25,-1.666c1.25,6.666 4.167,17.5 5.833,25c3.334,13.333 3.334,13.333 -30.416,32.083c-18.75,10 -42.084,22.083 -52.084,27.083l-17.5,9.167l-8.75,-20c-6.666,-15.417 -7.083,-20 -2.916,-22.5c2.916,-1.667 26.25,-16.25 51.25,-32.5c25.416,-16.25 47.083,-29.167 48.75,-29.583c1.666,-0 4.166,5 5.833,11.25Zm-431.667,61.666c70,9.584 67.917,8.75 64.584,22.084c-1.25,6.25 -4.584,12.916 -6.667,15.416c-2.5,2.084 -34.167,5 -70.417,6.25c-75.416,2.5 -70.416,5 -61.666,-33.333c4.583,-19.583 5.416,-20.833 15.416,-19.167c5.834,1.25 32.5,5 58.75,8.75Zm441.667,20c0,12.084 -2.5,20.417 -7.083,24.584c-6.667,5.833 -84.584,40.833 -90.417,40.833c-1.667,0 -2.5,-8.333 -2.5,-17.917l0,-18.333l47.083,-23.333c25.417,-12.5 47.917,-23.334 50,-23.334c1.667,-0.416 2.917,7.917 2.917,17.5Zm-400,52.084c0,4.166 -2.5,10.833 -5,14.583c-5.833,7.5 -109.167,45.417 -113.333,41.667c-1.25,-1.667 -2.5,-15.417 -2.5,-30.834l-0,-28.333l30.416,-1.667c82.917,-3.75 90.417,-3.333 90.417,4.584Zm387.5,7.916c0,2.084 -6.25,14.584 -13.75,28.334l-13.333,25l-37.084,9.583c-20,5.417 -37.5,8.75 -38.75,7.5c-1.25,-1.25 1.25,-12.083 5.834,-24.167l8.333,-22.083l39.167,-13.333c40.416,-14.167 49.583,-15.834 49.583,-10.834Zm-400,40.417c0,10.833 -11.667,16.25 -27.917,12.917l-15.833,-2.917l18.75,-7.5c23.75,-9.583 25,-9.583 25,-2.5Zm354.167,42.083c-0,7.5 -17.917,35.834 -25,39.584c-9.584,5 -83.334,17.916 -86.25,15c-3.334,-2.917 25,-32.084 37.916,-38.75c18.75,-10 73.334,-21.667 73.334,-15.834Zm-45.834,67.5c0,5.834 -15.416,26.667 -24.166,32.917c-5,3.333 -24.167,7.917 -43.334,10.417c-19.166,2.083 -41.666,5.833 -50,7.916c-8.75,1.667 -15.833,2.084 -15.833,0.834c0,-5 21.667,-30.417 30.417,-35c5,-2.917 28.75,-8.334 52.916,-12.084c24.167,-3.75 45,-7.083 47.084,-7.5c1.666,0 2.916,0.834 2.916,2.5Zm-45.833,63.334c0,2.083 -6.25,10.416 -13.75,18.333c-10.417,11.25 -19.167,15.417 -37.917,19.583c-13.333,2.5 -34.583,8.75 -47.5,12.917c-12.5,4.167 -26.666,7.917 -30.833,7.917c-7.5,-0 -7.5,-0.417 0.417,-15.834c13.75,-27.083 21.25,-30.833 74.583,-38.333c26.667,-4.167 50,-7.5 52.083,-7.917c1.667,0 2.917,1.25 2.917,3.334Zm-46.25,66.666c-2.5,6.667 -7.917,15.417 -12.083,19.167c-7.084,6.25 -91.25,39.583 -100,39.583c-4.167,0 -0.834,-22.916 5,-34.166c3.333,-7.084 26.666,-15.417 82.5,-30c12.5,-3.334 24.166,-6.25 25.833,-6.25c1.667,-0.417 0.833,5 -1.25,11.666Zm-35.417,71.25c-6.666,16.667 -9.583,18.75 -50.833,37.917c-23.75,11.25 -44.167,20.417 -45.417,20.417c-1.25,-0 -1.25,-8.75 0.417,-19.584c2.5,-20.416 12.083,-34.583 22.917,-34.583c3.75,-0.417 22.5,-5.417 42.083,-12.083c19.583,-6.25 35.833,-11.25 36.667,-10.834c0.833,0.834 -2.084,9.167 -5.834,18.75Zm-14.166,50c-0,9.167 -37.084,40.417 -65.417,55.417l-30.417,15.833l0,-13.75c0,-20.833 9.167,-30.416 40.417,-42.5c15.833,-6.25 31.25,-12.916 34.583,-15c8.334,-5.416 20.834,-5.416 20.834,0Zm-15.834,62.917c-2.5,5.417 -7.5,12.917 -11.666,16.667c-11.667,10 -63.334,41.25 -67.917,41.25c-6.25,-0 -9.583,-15.417 -5.417,-23.334c4.584,-8.75 81.25,-51.25 85.417,-47.5c1.667,1.667 1.667,7.5 -0.417,12.917Zm-9.166,53.75c-0,11.667 -0.834,12.5 -15.834,12.5c-22.5,0 -24.583,-4.583 -6.25,-15.417c20.417,-12.5 22.084,-12.083 22.084,2.917Z" style="fill-rule:nonzero;"/><path d="M1522.08,2648.75c-6.25,2.5 -7.083,16.25 -1.25,20c7.917,5 142.084,31.25 159.167,31.25l17.083,0l-7.916,-8.75c-10.417,-11.667 -15.417,-13.333 -89.167,-30.833c-63.333,-14.584 -68.75,-15.417 -77.917,-11.667Z" style="fill-rule:nonzero;"/><path d="M4108.33,2675c-48.75,13.333 -73.75,27.5 -106.666,60.417c-48.75,49.166 -73.75,110.833 -74.167,183.333c-0.417,40.417 8.333,67.917 27.917,88.75c26.666,28.75 76.25,36.25 105.833,16.667c19.167,-12.5 36.667,-43.334 32.083,-55.834c-1.666,-4.166 -11.25,-16.666 -21.25,-27.5c-15.416,-16.666 -17.916,-22.083 -17.916,-37.5c-0,-41.25 15.416,-66.666 51.666,-85.833c17.917,-9.583 26.25,-11.25 54.584,-11.25c56.25,0.417 99.166,26.25 122.916,74.167c65,132.5 -4.583,296.25 -145.833,342.5c-17.083,5.416 -67.917,15.833 -112.5,22.916c-171.25,27.084 -202.083,34.584 -255.417,60.834c-45.416,22.5 -77.5,46.25 -118.333,87.083c-54.583,55 -72.917,95.833 -57.5,128.75c10.417,21.667 26.667,29.167 57.917,26.25c21.25,-1.667 36.666,-7.917 94.166,-37.5c104.584,-53.75 118.75,-57.5 295.834,-80.417c167.5,-21.25 262.5,-56.666 356.25,-132.083c70,-56.25 116.25,-125.833 135.833,-202.917c18.333,-72.916 2.917,-165.416 -39.583,-237.5c-47.084,-80 -127.917,-147.5 -210,-176.25c-32.084,-11.25 -42.917,-12.916 -90.417,-14.166c-44.167,-0.834 -60,0.416 -85.417,7.083Zm80.834,35.833c1.25,10.834 2.5,29.584 2.5,41.667l-0,22.5l-33.334,0l0,-83.333l14.167,-0c13.333,-0 14.167,0.833 16.667,19.166Zm57.5,-11.25c1.25,1.25 3.75,24.584 5.416,51.667l2.917,49.167l-15.417,-6.25c-8.75,-3.75 -16.25,-6.667 -16.666,-6.667c-4.584,0 -7.5,-20.417 -7.917,-55.417l-0.833,-40.416l14.583,2.5c8.333,1.666 16.25,3.75 17.917,5.416Zm-113.334,32.084c2.917,37.916 2.084,42.083 -9.166,47.916c-12.917,7.084 -16.667,-2.083 -14.584,-38.75c1.667,-31.25 7.5,-47.083 17.084,-43.75c2.5,0.834 5.416,16.25 6.666,34.584Zm-45.833,17.5c-0,35.416 -1.25,42.083 -8.333,50c-14.584,15.833 -19.584,11.666 -22.084,-19.167c-5,-52.5 -4.583,-56.667 10.834,-64.583c7.083,-3.334 14.583,-6.667 16.666,-6.667c1.667,-0.417 2.917,17.917 2.917,40.417Zm206.25,-35.417c6.667,5 7.917,13.75 9.583,68.75c2.084,67.083 0.417,72.5 -15.416,52.5c-12.917,-16.25 -15.417,-32.083 -13.75,-82.083c1.666,-46.667 3.75,-50.417 19.583,-39.167Zm52.083,27.917c7.917,7.916 8.334,13.75 8.334,146.666c-0,76.25 1.25,198.75 2.916,272.5l2.5,133.334l-14.583,9.166c-7.917,5 -16.25,9.167 -17.5,9.167c-1.667,0 -2.083,-62.5 -0.417,-138.75c1.25,-75.833 2.917,-161.667 3.334,-190.417c0.416,-28.75 -0.834,-96.666 -2.5,-151.25c-3.334,-88.333 -2.917,-98.75 2.916,-98.75c3.75,0 10.417,3.75 15,8.334Zm-310.833,23.333c4.583,33.75 2.917,76.667 -4.167,100.417c-3.75,12.5 -5.833,29.166 -5,37.083c0.834,7.917 0.417,14.167 -1.25,14.167c-3.333,-0 -5.833,-13.75 -12.083,-75.834c-5.833,-55.833 -5.417,-75 2.5,-85.833c10,-14.583 17.083,-11.25 20,10Zm362.5,15c5.833,9.167 9.167,124.583 11.667,393.75c0.833,75 0.416,76.25 -9.167,86.667c-9.167,10 -10.417,10 -14.167,3.333c-4.583,-8.333 -9.583,-475.417 -5.416,-486.25c3.75,-9.167 10,-8.333 17.083,2.5Zm-406.25,55.417c5.833,31.666 17.083,135.416 17.083,155c0,17.083 -10.833,18.75 -14.166,2.083c-7.5,-37.5 -23.334,-139.583 -23.334,-152.083c0,-16.667 7.917,-37.084 12.5,-34.167c2.084,1.25 5.417,14.167 7.917,29.167Zm464.583,40c1.25,19.166 4.167,80.833 6.667,137.083c2.5,56.25 5,112.5 6.25,125c2.5,31.25 -3.333,53.333 -17.917,67.917l-12.5,12.5l-2.5,-26.667c-1.25,-14.583 -3.333,-79.167 -4.583,-143.333c-1.25,-64.167 -3.333,-143.75 -4.583,-177.084l-2.084,-60.416l14.167,15c13.75,14.166 14.583,17.5 17.083,50Zm37.084,37.916c25,62.917 29.583,127.917 13.333,183.334c-13.75,47.5 -16.25,38.75 -22.917,-77.917c-2.5,-43.75 -5.416,-90.833 -6.666,-105.417c-1.667,-16.25 -1.25,-25.833 1.666,-25.833c2.084,0 8.75,11.667 14.584,25.833Zm-528.75,40.834l2.083,18.75l-5.833,-12.5c-3.334,-7.084 -5.834,-22.084 -5.834,-33.334c0.417,-20 0.417,-20.416 3.75,-6.25c2.084,7.917 4.584,22.917 5.834,33.334Zm81.666,-0c12.917,-0 25,7.5 25,15.833c0,11.25 -15,32.917 -24.583,35.417c-7.5,1.666 -9.583,-0.834 -15,-19.167c-3.333,-11.667 -6.25,-29.583 -6.25,-40l0.417,-19.167l5.833,13.334c3.75,9.166 8.75,13.75 14.583,13.75Zm249.584,375.833c-17.084,14.167 -19.167,10.417 -21.667,-43.333c-1.667,-27.5 -2.917,-65 -2.917,-82.5c0,-29.584 0.834,-32.917 13.75,-49.584l13.334,-17.5l2.916,92.917c2.917,90.833 2.917,92.917 -5.416,100Zm-45.834,-44.167l0.417,67.084l-16.667,6.666c-9.166,3.334 -17.5,5 -18.333,3.75c-3.333,-5.416 -7.5,-121.25 -5,-131.666c1.25,-5.834 9.583,-15.417 18.333,-21.25l15.417,-10.417l2.917,9.167c1.25,5.416 2.5,39.583 2.916,76.666Zm-59.166,19.167l-0.834,67.917l-14.583,4.583l-14.583,5l-2.5,-17.5c-1.667,-9.167 -3.334,-39.583 -4.167,-66.667l-1.667,-49.583l14.584,-5.417c25.833,-9.166 24.583,-11.666 23.75,61.667Zm-63.334,-37.083c1.667,5.416 3.75,34.166 5.417,64.166c3.333,60.417 3.75,59.167 -23.333,59.584l-9.167,-0l2.5,-61.667c2.083,-48.333 4.167,-62.5 9.167,-66.667c9.583,-7.083 12.916,-6.25 15.416,4.584Zm-47.916,28.75c-0,57.083 -5,98.333 -11.667,101.25c-3.333,1.25 -7.917,0.833 -9.583,-0.834c-1.667,-1.666 -3.75,-30.416 -4.167,-63.75l-1.25,-60l10,-2.916c5.833,-1.667 11.667,-2.917 13.75,-3.334c1.667,-0.416 2.917,13.334 2.917,29.584Zm-50,42.5l-0,64.166l-29.167,3.334l0,-127.084l11.667,-1.666c6.25,-0.834 12.5,-2.084 14.583,-2.5c1.667,-0 2.917,28.333 2.917,63.75Zm-54.167,6.666c0,34.167 -1.25,62.5 -2.917,62.5c-2.083,0 -7.5,1.25 -12.5,2.5l-9.583,2.5l0,-62.5c0,-56.25 0.833,-62.916 7.5,-64.583c17.5,-4.583 17.5,-5.417 17.5,59.583Zm-50,8.334c0,47.083 -1.25,62.5 -5,62.5c-2.917,-0 -10,1.25 -15.417,2.916l-10,2.5l2.917,-61.666c2.5,-63.334 4.167,-68.75 20.417,-68.75c6.25,-0 7.083,5.833 7.083,62.5Zm-52.5,-37.084c2.5,16.25 0,82.5 -4.167,102.5c-0.833,5.417 -6.666,10.417 -14.583,13.334c-25.417,8.75 -25,10.416 -23.75,-58.75l1.25,-63.334l16.667,-5c9.166,-2.916 17.916,-5.416 19.166,-5.416c1.667,-0.417 3.75,7.083 5.417,16.666Zm-66.667,48.334c-3.333,70 -5.833,84.166 -14.166,88.75c-16.25,8.75 -17.084,6.25 -15.834,-57.084c1.25,-60.833 1.25,-61.666 11.667,-66.666c19.583,-10 20.417,-8.334 18.333,35Zm-52.916,25c-1.667,22.5 -2.917,49.583 -2.917,60.416c0,22.084 -10,36.667 -25,36.667c-7.5,0 -8.333,-2.5 -7.917,-26.25c0,-14.167 1.667,-40.417 3.334,-58.75c2.5,-28.75 4.166,-33.75 14.166,-42.5c19.584,-16.667 21.25,-13.75 18.334,30.417Zm-55.417,56.25c-2.917,32.083 -7.083,60.416 -8.75,62.083c-1.667,1.667 -8.333,4.583 -14.583,5.833c-13.334,3.334 -13.334,3.75 -8.75,-60.416c2.5,-37.084 2.916,-38.75 17.083,-52.5c7.917,-7.917 15.833,-14.167 17.5,-14.167c1.25,0 0,26.667 -2.5,59.167Zm-54.583,36.25c-2.084,31.25 -3.334,34.166 -10.834,32.916c-13.333,-2.083 -17.5,-12.916 -12.083,-31.666c4.583,-15.417 20.833,-40.417 24.167,-37.084c0.833,0.834 0.416,16.667 -1.25,35.834Z" style="fill-rule:nonzero;"/><path d="M2516.67,2789.58c-42.5,5.417 -80.417,10.834 -84.167,12.5c-7.083,2.917 -14.167,17.5 -10.417,21.667c1.25,0.833 43.75,-2.5 94.584,-8.333c96.666,-10.417 106.666,-13.334 92.916,-28.75c-3.75,-4.167 -8.75,-7.084 -11.25,-7.084c-2.5,0.417 -39.166,5 -81.666,10Z" style="fill-rule:nonzero;"/><path d="M1394.17,2889.58c-3.75,10 1.666,17.917 13.333,20.417c28.75,5.417 250.833,24.167 257.5,21.667c7.083,-2.5 6.667,-3.334 -1.25,-11.667c-7.5,-7.5 -23.75,-10.417 -116.667,-22.5c-122.5,-15.833 -149.166,-17.083 -152.916,-7.917Z" style="fill-rule:nonzero;"/><path d="M2354.17,3037.08c-0,5.417 10.833,7.5 153.75,29.584c130.416,20 146.25,20.833 146.25,7.083c-0.417,-15 -7.917,-17.083 -107.084,-28.333c-98.333,-11.667 -192.916,-15.417 -192.916,-8.334Z" style="fill-rule:nonzero;"/><path d="M1625.42,3115c-46.667,5.833 -58.75,10 -58.75,20.417c-0,13.333 10.416,14.166 68.75,6.25c32.083,-4.584 66.666,-10.417 76.666,-13.334c17.5,-5.416 17.917,-5.833 11.25,-12.916c-8.75,-8.334 -29.166,-8.75 -97.916,-0.417Z" style="fill-rule:nonzero;"/><path d="M2288.75,3210.83c-2.083,5 0.833,10 10,17.084c22.917,17.916 127.917,80.833 135.833,81.666c4.584,0.417 10,-2.5 12.5,-6.25c7.084,-10.833 -1.666,-17.5 -75.416,-58.75c-74.167,-41.666 -79.167,-43.75 -82.917,-33.75Z" style="fill-rule:nonzero;"/><path d="M1648.75,3362.08c-80.417,42.084 -165,95.417 -183.75,116.667c-6.25,7.083 -6.667,9.583 -2.5,15c2.917,3.333 8.333,6.25 12.083,6.25c3.75,0 35,-18.333 69.584,-41.25c34.583,-22.5 82.5,-52.917 106.25,-67.5c23.75,-14.167 49.583,-30.833 57.5,-36.667c12.083,-9.166 12.916,-10.833 6.25,-13.333c-13.75,-5.417 -17.5,-4.167 -65.417,20.833Z" style="fill-rule:nonzero;"/><path d="M2222.92,3382.92c-1.25,2.5 12.083,14.166 29.583,26.25c88.75,60.833 166.25,124.166 192.917,157.916c10.833,12.917 16.25,16.25 24.583,15.417c8.75,-0.833 11.667,-3.75 12.5,-12.083c0.833,-8.75 -5,-16.25 -33.333,-41.667c-49.167,-44.167 -77.917,-67.083 -123.75,-97.083c-59.167,-39.584 -97.084,-57.084 -102.5,-48.75Z" style="fill-rule:nonzero;"/><path d="M3021.25,3406.25c-36.25,38.333 -56.667,95.417 -44.583,124.583c16.666,40 74.583,42.084 105.833,4.167c30,-36.25 27.5,-100.833 -5,-136.25c-20,-21.667 -29.583,-20.417 -56.25,7.5Zm45.417,29.583c-0,4.584 -59.167,60 -63.75,60c-2.917,0 5,-29.166 11.666,-41.666c2.917,-5.834 11.667,-18.75 19.167,-28.75l13.333,-18.75l9.584,12.5c5.416,6.666 10,14.166 10,16.666Zm2.083,62.5c-2.917,15.834 -23.333,35 -37.5,35c-35.417,0 -30,-20.416 14.583,-53.75l22.917,-17.083l1.25,11.25c0.833,5.833 0.417,17.083 -1.25,24.583Z" style="fill-rule:nonzero;"/><path d="M1907.08,3394.58c-0.833,2.084 -4.166,22.084 -6.666,45c-2.917,22.917 -5.834,45 -6.667,49.167c-2.917,15.833 10.417,23.75 48.75,27.917c50,5.833 82.083,6.25 87.5,0.833c5.417,-5.417 17.083,-86.25 14.167,-98.75c-2.084,-8.75 -6.25,-10 -38.75,-14.583c-20.417,-2.5 -44.584,-6.667 -54.167,-8.75c-21.25,-4.584 -41.667,-5 -44.167,-0.834Zm62.084,26.25l10.833,4.167l-24.167,15.833c-13.75,8.75 -27.083,17.084 -29.583,19.167c-4.167,2.083 -5.417,-2.917 -5.417,-20l0,-23.333l18.334,-0c10.416,-0 23.75,2.083 30,4.166Zm50.833,17.5c-2.083,14.167 -62.917,55 -81.667,54.584c-7.5,-0.417 -15,-1.667 -16.666,-3.334c-4.584,-4.583 22.916,-25.416 57.083,-43.75c36.667,-19.166 43.333,-20.416 41.25,-7.5Zm-8.333,45.834c-0.834,7.916 -4.167,9.583 -17.917,10.833l-16.667,0.833l11.667,-10.416c15,-13.334 25,-13.75 22.917,-1.25Z" style="fill-rule:nonzero;"/><path d="M1703.33,3586.67c-35,27.083 -64.583,52.5 -65,56.666c-2.5,11.667 7.917,15.834 20,7.917c16.25,-10.833 109.584,-86.667 117.917,-96.25c8.333,-9.167 6.667,-17.5 -3.333,-17.5c-2.917,0 -34.584,22.083 -69.584,49.167Z" style="fill-rule:nonzero;"/><path d="M3493.75,3547.92c-2.083,0.833 -9.167,2.5 -15.417,3.75c-15.416,3.333 -40.833,26.25 -47.5,42.916c-22.916,54.167 27.917,118.334 92.917,117.917c26.25,-0.417 62.083,-25.833 71.667,-51.25c6.25,-16.667 5.833,-51.25 -1.25,-64.583c-8.334,-15.834 -27.084,-32.5 -44.167,-40c-15,-6.25 -49.167,-11.667 -56.25,-8.75Zm37.917,26.25c3.75,2.083 2.916,16.25 -2.084,53.75c-3.75,27.916 -8.333,52.083 -10,53.75c-3.75,4.166 -22.5,-1.667 -24.583,-7.5c-0.833,-2.917 0,-27.5 2.083,-54.584l4.167,-48.75l12.917,0c7.083,0 15,1.667 17.5,3.334Zm-54.584,54.583l-2.916,39.583l-12.084,-13.333c-10,-11.25 -12.083,-17.083 -12.083,-34.583c0,-18.334 1.667,-22.917 13.333,-34.167c12.084,-12.083 13.75,-12.5 15,-5.417c0.834,4.584 0.417,25.834 -1.25,47.917Zm92.084,-13.75c7.5,17.5 2.916,37.5 -11.667,50l-8.75,7.917l2.917,-22.917c3.75,-32.5 7.5,-50 9.583,-50c0.833,0 4.583,6.667 7.917,15Z" style="fill-rule:nonzero;"/><path d="M937.917,3587.92c-102.917,20 -182.5,92.916 -212.917,195c-7.917,25.416 -9.167,37.083 -7.5,70.833c2.5,46.667 12.083,75.417 37.917,114.167c22.5,32.916 51.25,55 87.5,66.25c47.5,14.166 85.833,4.583 116.25,-29.167c27.916,-30.833 30.416,-65.833 7.5,-102.083c-16.667,-26.667 -29.167,-33.75 -53.334,-30.834c-10.833,1.25 -23.333,3.75 -27.5,5.417c-7.5,2.917 -7.916,1.667 -5.416,-19.583c9.583,-81.667 122.5,-108.334 189.166,-44.584c7.084,7.084 18.334,24.167 25,38.334c10.834,23.75 11.667,28.333 11.25,79.583c-0.416,71.667 -9.583,100.833 -68.333,222.917c-47.083,98.333 -54.167,115.833 -64.583,166.666c-16.25,77.084 -15,242.084 2.083,296.667c9.583,31.25 17.083,40.833 30.833,40.833c21.25,0 25.417,-12.5 42.084,-125.416c16.666,-113.75 30,-148.334 111.25,-289.167c116.25,-201.25 133.75,-247.083 133.333,-347.917c0,-86.25 -16.667,-145.416 -55.833,-197.5c-40,-53.333 -100.834,-94.166 -161.667,-108.333c-29.583,-7.083 -106.25,-8.333 -137.083,-2.083Zm40.416,45.416c2.084,20 15.417,33.334 32.917,33.334c11.25,-0 18.75,-4.167 36.667,-21.25l22.5,-21.25l20.416,4.583c87.084,21.25 167.084,136.25 167.5,241.25c0,21.667 0,21.667 -16.666,28.333c-27.084,10.834 -28.75,36.25 -2.917,48.75c8.333,3.75 15.417,8.334 15.417,9.584c-0,1.25 -4.167,16.25 -8.75,32.916l-8.75,30.417l-17.5,2.5c-32.917,5.417 -47.917,11.25 -60.417,23.75c-23.333,22.917 -14.583,57.5 16.25,65c16.667,3.75 17.083,5 7.917,23.333c-12.917,25.417 -79.167,137.084 -86.25,145.417c-3.334,3.75 -11.25,8.333 -17.917,9.583c-32.5,7.084 -50,40 -39.583,74.167c5.416,17.917 5,21.667 -6.25,58.75c-11.667,39.167 -24.584,113.333 -24.584,140.417c0,24.166 -7.916,7.5 -12.916,-27.5c-10.417,-75 12.916,-245 41.25,-300.417c7.083,-13.75 9.166,-15 27.083,-15.833c22.083,-0.834 33.75,-9.584 40.833,-30.417c4.167,-13.75 3.75,-27.917 -2.916,-68.333c-2.084,-11.667 0.833,-24.167 12.083,-52.084c19.583,-49.583 27.917,-92.083 27.917,-145c-0,-37.083 1.25,-44.583 7.5,-49.166c25,-18.334 32.5,-48.334 19.583,-76.25c-10.833,-22.084 -32.917,-28.334 -58.333,-16.25c-13.75,6.25 -14.167,6.25 -42.5,-10.834c-37.917,-22.916 -66.667,-30.833 -98.75,-27.5c-52.917,5.417 -107.084,45.417 -119.584,88.75c-7.083,25 -7.083,73.334 0,82.084c7.917,9.583 18.334,8.333 30,-4.167c5.417,-5.833 15,-13.333 21.667,-16.667c17.083,-9.166 32.5,0.417 44.167,27.5c10.416,23.75 9.166,40 -4.167,59.167c-30.417,42.917 -99.167,36.25 -146.25,-13.75l-19.583,-21.25l11.25,-17.083c7.916,-11.667 11.25,-22.5 11.25,-34.584c-0,-22.083 -10.417,-34.166 -32.5,-37.916l-16.25,-2.5l1.666,-31.667c2.084,-37.5 16.25,-72.5 43.75,-108.333c43.75,-56.25 114.167,-97.5 163.75,-95c18.334,0.833 18.75,1.25 20,15.416Z" style="fill-rule:nonzero;"/><path d="M1104.17,3695c-12.917,10.417 -8.75,27.5 8.75,36.25c19.583,10.417 41.25,-0.833 41.25,-20.833c-0,-20.417 -32.084,-30 -50,-15.417Z" style="fill-rule:nonzero;"/><path d="M819.583,3711.67c-21.25,22.5 -22.5,52.5 -2.083,65c10,6.25 34.583,-6.667 45,-23.334c9.167,-15.416 10.833,-40.833 3.333,-48.333c-9.583,-9.583 -34.166,-5.833 -46.25,6.667Z" style="fill-rule:nonzero;"/><path d="M882.917,3939.17c-8.334,5.833 -16.25,14.583 -17.5,19.166c-2.5,10.417 9.583,25 21.25,25c12.5,0 33.75,-15.833 36.666,-27.5c6.25,-24.583 -15.833,-33.75 -40.416,-16.666Z" style="fill-rule:nonzero;"/><path d="M2108.33,3593.75c0,10.417 86.25,133.75 98.75,140.833c8.75,5.417 17.917,0.417 17.917,-10c0,-19.166 -98.75,-141.25 -114.167,-141.25c-1.25,0 -2.5,4.584 -2.5,10.417Z" style="fill-rule:nonzero;"/><path d="M1947.08,3684.17c-2.5,2.916 -6.666,15.833 -9.166,28.333c-6.667,32.917 -21.25,166.667 -21.25,193.75c-0,20 0.833,22.917 8.333,22.917c4.167,-0 9.583,-3.334 12.083,-7.5c5.834,-11.25 23.334,-233.75 18.334,-238.75c-2.917,-2.917 -5.417,-2.5 -8.334,1.25Z" style="fill-rule:nonzero;"/><path d="M2874.17,3754.17c-72.084,8.75 -119.584,32.5 -172.5,85.416c-32.5,32.5 -41.25,44.167 -57.5,77.5c-31.667,65.417 -34.584,131.667 -8.334,185.834c28.75,60 97.917,77.916 141.25,37.083c12.084,-11.667 14.584,-16.667 14.584,-31.667c-0,-14.583 -2.5,-20 -14.584,-32.083c-13.333,-13.333 -16.25,-14.583 -33.333,-12.917c-10,1.25 -19.167,1.25 -20.417,0.417c-0.833,-1.25 1.25,-10.417 4.584,-20.417c13.75,-40 70.833,-86.666 135,-110.416c29.166,-10.834 42.916,-13.334 82.916,-15c29.584,-1.667 57.084,-0.417 71.667,2.5c54.167,11.25 97.5,44.583 119.167,91.25c10,21.25 11.25,28.333 10.833,69.583c0,36.667 -2.083,51.25 -9.583,72.917c-15,43.333 -37.917,87.083 -63.75,120.833c-46.25,61.667 -75,78.75 -203.334,121.25c-142.5,47.083 -199.166,77.917 -263.75,142.917c-32.916,33.333 -71.666,85.833 -75.833,103.75c-3.75,14.166 3.75,23.75 17.5,23.75c5.833,-0 33.75,-12.917 62.083,-29.167c73.334,-41.667 94.584,-49.167 290,-105.833c134.167,-38.75 222.5,-76.667 278.75,-119.167c87.5,-65.833 129.584,-169.583 116.667,-286.667c-20,-176.666 -108.333,-305 -242.083,-351.666c-52.917,-18.334 -127.084,-26.667 -180,-20Zm123.75,35.416c101.666,19.584 177.5,80.834 227.5,182.917c30.416,62.5 42.083,112.5 42.083,179.583c0,96.667 -21.25,151.667 -82.083,212.917c-33.334,33.333 -42.5,40 -85.417,61.25c-60.417,29.583 -152.917,62.083 -262.5,92.5c-114.583,31.667 -153.75,45 -201.25,68.333c-24.583,12.084 -40.417,17.917 -40.417,14.584c0,-9.167 35.834,-49.167 65,-72.917c57.5,-46.667 97.084,-65.417 211.25,-101.25c40.834,-12.917 85.417,-27.917 99.167,-33.75c55.833,-22.5 118.333,-76.25 150.833,-129.583c28.334,-47.084 54.584,-125.417 60,-178.75c8.334,-88.334 -54.166,-170.834 -145.416,-191.25c-85.417,-19.584 -166.667,-7.084 -240.834,36.666c-60,35.417 -92.5,73.334 -106.25,125c-11.25,41.25 -1.666,52.917 29.167,35.834c21.25,-11.667 35.833,-9.167 43.333,6.666c6.25,14.167 -2.083,25 -25,30.834c-59.583,16.25 -104.583,-60 -85,-143.75c25.417,-109.167 113.334,-189.167 222.084,-202.084c34.166,-3.75 84.583,-1.25 123.75,6.25Z" style="fill-rule:nonzero;"/><path d="M3554.17,4350.42c-56.25,10.833 -106.667,48.333 -133.75,99.583c-8.75,16.25 -10,24.583 -10,62.917c-0,42.083 0.416,44.583 12.083,59.583c31.667,41.667 78.75,45.833 117.5,10c26.25,-24.167 31.667,-51.25 15.417,-76.667c-7.917,-12.5 -27.5,-20 -43.334,-16.666c-12.5,2.5 -12.916,2.083 -10,-9.167c8.334,-34.167 46.667,-63.333 83.334,-63.333c23.333,-0 56.25,16.666 74.166,37.5c22.917,27.083 33.334,57.916 31.25,94.166c-2.5,38.75 -14.583,63.334 -46.666,95.834c-31.667,31.666 -66.667,48.75 -147.5,72.083c-32.5,9.167 -70,22.5 -83.75,29.167c-58.75,30 -124.167,97.916 -165,172.083c-17.084,31.25 -17.917,46.25 -2.5,48.333c7.5,1.25 19.166,-8.333 58.333,-48.333c70.417,-72.083 99.583,-87.5 222.5,-117.083c143.75,-34.584 190,-62.5 230,-138.334c25,-47.5 33.75,-109.583 22.5,-162.916c-20.833,-99.584 -124.583,-168.334 -224.583,-148.75Zm-36.667,53.75c-9.583,6.666 -20.417,18.333 -24.167,25.833c-11.25,22.083 -39.166,107.917 -39.166,122.083l-0.417,12.5l-8.333,-10.416c-7.917,-9.167 -8.75,-14.584 -7.084,-43.75c2.917,-50.417 27.084,-88.334 71.25,-110c24.584,-12.5 27.917,-10.834 7.917,3.75Zm218.333,62.916c15,30 20.834,72.5 14.584,107.917c-7.084,39.167 -11.667,40 -8.334,1.25c3.75,-38.333 -0.416,-66.25 -15,-101.667c-6.25,-14.583 -12.083,-29.583 -13.75,-32.916c-5.833,-15 12.917,6.666 22.5,25.416Z" style="fill-rule:nonzero;"/><path d="M1712.5,4366.67c-74.167,10 -104.583,22.083 -194.583,75.833c-109.584,65.417 -147.5,114.583 -160,207.5c-12.084,88.75 26.25,173.333 87.916,193.75c30.834,10 74.167,7.083 102.5,-7.5c37.5,-18.75 60,-52.5 60,-88.333c0,-24.584 -7.916,-43.334 -24.583,-57.5c-16.25,-13.334 -26.667,-14.167 -47.917,-2.5c-8.75,4.583 -16.25,7.916 -17.083,7.083c-5,-6.25 -10.417,-21.25 -10.417,-30.417c0,-33.333 47.917,-75.416 105.834,-92.5c28.75,-8.75 87.083,-8.333 110.416,0.417c26.667,10 55.834,32.917 72.5,57.5c23.75,34.583 29.167,53.75 29.167,101.25c-0.417,49.583 -9.167,86.25 -37.083,153.75c-49.584,120 -62.917,178.333 -58.334,257.083c4.584,80.417 24.167,136.25 62.084,177.5c39.166,42.084 87.5,58.334 112.916,38.334c16.25,-12.5 18.75,-21.667 23.334,-87.917c5,-65 10.833,-86.667 81.666,-306.667c70,-216.25 73.334,-230.416 72.917,-298.75c0,-110.416 -53.75,-214.583 -135.833,-264.166c-40,-24.584 -82.5,-34.584 -150,-36.25c-32.084,-0.417 -70.417,0.416 -85.417,2.5Zm140.833,23.333c85.417,17.083 145.417,67.5 180.417,151.25c35.833,85.417 32.5,175 -10.833,305.833c-10,30.417 -32.084,96.25 -49.167,147.084c-50.833,148.333 -65.417,206.25 -69.167,270.833c-2.916,60 -9.166,76.667 -27.083,76.667c-19.167,-0 -20.417,-6.25 -17.917,-100.834c2.5,-120.833 8.334,-142.083 77.5,-291.666c40.834,-89.167 56.667,-135 63.334,-184.167c8.333,-64.167 -7.084,-141.667 -40.834,-202.5c-18.333,-32.917 -76.666,-92.083 -110.833,-112.083c-53.75,-31.667 -119.167,-45.417 -189.583,-40.417c-45.834,3.333 -48.334,-1.667 -6.25,-11.667c70.416,-16.666 145,-19.583 200.416,-8.333Z" style="fill-rule:nonzero;"/><path d="M2470.83,4699.58c-20.416,6.25 -45.833,21.667 -60,35.834c-56.666,56.666 31.667,126.25 93.75,74.166c15.834,-13.75 28.334,-39.583 28.75,-59.583c0,-19.583 -13.75,-40.833 -31.25,-48.333c-15.833,-6.25 -16.25,-6.667 -31.25,-2.084Zm26.667,30c29.167,22.917 -6.667,79.584 -46.25,73.334c-8.333,-1.667 -19.167,-6.667 -24.583,-11.667c-18.334,-17.083 -11.25,-35.417 22.083,-57.5c22.5,-15 33.75,-16.25 48.75,-4.167Z" style="fill-rule:nonzero;"/><path d="M1018.75,4728.75c-14.167,6.25 -30.417,26.25 -41.667,51.667c-20,43.333 -19.166,76.25 2.5,100.833c26.25,29.583 59.584,28.333 94.167,-3.333c26.667,-24.584 36.25,-45 36.667,-77.917c-0,-30 -8.334,-49.167 -27.917,-63.75c-12.5,-9.167 -50,-13.75 -63.75,-7.5Zm47.917,40.417c11.25,9.583 12.916,13.333 11.666,28.333c-1.25,16.667 -1.666,17.083 -24.166,24.583c-27.5,9.167 -32.917,13.334 -40.417,30.834c-2.917,7.5 -7.5,13.75 -9.583,13.75c-5.417,-0 -16.667,-22.917 -16.667,-34.167c0,-20.833 4.583,-28.333 16.667,-28.333c12.916,-0 31.666,-18.334 35.833,-35.834c3.333,-12.916 10.417,-12.5 26.667,0.834Z" style="fill-rule:nonzero;"/><path d="M2521.67,5005.83c-125,33.334 -197.5,110.417 -203.75,217.5c-3.75,58.334 7.916,96.667 39.583,131.667c27.5,30.417 55.417,35.833 92.083,17.5c48.334,-24.167 87.917,-73.75 102.084,-128.75c8.75,-33.75 22.083,-45.833 47.083,-42.083c33.333,4.583 55,19.583 70.417,48.333c12.5,22.917 10,102.5 -4.167,151.25c-22.083,74.583 -45.833,115 -118.75,202.917c-83.75,100.833 -152.917,214.583 -182.083,300.416c-10,29.584 -12.084,41.667 -12.084,78.75c0,37.084 1.667,49.584 11.667,80c21.667,65 44.583,72.084 61.25,17.917c22.5,-73.75 134.583,-244.583 235.833,-360c15.417,-17.5 62.084,-67.5 104.167,-110.833c89.583,-92.5 115.417,-124.167 136.25,-165.834c21.667,-43.75 29.167,-76.25 29.167,-130c0.416,-55 -7.5,-90.833 -30.417,-137.5c-27.5,-57.083 -76.667,-108.75 -137.917,-145c-44.166,-25.833 -72.083,-32.916 -141.25,-34.583c-54.166,-1.667 -64.583,-0.833 -99.166,8.333Zm171.25,44.167c45,11.25 69.166,25.417 102.5,60.417c58.75,62.083 80.833,126.25 70.833,206.666c-8.333,68.75 -36.25,128.334 -82.917,178.75l-20.833,22.917l6.667,-16.667c3.75,-9.166 12.916,-31.666 20.416,-50c35.834,-87.083 49.167,-191.25 31.667,-247.5c-37.917,-122.083 -187.917,-178.75 -311.667,-118.333c-29.583,14.583 -74.166,52.083 -91.25,77.5c-25.416,36.667 -22.5,60.833 8.334,69.167c12.083,2.916 12.916,4.166 12.083,22.916c-0.417,10.834 -3.75,24.167 -7.5,30c-14.167,21.667 -51.25,27.5 -60.417,10c-6.666,-12.5 -4.583,-63.333 3.75,-96.666c12.917,-50 42.917,-100.834 71.667,-122.5c17.083,-12.5 70,-29.584 107.917,-35c37.083,-5 99.583,-1.25 138.75,8.333Zm-70,644.583c-4.167,6.25 -29.584,39.584 -56.25,74.167c-52.084,67.5 -84.167,111.25 -124.167,171.667c-14.167,20.833 -27.5,39.166 -30,40.833c-6.25,3.75 14.583,-50 31.667,-80.833c39.583,-71.667 108.333,-160 154.583,-197.917c15,-12.917 28.75,-22.5 29.583,-21.25c1.25,0.833 -1.25,7.083 -5.416,13.333Z" style="fill-rule:nonzero;"/><path d="M3184.17,5017.92c-16.25,17.5 -8.75,48.75 11.666,48.75c18.75,-0 37.084,-40.417 24.167,-53.334c-7.917,-7.916 -26.25,-5.833 -35.833,4.584Z" style="fill-rule:nonzero;"/><path d="M1862.5,5400.83c-24.583,12.5 -34.167,30 -36.667,66.667c-2.916,42.083 3.75,52.917 46.25,74.167c37.084,18.75 62.5,21.666 89.584,10.416c65,-27.5 69.583,-115.416 7.5,-145.833c-33.75,-16.25 -80.834,-18.75 -106.667,-5.417Zm95,24.584c31.25,15.416 40.833,40.833 27.5,74.583c-8.75,21.667 -27.5,33.333 -54.167,33.333l-20,0l12.917,-13.75c7.083,-7.083 15,-17.5 17.5,-22.5c7.917,-15.833 5.417,-42.916 -5.833,-62.5c-9.584,-15.833 -10,-17.916 -3.75,-17.916c4.166,-0 15.833,4.166 25.833,8.75Z" style="fill-rule:nonzero;"/><path d="M2380,6161.25c-26.667,9.583 -57.083,41.25 -65,68.333c-8.75,28.334 -5,46.667 12.083,63.75c24.167,24.167 69.584,27.917 106.667,8.334c21.25,-10.834 49.167,-42.084 52.083,-58.334c6.25,-34.166 -10.416,-67.083 -41.666,-81.25c-20.417,-9.166 -40,-9.583 -64.167,-0.833Zm53.333,50.417c0,6.25 -18.333,21.25 -34.583,27.916c-13.333,5.417 -15.417,5.417 -15.417,0.417c0,-3.333 5,-11.667 10.834,-18.75c7.916,-10 14.166,-12.917 25,-12.917c7.916,0 14.166,1.667 14.166,3.334Z" style="fill-rule:nonzero;"/></g></g></svg>