<svg viewBox="0 0 350 100" version="1.1" style="fill-rule:evenodd;clip-rule:evenodd;stroke-linejoin:round;stroke-miterlimit:1.41421;">
    <g transform="matrix(1,0,0,1,-1200,-400)">
        <g transform="matrix(3.39806,0,0,1,1200,400)">
            <rect x="0" y="0" width="103" height="100" style="fill:none;"/>
            <clipPath id="_clip3">
                <rect x="0" y="0" width="103" height="100"/>
            </clipPath>
            <g clip-path="url(#_clip3)">
                <g transform="matrix(0.515,0,0,1.0061,-3.68975e-15,-0.609727)">
                    <rect x="0" y="0.606" width="200" height="99.394" style="fill:rgb(255,200,87);"/>
                </g>
                <g transform="matrix(0.571429,0,0,1,21.7771,14.5)">
                    <g transform="matrix(0.515,0,0,1,25.75,-15)">
                        <path d="M19.616,36.193C20.154,35.82 20.816,35.388 21.624,34.98C22.429,34.569 23.364,34.166 24.408,33.793C25.455,33.428 26.615,33.108 27.848,32.83C28.155,32.77 28.467,32.709 28.782,32.647L29.03,32.606L29.154,32.585C29.258,32.564 29.362,32.532 29.461,32.486C29.861,32.302 30.143,31.918 30.214,31.503L30.265,30.861L30.292,30.377C30.295,30.052 30.349,29.728 30.408,29.403C30.803,26.788 32.174,24.194 34.045,22.003C34.962,20.889 36.003,19.862 37.1,18.934C37.499,18.602 37.89,18.289 38.288,17.981C38,19.233 37.934,20.479 37.924,21.644C37.922,23 38.127,24.259 38.343,25.402C38.836,27.68 39.565,29.469 40.15,30.67C40.738,31.873 41.167,32.504 41.167,32.504C41.167,32.504 40.887,31.794 40.519,30.528C40.335,29.895 40.137,29.121 39.947,28.23C39.745,27.342 39.61,26.324 39.473,25.226C39.388,24.122 39.326,22.927 39.411,21.682C39.517,20.442 39.693,19.139 40.116,17.874L40.185,17.634L40.22,17.513C40.272,17.314 40.246,17.443 40.279,17.264C40.357,16.692 40.141,16.256 39.777,15.938C39.424,15.632 38.848,15.507 38.374,15.694C38.25,15.737 38.163,15.789 38.048,15.86L37.934,15.936L37.707,16.088C37.09,16.497 36.452,16.966 35.867,17.451C34.676,18.428 33.536,19.516 32.511,20.722C31.503,21.94 30.617,23.278 29.934,24.704C29.228,26.121 28.834,27.669 28.661,29.171C28.613,29.547 28.57,29.92 28.581,30.294L28.576,30.849L28.578,31.085L28.462,31.114C28.121,31.202 27.793,31.294 27.474,31.388C26.192,31.768 25.016,32.232 23.967,32.736C22.914,33.231 21.997,33.787 21.225,34.33C20.442,34.858 19.838,35.426 19.356,35.894C18.884,36.376 18.549,36.784 18.345,37.079C18.135,37.367 18.023,37.521 18.023,37.521C18.023,37.521 18.163,37.393 18.425,37.152C18.678,36.899 19.095,36.585 19.616,36.193ZM38.522,17.003C38.522,17 38.522,16.998 38.523,16.994C38.525,16.99 38.524,16.991 38.529,16.975L38.522,17.003ZM38.524,16.984C38.525,16.976 38.524,16.971 38.525,16.963C38.54,16.912 38.53,16.954 38.524,16.984Z" style="fill:rgb(112,65,85);fill-rule:nonzero;"/>
                    </g>
                    <g transform="matrix(0.515,0,0,1,25.75,-15)">
                        <path d="M12.625,49.181C13.095,48.181 13.504,47.166 14.038,46.25C14.275,45.776 14.55,45.334 14.815,44.897C15.078,44.459 15.325,44.022 15.612,43.627C16.153,42.814 16.706,42.071 17.223,41.385C17.767,40.723 18.263,40.106 18.734,39.585C19.208,39.068 19.622,38.61 19.984,38.255C20.697,37.531 21.144,37.146 21.144,37.146C21.144,37.146 21.013,37.213 20.768,37.339C20.528,37.474 20.163,37.658 19.736,37.947C19.299,38.224 18.782,38.582 18.215,39.028C17.642,39.469 17.024,40.002 16.376,40.616C15.743,41.244 15.059,41.934 14.419,42.737C14.077,43.122 13.772,43.553 13.449,43.987C13.115,44.414 12.81,44.875 12.523,45.359C11.911,46.304 11.367,47.337 10.856,48.408C10.405,49.504 9.937,50.617 9.612,51.78C9.429,52.355 9.276,52.938 9.173,53.53C9.058,54.119 8.925,54.702 8.828,55.286C8.756,55.874 8.696,56.458 8.646,57.036C8.621,57.314 8.596,57.59 8.571,57.864C8.555,58.152 8.538,58.439 8.522,58.723C8.434,60.958 8.579,63.029 8.821,64.788C9.064,66.546 9.408,67.986 9.71,68.972C9.84,69.469 10.001,69.846 10.084,70.108C10.175,70.367 10.224,70.506 10.224,70.506C10.224,70.506 10.18,69.923 10.102,68.902C10.022,67.887 9.972,66.437 9.967,64.712C9.986,62.986 10.058,60.974 10.279,58.852C10.31,58.592 10.341,58.33 10.372,58.066C10.414,57.79 10.457,57.512 10.499,57.232C10.587,56.695 10.666,56.151 10.735,55.601C10.837,55.057 10.974,54.516 11.091,53.969C11.196,53.418 11.353,52.88 11.531,52.347C11.81,51.257 12.227,50.213 12.625,49.181Z" style="fill:rgb(112,65,85);fill-rule:nonzero;"/>
                    </g>
                    <g transform="matrix(0.515,0,0,1,25.75,-15)">
                        <path d="M22.06,74.417C21.374,73.719 20.647,72.856 19.968,71.859C19.624,71.364 19.308,70.827 18.993,70.278C18.697,69.744 18.383,69.155 18.113,68.566C17.558,67.386 17.045,66.176 16.609,65.017C16.173,63.858 15.798,62.755 15.484,61.797C14.87,59.845 14.461,58.544 14.461,58.544C14.461,58.544 14.403,58.888 14.355,59.493C14.307,60.103 14.282,60.972 14.362,62.014C14.43,63.056 14.611,64.268 14.933,65.539C15.246,66.812 15.705,68.146 16.308,69.422C16.616,70.062 16.942,70.672 17.336,71.283C17.704,71.884 18.149,72.423 18.579,72.938C19.453,73.959 20.436,74.772 21.357,75.323C22.27,75.891 23.121,76.189 23.717,76.337C24.01,76.426 24.257,76.446 24.416,76.475C24.577,76.5 24.663,76.513 24.663,76.513C24.663,76.513 24.364,76.326 23.884,75.976C23.399,75.633 22.75,75.109 22.06,74.417Z" style="fill:rgb(112,65,85);fill-rule:nonzero;"/>
                    </g>
                    <g transform="matrix(0.515,0,0,1,25.75,-15)">
                        <path d="M42.487,25.518C42.844,25.191 43.245,24.857 43.678,24.525C44.108,24.19 44.589,23.876 45.089,23.566C45.583,23.247 46.132,22.981 46.687,22.718C46.778,22.678 46.868,22.635 46.959,22.593C46.726,22.988 46.507,23.386 46.301,23.779C45.71,24.95 45.3,26.129 45.117,27.179C44.913,28.224 44.947,29.128 45.053,29.731C45.089,30.034 45.175,30.265 45.221,30.42C45.269,30.574 45.294,30.655 45.294,30.655C45.294,30.655 45.306,30.57 45.329,30.41C45.348,30.251 45.386,30.023 45.451,29.739C45.57,29.17 45.816,28.395 46.215,27.518C46.616,26.641 47.17,25.666 47.83,24.655C48.154,24.148 48.534,23.645 48.898,23.133L49.184,22.75L49.335,22.551C49.343,22.544 49.423,22.428 49.478,22.328C49.531,22.222 49.58,22.11 49.608,21.99C49.837,21.006 49.116,20.019 47.976,20.093C47.764,20.121 47.752,20.137 47.715,20.144L47.604,20.179L47.573,20.192L47.511,20.217L47.263,20.318L46.768,20.521C46.433,20.643 46.128,20.833 45.813,20.989C45.188,21.315 44.614,21.714 44.085,22.125C43.545,22.522 43.082,22.981 42.671,23.432C42.248,23.872 41.906,24.34 41.615,24.782C41.026,25.661 40.688,26.477 40.501,27.054C40.316,27.635 40.28,27.981 40.28,27.981C40.28,27.981 41.061,26.83 42.487,25.518ZM48.25,22.068L48.26,22.064C48.282,22.06 48.287,22.06 48.25,22.068Z" style="fill:rgb(112,65,85);fill-rule:nonzero;"/>
                    </g>
                    <g transform="matrix(0.515,0,0,1,25.75,-15)">
                        <path d="M42.11,30.966L45.988,32.431C47.266,32.931 48.514,33.482 49.703,34.111C50.002,34.269 50.292,34.431 50.573,34.594C50.864,34.768 51.18,34.933 51.422,35.094C51.941,35.42 52.371,35.805 52.65,36.204C52.922,36.608 53.031,37.015 53.029,37.483C53.015,37.712 53,37.992 52.945,38.203C52.936,38.289 52.873,38.502 52.835,38.657C52.809,38.733 52.739,38.769 52.712,38.832L52.27,39.863L53.172,40.516C54.446,41.437 55.787,42.077 57.033,42.7C57.656,43.013 58.27,43.295 58.84,43.607L59.257,43.84L59.654,44.077L60.39,44.548L60.403,44.559L60.814,44.917L61.445,44.934L63.746,44.997L63.857,45L63.867,45.001L63.913,45.006L64.004,45.015L64.354,45.054C64.804,45.112 65.21,45.177 65.528,45.277C65.688,45.325 65.811,45.383 65.908,45.434C65.995,45.476 66.064,45.554 66.049,45.535C66.035,45.524 66.015,45.487 66.021,45.486L66.091,45.592L66.093,45.598C66.099,45.622 66.115,45.693 66.114,45.797C66.115,46.02 66.055,46.284 65.956,46.473L65.876,46.608C65.819,46.681 65.888,46.603 65.767,46.744C65.671,46.85 65.483,47.053 65.342,47.191C65.038,47.495 64.719,47.765 64.422,47.972C64.28,48.075 64.123,48.17 64.018,48.224C63.993,48.235 64.01,48.234 63.951,48.258L63.792,48.324C63.513,48.433 63.248,48.585 63.012,48.771C62.54,49.142 62.186,49.644 61.992,50.198C61.893,50.501 61.838,50.708 61.817,51.117L61.815,51.41C61.811,51.543 61.747,51.657 61.75,51.646C61.815,51.609 61.688,51.713 61.338,51.757L61.054,51.789L60.899,51.801L60.856,51.802L60.76,51.805L59.993,51.828L59.226,51.852C59.093,51.867 58.773,51.856 58.556,51.86C57.586,51.855 56.594,51.803 55.583,51.739C53.563,51.609 51.455,51.432 49.285,51.578C48.206,51.643 47.077,51.789 46.027,52.031C44.951,52.275 43.905,52.647 42.905,53.109C41.909,53.579 40.954,54.142 40.091,54.822C39.229,55.511 38.478,56.299 37.814,57.181C37.191,58.013 36.608,59.006 36.287,60.024C35.936,61.045 35.863,62.157 36.024,63.182L36.224,63.176C36.173,62.165 36.38,61.157 36.776,60.229C37.164,59.292 37.742,58.458 38.418,57.694C39.752,56.169 41.49,55.02 43.371,54.271C45.256,53.52 47.292,53.178 49.319,53.15C51.354,53.112 53.387,53.338 55.425,53.525C56.445,53.619 57.468,53.703 58.496,53.74C59.01,53.765 59.535,53.751 60.04,53.74C60.547,53.725 61.065,53.741 61.592,53.671C62.11,53.604 62.672,53.456 63.094,53.056C63.509,52.664 63.726,52.115 63.774,51.568C63.791,51.264 63.766,51.068 63.852,50.86C63.926,50.653 64.059,50.469 64.232,50.335C64.393,50.195 64.62,50.15 64.882,50.018C65.126,49.899 65.351,49.761 65.568,49.61C66.001,49.307 66.39,48.955 66.755,48.585C67.107,48.216 67.497,47.831 67.728,47.327C67.962,46.836 68.075,46.295 68.064,45.753C68.067,45.224 67.863,44.618 67.479,44.234C66.665,43.419 65.538,43.281 64.53,43.172C63.498,43.086 62.515,43.147 61.506,43.132L61.478,43.109L61.468,43.101L61.458,43.095C60.866,42.733 60.256,42.364 59.623,42.053C58.993,41.737 58.352,41.453 57.712,41.17C56.47,40.621 55.225,40.078 54.099,39.345C54.239,39.05 54.321,38.752 54.358,38.445C54.419,38.09 54.424,37.736 54.407,37.378C54.355,36.663 54.08,35.961 53.622,35.409C53.163,34.86 52.58,34.437 51.966,34.105C51.348,33.776 50.724,33.485 50.082,33.215C47.525,32.133 44.837,31.432 42.157,30.769L42.11,30.966Z" style="fill:rgb(112,65,85);fill-rule:nonzero;"/>
                    </g>
                    <g transform="matrix(0.515,0,0,1,25.75,-15)">
                        <path d="M46.688,38.396C46.739,38.586 46.803,38.789 46.913,39.003C47.021,39.211 47.173,39.432 47.486,39.671L47.621,39.767L47.726,39.837L47.73,39.84L47.815,39.877L47.828,39.882C47.969,39.943 48.114,39.991 48.263,40.024C48.56,40.092 48.857,40.088 49.135,40.059C49.692,39.992 50.184,39.807 50.629,39.573L50.963,39.385C50.981,39.384 51.347,39.157 51.498,38.893C51.846,38.37 51.845,37.657 51.44,37.124C51.116,36.763 51.096,36.826 50.982,36.727L50.683,36.523C50.49,36.38 50.27,36.274 50.059,36.16C49.852,36.04 49.634,35.943 49.412,35.86C49.195,35.768 48.978,35.686 48.754,35.63C48.317,35.496 47.877,35.419 47.461,35.388C47.046,35.346 46.65,35.368 46.293,35.41C45.577,35.486 45.013,35.696 44.646,35.877C44.278,36.062 44.1,36.218 44.1,36.218C44.1,36.218 45.042,36.237 46.227,36.551C46.364,36.587 46.513,36.646 46.657,36.692C46.595,37.093 46.514,37.66 46.688,38.396ZM48.126,37.282C48.452,37.443 48.778,37.628 49.097,37.839C49.198,37.903 49.297,37.974 49.396,38.042C49.193,38.156 48.995,38.256 48.821,38.312C48.547,38.378 48.436,38.444 48.196,38.343C48.205,38.361 48.099,38.319 48.008,38.235C47.914,38.16 47.826,38.056 47.744,37.947C47.494,37.584 47.307,37.187 47.166,36.86C47.483,36.975 47.805,37.116 48.126,37.282Z" style="fill:rgb(112,65,85);fill-rule:nonzero;"/>
                    </g>
                    <g transform="matrix(0.515,0,0,1,25.75,-15)">
                        <path d="M87.152,73.534C85.755,73.246 84.05,72.938 82.081,72.65C80.112,72.364 77.877,72.091 75.421,71.977C74.193,71.92 72.915,71.876 71.574,71.889C70.245,71.902 68.896,71.952 67.451,72.102C64.602,72.419 61.65,73.178 58.763,74.292C55.862,75.382 52.986,76.739 50.109,78.123C48.657,78.814 47.239,79.491 45.751,80.138C44.302,80.758 42.852,81.302 41.317,81.645C38.278,82.398 35.096,82.602 32.008,82.339C28.928,82.066 25.892,81.383 23.186,80.269C22.517,80.025 21.822,79.665 21.147,79.357L20.241,78.859C19.938,78.682 19.651,78.483 19.357,78.298C18.211,77.514 17.203,76.581 16.355,75.557C14.659,73.501 13.575,71.129 12.955,68.841C12.31,66.554 12.137,64.343 12.001,62.376C11.881,60.412 11.897,58.692 11.973,57.278C12.061,55.866 12.176,54.755 12.293,54.004C12.404,53.251 12.489,52.852 12.489,52.852C12.489,52.852 12.368,53.24 12.187,53.982C12.009,54.725 11.76,55.822 11.587,57.242C11.411,58.661 11.276,60.397 11.26,62.393C11.257,64.375 11.269,66.67 11.845,69.115C12.375,71.551 13.397,74.163 15.193,76.483C16.084,77.641 17.163,78.717 18.407,79.634C18.725,79.852 19.038,80.084 19.367,80.292C19.711,80.491 20.058,80.692 20.406,80.893C21.086,81.22 21.726,81.574 22.482,81.876C25.39,83.132 28.547,83.954 31.837,84.258C35.119,84.561 38.511,84.371 41.79,83.585C43.429,83.212 45.032,82.596 46.551,81.931C48.028,81.276 49.516,80.554 50.947,79.859C53.834,78.469 56.611,77.031 59.401,75.93C62.179,74.807 64.949,73.979 67.641,73.58C68.969,73.389 70.336,73.298 71.633,73.224C72.919,73.148 74.18,73.127 75.39,73.123C80.229,73.152 84.275,73.539 87.088,73.916C89.904,74.286 91.504,74.59 91.504,74.59C91.504,74.59 89.946,74.115 87.152,73.534Z" style="fill:rgb(112,65,85);fill-rule:nonzero;"/>
                    </g>
                </g>
                <g transform="matrix(0.294286,0,0,1,-9.74536,-23.4837)">
                    <path d="M67.472,67.696L71.552,67.696L76.136,80.368L80.744,67.696L84.656,67.696L77.984,84.496L74.072,84.496L67.472,67.696Z" style="fill:rgb(112,65,85);fill-rule:nonzero;"/>
                    <rect x="88.904" y="67.696" width="3.792" height="16.8" style="fill:rgb(112,65,85);fill-rule:nonzero;"/>
                    <path d="M97.568,67.696L101.984,67.696L105.488,72.832L109.016,67.696L113.504,67.696L107.912,75.736L113.984,84.496L109.448,84.496L105.488,78.904L101.6,84.496L97.16,84.496L103.184,75.904L97.568,67.696Z" style="fill:rgb(112,65,85);fill-rule:nonzero;"/>
                    <path d="M118.52,67.696L131.312,67.696L131.312,70.84L122.312,70.84L122.312,74.488L130.4,74.488L130.4,77.632L122.312,77.632L122.312,81.352L131.576,81.352L131.576,84.496L118.52,84.496L118.52,67.696Z" style="fill:rgb(112,65,85);fill-rule:nonzero;"/>
                    <path d="M148.568,67.696L152.168,67.696L152.168,84.496L148.712,84.496L140.576,73.696L140.576,84.496L136.952,84.496L136.952,67.696L140.408,67.696L148.568,78.544L148.568,67.696Z" style="fill:rgb(112,65,85);fill-rule:nonzero;"/>
                </g>
                <g transform="matrix(0.294286,0,0,1,40.3783,-23.6997)">
                    <path d="M69.32,67.696L81.392,67.696L81.368,70.84L73.112,70.84L73.112,74.968L80.696,74.968L80.696,78.136L73.112,78.136L73.112,84.496L69.32,84.496L69.32,67.696Z" style="fill:rgb(112,65,85);fill-rule:nonzero;"/>
                    <rect x="86" y="67.696" width="3.792" height="16.8" style="fill:rgb(112,65,85);fill-rule:nonzero;"/>
                    <path d="M94.256,67.696L108.296,67.696L108.296,70.912L103.16,70.912L103.16,84.496L99.368,84.496L99.368,70.912L94.256,70.912L94.256,67.696Z" style="fill:rgb(112,65,85);fill-rule:nonzero;"/>
                    <path d="M124.352,67.696L127.952,67.696L127.952,84.496L124.496,84.496L116.36,73.696L116.36,84.496L112.736,84.496L112.736,67.696L116.192,67.696L124.352,78.544L124.352,67.696Z" style="fill:rgb(112,65,85);fill-rule:nonzero;"/>
                    <path d="M134.048,67.696L146.84,67.696L146.84,70.84L137.84,70.84L137.84,74.488L145.928,74.488L145.928,77.632L137.84,77.632L137.84,81.352L147.104,81.352L147.104,84.496L134.048,84.496L134.048,67.696Z" style="fill:rgb(112,65,85);fill-rule:nonzero;"/>
                    <path d="M160.796,71.116C159.828,70.804 159,70.648 158.312,70.648C157.656,70.648 157.136,70.768 156.752,71.008C156.368,71.248 156.176,71.6 156.176,72.064C156.176,72.656 156.452,73.108 157.004,73.42C157.556,73.732 158.408,74.056 159.56,74.392C160.712,74.728 161.66,75.064 162.404,75.4C163.148,75.736 163.784,76.24 164.312,76.912C164.84,77.584 165.104,78.472 165.104,79.576C165.104,80.648 164.82,81.572 164.252,82.348C163.684,83.124 162.904,83.712 161.912,84.112C160.92,84.512 159.792,84.712 158.528,84.712C157.168,84.712 155.832,84.472 154.52,83.992C153.208,83.512 152.072,82.856 151.112,82.024L152.624,78.928C153.472,79.696 154.448,80.312 155.552,80.776C156.656,81.24 157.664,81.472 158.576,81.472C159.36,81.472 159.972,81.328 160.412,81.04C160.852,80.752 161.072,80.336 161.072,79.792C161.072,79.36 160.924,79.004 160.628,78.724C160.332,78.444 159.956,78.216 159.5,78.04C159.044,77.864 158.416,77.664 157.616,77.44C156.464,77.12 155.524,76.8 154.796,76.48C154.068,76.16 153.44,75.672 152.912,75.016C152.384,74.36 152.12,73.488 152.12,72.4C152.12,71.392 152.392,70.508 152.936,69.748C153.48,68.988 154.24,68.404 155.216,67.996C156.192,67.588 157.328,67.384 158.624,67.384C159.776,67.384 160.912,67.552 162.032,67.888C163.152,68.224 164.144,68.672 165.008,69.232L163.544,72.376C162.68,71.848 161.764,71.428 160.796,71.116Z" style="fill:rgb(112,65,85);fill-rule:nonzero;"/>
                    <path d="M178.484,71.116C177.516,70.804 176.688,70.648 176,70.648C175.344,70.648 174.824,70.768 174.44,71.008C174.056,71.248 173.864,71.6 173.864,72.064C173.864,72.656 174.14,73.108 174.692,73.42C175.244,73.732 176.096,74.056 177.248,74.392C178.4,74.728 179.348,75.064 180.092,75.4C180.836,75.736 181.472,76.24 182,76.912C182.528,77.584 182.792,78.472 182.792,79.576C182.792,80.648 182.508,81.572 181.94,82.348C181.372,83.124 180.592,83.712 179.6,84.112C178.608,84.512 177.48,84.712 176.216,84.712C174.856,84.712 173.52,84.472 172.208,83.992C170.896,83.512 169.76,82.856 168.8,82.024L170.312,78.928C171.16,79.696 172.136,80.312 173.24,80.776C174.344,81.24 175.352,81.472 176.264,81.472C177.048,81.472 177.66,81.328 178.1,81.04C178.54,80.752 178.76,80.336 178.76,79.792C178.76,79.36 178.612,79.004 178.316,78.724C178.02,78.444 177.644,78.216 177.188,78.04C176.732,77.864 176.104,77.664 175.304,77.44C174.152,77.12 173.212,76.8 172.484,76.48C171.756,76.16 171.128,75.672 170.6,75.016C170.072,74.36 169.808,73.488 169.808,72.4C169.808,71.392 170.08,70.508 170.624,69.748C171.168,68.988 171.928,68.404 172.904,67.996C173.88,67.588 175.016,67.384 176.312,67.384C177.464,67.384 178.6,67.552 179.72,67.888C180.84,68.224 181.832,68.672 182.696,69.232L181.232,72.376C180.368,71.848 179.452,71.428 178.484,71.116Z" style="fill:rgb(112,65,85);fill-rule:nonzero;"/>
                </g>
            </g>
        </g>
    </g>
</svg>
