<?xml version="1.0" standalone="no"?>
<!DOCTYPE svg PUBLIC "-//W3C//DTD SVG 20010904//EN"
 "http://www.w3.org/TR/2001/REC-SVG-20010904/DTD/svg10.dtd">
<svg version="1.0" xmlns="http://www.w3.org/2000/svg"
 width="316.000000pt" height="178.000000pt" viewBox="0 0 316.000000 178.000000"
 preserveAspectRatio="xMidYMid meet">
<metadata>
Created by potrace 1.13, written by Peter Selinger 2001-2015
</metadata>
<g transform="translate(0.000000,178.000000) scale(0.100000,-0.100000)"
fill="#000000" stroke="none">
<path d="M273 1564 c-10 -27 5 -275 21 -344 23 -98 32 -131 50 -180 33 -88
119 -248 169 -316 81 -110 221 -243 332 -315 100 -65 224 -129 250 -129 8 0
16 -4 19 -9 3 -5 16 -11 28 -14 13 -3 41 -10 63 -16 136 -36 196 -44 355 -44
96 0 188 5 220 12 166 37 233 58 330 104 262 125 475 332 601 586 29 58 56
115 60 126 21 57 39 120 58 205 16 71 31 272 23 310 l-8 35 -1282 3 c-1169 2
-1283 1 -1289 -14z m987 -204 c33 -24 60 -72 60 -108 0 -31 -21 -92 -32 -92
-18 0 -6 -33 21 -56 36 -30 71 -103 71 -148 0 -67 -52 -151 -114 -183 -40 -21
-141 -22 -181 -1 -69 37 -105 98 -105 179 0 69 28 132 76 166 l25 19 -22 28
c-30 38 -31 122 -1 164 45 63 138 78 202 32z m-345 -340 l0 -255 -25 0 -25 0
-3 228 c-2 215 -3 227 -21 227 -32 0 -51 11 -51 29 0 28 11 32 70 29 l55 -3 0
-255z m863 233 l-3 -28 -117 -3 -117 -3 -10 -37 c-5 -20 -12 -61 -16 -90 l-7
-53 41 20 c26 14 59 21 96 21 213 0 296 -275 120 -396 -73 -50 -173 -49 -245
4 -42 31 -50 41 -43 59 7 18 38 17 53 -3 19 -22 77 -44 118 -44 43 0 112 39
137 77 13 19 19 47 19 89 0 102 -58 158 -165 158 -47 1 -62 -4 -94 -28 -21
-16 -40 -38 -43 -48 -3 -14 -12 -18 -31 -16 -23 3 -26 7 -25 43 0 22 6 69 12
105 27 160 31 181 37 190 4 6 65 10 146 10 l140 0 -3 -27z m480 0 l-3 -28
-122 -3 -122 -3 -6 -37 c-4 -20 -11 -59 -17 -85 -6 -26 -8 -50 -6 -52 3 -3 23
4 46 15 110 54 242 2 292 -114 27 -64 25 -110 -8 -176 -48 -97 -149 -144 -248
-115 -64 18 -120 64 -111 88 6 17 47 24 47 9 0 -5 17 -18 39 -30 110 -62 241
16 241 143 0 56 -19 96 -62 129 -74 55 -164 43 -227 -31 -38 -45 -41 -46 -59
-30 -20 18 -20 20 7 182 6 33 13 78 16 100 4 22 8 46 11 53 2 9 41 12 149 12
l146 0 -3 -27z"/>
<path d="M1128 1317 c-42 -36 -51 -61 -34 -101 17 -40 42 -56 89 -56 47 0 77
34 77 87 0 34 -6 46 -31 67 -38 32 -66 33 -101 3z"/>
<path d="M1115 1088 c-92 -50 -114 -165 -45 -235 57 -58 142 -62 203 -9 36 31
47 59 47 116 0 47 -3 54 -45 95 -40 41 -49 45 -92 45 -27 0 -57 -6 -68 -12z"/>
</g>
</svg>
