<?xml version='1.0' encoding='utf-8'?>
<svg xmlns="http://www.w3.org/2000/svg" width="1482px" height="1058px" version="1.1" viewBox="-202 514 1482 1058"> <g> <g fill="#fff"> <path d="m-202 512.92c-0.28637 0-0.561 0.1137-0.76348 0.31623-0.20248 0.20252-0.31624 0.47712-0.31624 0.76347l0.00101 1058c0 0.5963 0.48341 1.0797 1.0797 1.0797l1482 1e-3c0.2864 0 0.5609-0.1138 0.7634-0.3163s0.3163-0.477 0.3163-0.7634l-1e-3 -1058c0-0.5963-0.4834-1.0797-1.0797-1.0797l-1482-1e-3z"/> </g> <g> <path d="m20.108 1512.1-0.16832 60.985 595.44 4e-4q0.08194-29.67 0.16385-59.341l-595.44-1.6441z"/> <path d="m898.81 1028.9c0.1218 0.0586-2.4332 3.379-5.6621 7.4576-5.9152 7.5442-22.804 31.634-26.49 37.72-1.0287 1.8003-4.9722 8.4871-8.7444 14.831-3.6151 6.0801-6.6003 10.743-6.8423 10.743-0.01056 0-0.01586-0.0087-0.01586-0.0266 0-1.1146 9.2587-19.46 13.888-27.262 4.2007-7.2012 17.06-24.347 26.662-35.577 3.7397-4.2498 6.974-7.8255 7.1961-7.8863zm-131.51 9.8581 1.0287 7.7156c0.6859 4.2007 1.2003 10.63 1.2003 14.145 0.0857 5.7439-1.1146 12.002-4.2008 21.861-2.5271 8.1707-10.765 31.57-11.051 31.57-0.0051 0-0.00766-0.0074-0.00766-0.0223-0.08569-1.4575 1.9718-9.0874 4.4578-16.546 1.1146-3.5149 3.6007-11.059 5.4011-16.717l3.3434-10.287-0.0857-15.86-0.0857-15.86zm84.383 13.15c0.02795 0 0.04797 0.0172 0.0597 0.0523 0.1715 0.5144-0.0857 1.4575-0.5143 2.0576-0.5144 0.5998-1.7146 3.1719-2.6576 5.7436-1.0288 2.5721-2.229 5.4866-2.6576 6.4297-0.8573 1.8862-1.8861 4.6294-6.8583 18.86-5.3152 15.517-9.4302 33.691-11.145 50.151-0.6658 5.9915-1.246 9.5905-1.5297 9.5905-0.11816 0-0.18486-0.6245-0.18486-1.9605 0.0857-5.2293 1.8003-24.004 2.6576-28.204 3.9435-20.489 7.9728-32.491 18.603-55.209 1.9971-4.3138 3.8452-7.5108 4.2267-7.5108zm-112.33 216.17c0.2533 0.017 0.16694 2.0674-0.1747 4.4579-2.5873 20.364-6.8808 35.203-17.152 59.151l-2.146-0.8023h-0.0072c2.3605-6.0239 5.1571-12.624 8.5893-20.371 2.9146-6.5152 9.43-30.605 9.43-34.977 0-2.6503 0.93786-7.4324 1.4532-7.4584zm132.12-101.18c0.19145 0.0108-0.1751 0.7519-1.2205 2.3358-10.287 15.774-28.462 46.894-32.663 55.895-7.7155 16.546-8.8299 22.375-6.7725 33.52 2.6575 14.317 2.9147 15.946 3.4291 21.175l0.51426 5.3151-3.6862 1.6289c-5.4008 2.4003-6.0868 3.6862-5.2295 9.0014l0.77174 4.4579 9.8586 0.5144c9.2587 0.5144 19.975 2.4004 21.26 3.772 0.1686 0.1684-0.139 0.2439-0.7651 0.2439-1.922 0-6.8454-0.7102-10.208-1.6154-2.1208-0.542-4.5524-0.7925-7.0297-0.7925-6.5353 0-13.388 1.7434-15.688 4.4787-2.6576 3.1721-2.0576 4.5436 2.9147 6.2583 4.458 1.4572 6.4296 3.2576 14.66 13.716l5.4866 6.8582-8.2299-7.8868c-4.9723-4.8008-9.9444-8.6586-12.43-9.7729-2.2291-1.0289-5.058-2.3147-6.1725-2.8291-1.1145-0.5143-2.4004-1.8004-2.9148-3.0005-0.8573-1.7146-0.68591-2.2289 1.1145-3.6006 4.372-3.2578 5.1436-4.4579 4.5437-6.2582-0.42871-1.0288-0.68591-4.2864-0.68591-7.287v-5.5723l4.2007-2.1433 4.115-2.143-0.6001-6.4298c-0.3429-3.6006-1.1145-9.3444-1.8003-12.774-1.8861-9.7732-1.5432-18.432 0.943-26.747 5.1436-17.146 20.146-43.207 37.035-64.554 2.9472-3.6438 4.8897-5.7469 5.241-5.765zm-57.975 156.03c0.90354 0 1.606 0.516 1.9745 1.6443 0.25708 0.943 1.7145 3.1717 3.1719 4.972 2.4861 3.1719 9.3444 13.288 13.545 20.318 1.1538 1.9232 1.5521 2.8354 1.3005 2.8354-0.47746 0-3.2949-3.2845-7.7301-9.1793-6.6869-8.8301-11.831-13.716-14.317-13.716-0.94314 0-2.5718 1.8002-4.2007 4.715-2.6576 4.8008-4.5436 6.4297-7.2011 6.4297-1.9718 0-6.8584 2.3146-11.316 5.3152-1.9717 1.2858-3.772 2.4005-4.1149 2.4005-0.2572 0-2.0575 0.943-3.9435 2.1431-0.69576 0.4437-1.6952 1.025-2.927 1.7089l-3.2779-1.2254h-0.00774c3.6603-2.2496 7.8951-4.8821 11.099-6.8274 5.2294-3.1721 10.116-5.4867 12.431-5.9153 3.6005-0.6002 3.8577-0.8573 6.3438-6.0868 2.759-5.7055 6.7101-9.531 9.1704-9.531zm-342.93 145.06c0.8591 0 3.2516 0.5773 5.4188 1.3798 2.4004 0.8573 8.5728 4.0293 13.717 7.2013 21.089 12.688 37.206 18.774 56.238 21.26 3.9435 0.5142 9.5159 1.4572 12.345 2.1432 3.249 0.7768-11.003 1.1174-30.093 1.1174-27.252 0-64.363-0.694-74.496-1.8031-6.6011-0.7715-16.46-1.8003-21.861-2.3146-5.4009-0.5144-10.202-1.286-10.545-1.6288-0.85724-0.8573-0.08576-3.8579 1.3717-5.401 0.60004-0.6 2.3146-2.7433 3.8578-4.7149 1.8003-2.3149 3.6863-3.7721 5.5723-4.1152 4.6294-1.0286 11.145-4.6291 15.002-8.4013l3.6863-3.6006 9.173-0.5143c5.058-0.2573 9.773-0.5144 10.459-0.6001 0.04373-0.0055 0.0951-0.0082 0.1536-0.0082zm258.5-791.8c-1.7452 0-3.4182 0.1438-4.8984 0.4452-2.1433 0.4285-8.0584 2.8292-13.288 5.4867-5.1438 2.5719-11.316 5.1434-13.717 5.5721-2.3146 0.51466-6.3439 2.4007-9.0014 4.2009-4.9723 3.4292-13.202 7.0298-19.889 8.6587-4.6294 1.1999-6.8584 3.0859-4.6294 3.9431 0.7715 0.2573 1.3716 0.8574 1.3716 1.2007 0 0.85718-9.2587 5.3149-15.945 7.7152-6.4297 2.229-9.0016 4.458-13.545 11.316-3.7722 5.7437-7.8871 9.0015-14.745 11.659-3.3434 1.3716-4.1151 2.0575-3.9436 3.5148 0.0858 1.0286 0.2572 2.6572 0.4287 3.6863 0.0858 1.2859-0.6002 2.3147-2.5718 3.4292-1.2955 0.79404-1.9799 1.201-2.5496 1.201-0.599 0-1.0714-0.4498-1.994-1.3727-0.862-0.8619-1.5702-1.2879-2.1145-1.2879-0.8632 0-1.3146 1.0712-1.3146 3.1739 0 1.4952-0.02899 2.1502-0.35651 2.1502-0.23584 0-0.6264-0.3396-1.2724-0.94971-0.78851-0.71445-1.414-1.0962-1.9052-1.0962-1.2179 0-1.6096 2.3461-1.6096 7.7827 0 5.5725-0.34302 7.4585-1.3716 8.3156-0.49145 0.38625-0.85357 0.59995-1.204 0.59995-0.5054 0-0.98654-0.44455-1.7965-1.4571-0.70546-0.8466-1.5849-1.4608-2.161-1.4608-0.124 0-0.234 0.02844-0.3251 0.08924-1.2859 0.7715-0.9431 9.9446 0.4285 12.43 0.6859 1.2004 1.2002 2.8294 1.286 3.7722 0 0.91446-0.19054 1.2574-1.0035 1.2574-0.40646 0-0.9684-0.08569-1.7399-0.22851-1.4573-0.25708-3.4291-1.2004-4.2864-1.9717-0.6823-0.63379-1.1707-0.93482-1.6069-0.93482-0.331 0-0.63196 0.17336-0.9648 0.50611-1.3716 1.3716 1.886 14.06 5.4008 21.089l2.4861 4.972-2.4004-0.51441c-1.286-0.25734-3.1719-0.68564-4.2005-1.0287-0.3501-0.09216-0.6527-0.13576-0.9093-0.13611h-0.0059c-2.1239 0.00285-1.0863 2.9842 2.2009 5.9656 2.4861 2.3145 4.3722 3.1719 7.7156 3.6004 5.1971 0.68799 6.6468 2.1255 3.0124 2.1255-0.44227 0-0.9598-0.02136-1.555-0.06786-0.4703-0.0325-0.9052-0.048-1.3042-0.048-3.8197 0-4.34 1.4268-0.9248 3.1342 1.6326 0.84448 3.6072 1.2546 5.7689 1.2546 4.4222 0 9.6277-1.7162 14.292-4.9407 2.1431-1.4578 4.2862-2.6577 4.7148-2.6577 0.4287 0 1.1146 4.115 1.4575 9.1731 0.60007 9.6013 1.886 14.402 7.6299 28.976 1.6288 4.2009 3.0004 8.4014 3.0862 9.2588 0.0857 5.0578 6.4296 13.116 12.345 15.688 1.4573 0.6001 3.6006 1.886 4.8006 2.8291l2.1433 1.7146v25.718l-1.4e-4 25.718 2.4004 2.4006c2.3146 2.4004 2.5719 2.4004 12.688 2.4004l10.287-2e-4 2.1432 3.4292c1.1145 1.8862 2.4861 5.0581 3.0005 7.1157 1.2003 4.5437 4.9724 7.8872 8.9159 7.8872 2.7434 0 2.9148 0.0857 2.4004 2.8289-0.5143 3.3435 1.7146 6.5154 6.6011 9.2588 3.7721 2.143 5.1438 5.2295 5.1438 11.745 0 9.6872 7.544 17.403 18.174 18.689 1.2602 0.14944 2.5164 0.22573 3.7784 0.22573 8.8685 0 18.023-3.7688 30.856-12.399 6.881-4.6407 10.377-6.6926 12.304-6.6926 1.1704 0 1.7628 0.7565 2.1838 2.1492 0.4286 1.2859-0.5144 2.9148-3.6006 6.4294-8.1443 9.4302-9.6015 11.316-24.175 30.605-16.803 22.375-15.86 19.032-8.2301 30.091 2.1433 3.0859 3.8579 5.8293 3.8579 6.0007 0 0.1716 1.7146 3.0005 3.8578 6.2583 2.1432 3.1719 3.8578 6.2583 3.8578 6.8584 0 0.5998-1.5432 4.2864-3.5149 8.144-9.5159 19.289-11.23 26.061-16.203 64.553-3.6006 27.519-4.8009 36.092-6.7727 48.437-1.8002 11.145-4.4578 29.491-6.001 42.007-1.2859 9.6873-2.5719 29.919-3.3434 50.751-0.42859 10.202-1.0287 17.231-1.6288 18.003-2.0575 2.4861-7.8871 21.946-13.888 46.55-2.486 9.8589-4.8865 19.546-5.315 21.432-0.85718 3.172-1.5431 3.772-9.9444 8.5729-13.117 7.4584-26.576 16.46-28.462 19.203-0.9431 1.286-2.4861 4.2863-3.3434 6.6012l-1.6289 4.2006-14.059 4.5435c-13.288 4.2865-34.206 10.888-42.778 13.46-6.5318 2.0017-13.452 3.0323-19.766 3.0323-3.9621 0-7.6855-0.4058-10.925-1.2321-13.802-3.6006-43.036-16.374-67.897-29.662-5.1525-2.7358-8.2921-4.0651-11.573-4.0651-2.8875 0-5.8844 1.0297-10.459 3.0363-5.8295 2.5719-6.6868 2.7434-16.803 2.7434-11.916 0-12.516 0.1715-24.175 8.0585-3.2576 2.2288-10.973 6.5153-17.146 9.5157-6.0867 3.0005-12.002 6.1725-13.031 7.0298-0.94299 0.8573-3.4291 4.2006-5.4009 7.4582-1.9718 3.1719-5.658 9.0017-8.2298 12.774-2.6576 3.772-6.5154 10.373-8.6586 14.659-2.1433 4.2864-5.5724 10.373-7.6299 13.545-7.1154 10.973-7.6298 12.945-4.3721 15.945 1.2738 1.2266 2.4436 1.8041 4.4096 1.8041 1.6067 0 3.7452-0.3857 6.9066-1.1183 4.2007-1.0286 5.7438-1.8859 8.4014-4.8864 1.5824-1.8199 3.0918-3.2013 3.5172-3.2013 0.03556 0 0.06352 0.0096 0.08335 0.0294 0.8573 0.8573-2.7434 11.83-3.9436 11.83-0.42865 0-1.3716 1.2002-2.0574 2.6576l-1.3716 2.5719-21.175-0.4287-21.175-0.3428-1.886-2.2291c-1.0288-1.2001-2.7434-4.9721-3.7721-8.4014-3.5148-11.659-7.2869-22.889-13.716-40.121-1.4574-4.0293-4.5436-12.688-6.944-19.289-2.3146-6.6011-6.001-16.803-8.1442-22.718-2.0575-5.9153-4.2864-12.259-4.9722-14.145-0.60009-1.886-3.5149-10.03-6.4296-18.003-4.7151-13.031-8.3157-22.975-15.86-44.15-1.2001-3.5149-4.3722-12.259-6.944-19.289-2.6576-7.1155-5.8296-15.945-7.1155-19.718-3.6007-10.03-11.23-31.291-12.516-34.72-0.68584-1.6289-2.4004-6.5153-3.8577-10.716-1.4574-4.2865-3.172-9.0875-3.8578-10.716-1.8003-4.715-8.6586-23.747-10.973-30.862-6.7725-20.403-9.6872-25.976-15.002-29.319-1.4652-0.9017-1.7285-1.4248-5.1842-1.4248-4.4296 0-14.105 0.8594-38.28 2.8821-8.4871 0.6857-20.06 1.7146-25.718 2.1433-5.6581 0.4286-19.546 1.6288-30.862 2.572-11.316 0.9428-25.804 2.0572-32.148 2.5716-6.3439 0.4286-15.945 1.2859-21.261 1.8861-11.316 1.1144-13.031 2.3147-13.031 9.0014 0 3.6006 0.8573 6.4296 6.7725 22.547 2.9148 7.8869 7.5441 20.574 8.6586 24.004 0.42859 1.2003 2.0574 5.8294 3.6863 10.287 1.6289 4.4579 4.8865 13.545 7.2012 20.146 5.658 15.688 12.088 33.606 18.26 50.58 2.7434 7.5441 6.944 19.289 9.4301 26.147 2.4004 6.8584 6.1725 17.231 8.3157 23.147 2.1432 5.9153 4.8008 13.374 6.001 16.717 1.1144 3.2577 2.7433 7.8868 3.6863 10.287 2.3147 6.3439 16.631 46.293 18.775 52.294 0.94297 2.8289 3.1719 9.0014 4.8864 13.716 3.5149 9.6873 8.6586 24.09 14.317 39.949 2.0575 5.9153 4.458 11.916 5.2295 13.459 1.7145 3.3433 8.4014 8.4871 12.431 9.6016 1.7146 0.4286 13.717 1.3716 26.662 2.1432 12.945 0.7716 27.862 1.7146 33.006 2.1432 10.545 0.943 55.38 3.7721 83.499 5.2295 6.8151 0.3429 17.659 0.5143 35.629 0.5143 17.971 0 43.069-0.1714 78.39-0.5144 155.68-1.5431 178.57-1.8861 183.54-2.8291 5.3152-0.9431 9.773-3.3434 11.659-6.3439 1.5432-2.3147 2.7432-17.832 1.4574-18.603-0.42874-0.2571-10.202-0.5143-21.689-0.6001-11.573-0.0857-22.632-0.3429-24.69-0.6-3.6864-0.4287-3.6006-0.5145 7.2868-4.3722l10.973-3.9436 34.206-0.3428c8.724-0.0731 15.245-0.1186 20.101-0.1186 5.9353 0 9.3829 0.0678 11.324 0.236h-0.00674l-15.769 63.711 73.188-1.235 0.97442 17.591 321.81 3e-4 -7.289-77.462h-0.0104c0.4005-3.0423 0.8201-6.2993 1.256-9.753 4.5434-35.577 5.1434-39.264 10.373-60.439 5.2293-21.518 8.5728-36.949 13.202-60.867 2.6574-13.888 6.0009-38.32 8.6585-63.439 1.8002-16.202 1.2002-71.755-0.9431-96.016-0.9428-11.316-2.143-26.576-2.6575-33.862-2.4002-37.635-5.8294-60.953-11.487-78.27-10.116-31.034-40.464-77.756-68.497-105.62-15.174-15.002-48.608-41.664-62.41-49.808-4.5437-2.6577-5.6582-3.6865-5.3152-4.8867 0.51426-1.7144-17.574-39.006-20.575-42.435-0.94314-1.0288-2.6576-1.886-3.9436-1.886-1.2859 0-7.9727 2.9148-14.831 6.4297l-12.516 6.4295-4.115-7.1152c-6.0867-10.373-12.602-24.09-15.088-31.891-4.2007-13.288-5.0578-20.403-5.7438-51.437-0.68566-29.062-1.3716-36.263-4.715-49.294-1.6288-6.6008-5.3152-17.574-6.8583-20.575-0.6001-1.2002-1.886-5.658-2.9148-9.8587-1.0288-4.2864-2.4861-9.259-3.2577-11.145-3.3434-8.0586-9.2586-13.031-18.003-14.917-9.9446-2.1431-11.145-2.6572-13.374-5.4866-1.2001-1.5432-3.6862-3.5147-5.658-4.4578-1.9718-0.8574-3.5149-2.0573-3.5149-2.7431 0-0.68606-0.60007-2.3147-1.286-3.6865-0.83036-1.6606-2.3042-2.6063-3.5212-2.6063-0.66764 0-1.258 0.28456-1.6224 0.89186-0.33905 0.53699-0.9202 0.81314-1.8018 0.81314-1.7934 0-4.8298-1.1426-9.6-3.5565-7.0298-3.6006-7.4585-3.6863-18.089-4.2005-6.0008-0.34276-12.345-1.2002-14.231-1.886-3.2075-1.1664-7.2481-1.817-10.961-1.817z"/> </g> </g> </svg>